STARTFONT 2.1
FONT -FontForge-Roboto Mono Medium for Powerline-Medium-R-Normal--90-860-75-75-P-536-ISO10646-1
SIZE 86 75 75
FONTBOUNDINGBOX 131 117 -44 -22
COMMENT "Generated by fontforge, http://fontforge.sourceforge.net"
COMMENT "Copyright 2015 Google Inc. All Rights Reserved."
STARTPROPERTIES 41
FOUNDRY "FontForge"
FAMILY_NAME "Roboto Mono Medium for Powerline"
WEIGHT_NAME "Medium"
SLANT "R"
SETWIDTH_NAME "Normal"
ADD_STYLE_NAME ""
PIXEL_SIZE 90
POINT_SIZE 860
RESOLUTION_X 75
RESOLUTION_Y 75
SPACING "P"
AVERAGE_WIDTH 536
CHARSET_REGISTRY "ISO10646"
CHARSET_ENCODING "1"
FONTNAME_REGISTRY ""
CHARSET_COLLECTIONS "ISO8859-2 ISO8859-5 ISO8859-7 ISO8859-9 ISO8859-4 ISO10646-1"
FONT_NAME "RobotoMonoForPowerline-Medium"
FACE_NAME "Roboto Mono Medium for Powerline"
COPYRIGHT "Copyright 2015 Google Inc. All Rights Reserved."
FONT_VERSION "2.000986; 2015; ttfautohint (v1.3)"
FONT_ASCENT 68
FONT_DESCENT 22
UNDERLINE_POSITION -9
UNDERLINE_THICKNESS 5
X_HEIGHT 47
CAP_HEIGHT 64
DEFAULT_CHAR 3
RAW_ASCENT 750
RAW_DESCENT 250
NORM_SPACE 54
RELATIVE_WEIGHT 50
RELATIVE_SETWIDTH 50
SUPERSCRIPT_X 0
SUPERSCRIPT_Y 42
SUPERSCRIPT_SIZE 58
SUBSCRIPT_X 0
SUBSCRIPT_Y 12
SUBSCRIPT_SIZE 58
FIGURE_WIDTH 54
AVG_LOWERCASE_WIDTH 540
AVG_UPPERCASE_WIDTH 540
ENDPROPERTIES
CHARS 1052
STARTCHAR NULL
ENCODING 0
SWIDTH 0 0
DWIDTH 0 0
BBX 1 1 0 0
BITMAP
00
ENDCHAR
STARTCHAR uni0002
ENCODING 2
SWIDTH 600 0
DWIDTH 54 0
BBX 1 1 0 0
BITMAP
00
ENDCHAR
STARTCHAR uni0009
ENCODING 9
SWIDTH 600 0
DWIDTH 54 0
BBX 1 1 0 0
BITMAP
00
ENDCHAR
STARTCHAR nonmarkingreturn
ENCODING 13
SWIDTH 600 0
DWIDTH 54 0
BBX 1 1 0 0
BITMAP
00
ENDCHAR
STARTCHAR space
ENCODING 32
SWIDTH 600 0
DWIDTH 54 0
BBX 1 1 0 0
BITMAP
00
ENDCHAR
STARTCHAR exclam
ENCODING 33
SWIDTH 600 0
DWIDTH 54 0
BBX 13 66 20 -1
BITMAP
7FF0
7FF0
7FF0
7FF0
7FF0
7FF0
7FF0
7FF0
7FF0
7FF0
7FF0
7FF0
7FF0
7FF0
7FF0
7FF0
7FF0
7FF0
7FF0
7FF0
7FF0
7FF0
7FF0
7FF0
7FF0
7FF0
7FF0
7FF0
7FF0
7FF0
7FF0
7FF0
7FF0
7FF0
7FF0
7FF0
7FF0
7FF0
7FF0
3FF0
3FF0
3FF0
3FE0
0000
0000
0000
0000
0000
0000
0000
0000
0000
0000
0000
0F80
3FE0
7FF0
7FF0
FFF8
FFF8
FFF8
FFF8
7FF0
7FF0
3FE0
0F80
ENDCHAR
STARTCHAR quotedbl
ENCODING 34
SWIDTH 600 0
DWIDTH 54 0
BBX 25 23 14 46
BITMAP
FF007F80
FF007F80
FF007F80
FF007F80
FF007F80
FF007F80
FF007F80
FF007F80
FF007F80
FE007F80
FE007F80
FE007F80
FE007F00
FE007F00
FE007F00
FE007F00
FE007F00
FE007F00
FE007F00
FE007F00
FE007F00
FE007F00
FE007F00
ENDCHAR
STARTCHAR numbersign
ENCODING 35
SWIDTH 600 0
DWIDTH 54 0
BBX 49 65 2 0
BITMAP
00001FC00FF000
00001FC00FE000
00001FC00FE000
00003FC00FE000
00003F801FE000
00003F801FE000
00003F801FC000
00003F801FC000
00003F801FC000
00007F801FC000
00007F003FC000
00007F003FC000
00007F003F8000
00007F003F8000
0000FF003F8000
0000FF007F8000
0000FE007F8000
0000FE007F0000
0000FE007F0000
0FFFFFFFFFFF80
0FFFFFFFFFFF80
0FFFFFFFFFFF80
0FFFFFFFFFFF80
0FFFFFFFFFFF80
0FFFFFFFFFFF80
0FFFFFFFFFFF80
0003F801FE0000
0003F801FE0000
0003F801FC0000
0003F801FC0000
0007F801FC0000
0007F801FC0000
0007F003FC0000
0007F003F80000
0007F003F80000
0007F003F80000
000FF003F80000
000FE007F80000
000FE007F80000
000FE007F00000
FFFFFFFFFFFC00
FFFFFFFFFFFC00
FFFFFFFFFFFC00
FFFFFFFFFFFC00
FFFFFFFFFFFC00
FFFFFFFFFFFC00
FFFFFFFFFFFC00
003FC00FE00000
003F801FE00000
003F801FE00000
003F801FC00000
003F801FC00000
007F801FC00000
007F003FC00000
007F003FC00000
007F003F800000
007F003F800000
00FF003F800000
00FF003F800000
00FE007F800000
00FE007F000000
00FE007F000000
00FE007F000000
01FE007F000000
01FC00FF000000
ENDCHAR
STARTCHAR dollar
ENCODING 36
SWIDTH 600 0
DWIDTH 54 0
BBX 43 84 6 -9
BITMAP
00001FE00000
00001FE00000
00001FE00000
00001FE00000
00001FE00000
00001FE00000
00001FE00000
00001FE00000
00001FE00000
00001FE00000
0001FFFC0000
000FFFFF8000
001FFFFFE000
007FFFFFF000
00FFFFFFF800
01FFFFFFFC00
03FFFFFFFE00
07FFFFFFFF00
07FFE03FFF00
0FFF800FFF80
0FFF0007FF80
0FFE0003FF80
1FFC0001FFC0
1FFC0001FFC0
1FFC0001FFC0
1FF80000FFC0
1FF80000FFE0
1FF80000FFE0
1FF80000FFE0
1FFC0000FFE0
1FFC00000000
1FFC00000000
1FFE00000000
0FFF00000000
0FFF80000000
07FFE0000000
07FFF8000000
03FFFE000000
03FFFFC00000
01FFFFF80000
00FFFFFE0000
003FFFFF8000
001FFFFFE000
0007FFFFF000
0001FFFFF800
00007FFFFC00
00000FFFFE00
000001FFFF00
0000007FFF80
0000001FFF80
00000007FFC0
00000003FFC0
00000001FFC0
00000001FFE0
00000000FFE0
FFE00000FFE0
FFE000007FE0
FFE000007FE0
FFE000007FE0
7FE00000FFE0
7FF00000FFE0
7FF00000FFE0
7FF80000FFE0
3FF80001FFC0
3FFC0003FFC0
3FFF0007FFC0
1FFFC03FFF80
0FFFFFFFFF80
0FFFFFFFFF00
07FFFFFFFE00
03FFFFFFFC00
01FFFFFFF800
007FFFFFE000
001FFFFF8000
0007FFFE0000
00003FC00000
00001FC00000
00001FC00000
00001FC00000
00001FC00000
00001FC00000
00001FC00000
00001FC00000
00001FC00000
ENDCHAR
STARTCHAR percent
ENCODING 37
SWIDTH 600 0
DWIDTH 54 0
BBX 50 67 2 -1
BITMAP
00FF0000000000
03FFC000000000
0FFFF000000000
1FFFF800000000
3FFFFC00000000
3FFFFC00000000
7FC3FE00000000
7F81FE00000000
FF00FF00100000
FF00FF003C0000
FE007F003E0000
FE007F007F8000
FE007F007F0000
FE007F00FF0000
FE007F00FE0000
FE007F01FC0000
FE007F01FC0000
FE007F03F80000
FE007F03F80000
FF00FF07F00000
FF00FF07F00000
7F81FE0FE00000
7FC3FE0FE00000
3FFFFC1FC00000
3FFFFC3FC00000
1FFFF83F800000
0FFFF07F800000
03FFC07F000000
00FF00FF000000
000000FE000000
000001FE000000
000001FC000000
000003F8000000
000003F8000000
000007F0000000
000007F0000000
00000FE0000000
00000FE0000000
00001FC0000000
00001FC03FC000
00003F80FFF000
00003F83FFFC00
00007F07FFFE00
0000FF0FFFFF00
0000FE1FFFFF00
0001FE1FF0FF80
0001FC1FC07F80
0003F83FC03FC0
0003F83F803FC0
0007F03F801FC0
0007F03F801FC0
000FE03F801FC0
000FE03F801FC0
001FC03F801FC0
003FC03F801FC0
000F803F801FC0
0003803F801FC0
0001003FC03FC0
0000003FC03FC0
0000001FE03F80
0000001FF0FF80
0000001FFFFF00
0000000FFFFF00
00000007FFFE00
00000003FFFC00
00000000FFF000
000000003FC000
ENDCHAR
STARTCHAR ampersand
ENCODING 38
SWIDTH 600 0
DWIDTH 54 0
BBX 49 67 4 -1
BITMAP
00007FC0000000
0003FFF8000000
000FFFFE000000
001FFFFF000000
003FFFFF800000
007FFFFFC00000
00FFFFFFC00000
00FFFFFFE00000
01FFFFFFE00000
01FFE07FF00000
03FFC03FF00000
03FF801FF00000
03FF001FF00000
03FF001FF80000
03FF001FF80000
03FF001FF80000
03FF001FF00000
03FF001FF00000
03FF001FF00000
03FF003FF00000
03FF007FE00000
03FF80FFE00000
01FF81FFC00000
01FFC3FF800000
00FFCFFF000000
00FFFFFE000000
007FFFFC000000
007FFFF8000000
003FFFF0000000
003FFFE0000000
001FFF80000000
001FFF00000000
003FFF00000000
007FFF80000000
01FFFFC0000000
03FFFFC001FF00
07FFFFE001FF00
0FFFFFF003FF00
0FFF7FF803FF00
1FFE7FF803FF00
3FFC3FFC03FE00
3FF81FFE03FE00
7FF00FFF03FE00
7FF00FFF07FE00
FFE007FF87FE00
FFE003FFC7FC00
FFE001FFEFFC00
FFE001FFEFFC00
FFC000FFFFF800
FFC0007FFFF800
FFC0003FFFF000
FFE0003FFFF000
FFE0001FFFE000
FFE0000FFFE000
7FF00007FFC000
7FF00007FF8000
7FF8001FFFC000
3FFE007FFFE000
3FFFFFFFFFF000
1FFFFFFFFFF000
0FFFFFFFFFF800
0FFFFFFFFFFC00
03FFFFFF9FFE00
01FFFFFF1FFF00
00FFFFFC0FFF00
003FFFF007FF80
0003FF00000000
ENDCHAR
STARTCHAR quotesingle
ENCODING 39
SWIDTH 600 0
DWIDTH 54 0
BBX 8 23 21 45
BITMAP
FF
FF
FF
FF
FF
FF
FF
FF
FF
FF
FF
FF
FF
FF
FF
FF
FF
FE
FE
FE
FE
FE
FE
ENDCHAR
STARTCHAR parenleft
ENCODING 40
SWIDTH 600 0
DWIDTH 54 0
BBX 24 92 15 -20
BITMAP
000002
00000E
00001E
00007E
0000FF
0001FF
0003FF
0007FE
0007FC
000FF8
001FF0
003FE0
003FE0
007FC0
00FF80
00FF80
01FF00
01FF00
03FE00
03FE00
07FC00
07FC00
0FFC00
0FF800
0FF800
1FF800
1FF000
1FF000
1FF000
3FF000
3FE000
3FE000
3FE000
7FE000
7FE000
7FE000
7FC000
7FC000
7FC000
7FC000
FFC000
FFC000
FFC000
FFC000
FFC000
FFC000
FFC000
FFC000
FFC000
FFC000
FFC000
FFC000
7FC000
7FC000
7FC000
7FC000
7FC000
7FE000
7FE000
7FE000
3FE000
3FE000
3FE000
3FF000
1FF000
1FF000
1FF000
0FF800
0FF800
0FF800
07FC00
07FC00
07FC00
03FE00
03FE00
01FF00
01FF00
00FF80
007F80
007FC0
003FE0
003FF0
001FF0
000FF8
0007FC
0003FE
0001FF
0000FF
00007F
00003E
00001E
000004
ENDCHAR
STARTCHAR parenright
ENCODING 41
SWIDTH 600 0
DWIDTH 54 0
BBX 24 92 14 -20
BITMAP
200000
300000
780000
7E0000
FF0000
FF8000
FFC000
7FE000
3FF000
1FF800
0FF800
07FC00
07FE00
03FE00
01FF00
01FF80
00FF80
00FFC0
007FC0
007FE0
003FE0
003FE0
003FF0
001FF0
001FF8
001FF8
000FF8
000FFC
000FFC
000FFC
0007FC
0007FE
0007FE
0007FE
0007FE
0003FE
0003FE
0003FF
0003FF
0003FF
0003FF
0003FF
0003FF
0003FF
0003FF
0003FF
0003FF
0003FF
0003FF
0003FF
0003FF
0003FF
0003FF
0003FF
0003FF
0003FF
0003FE
0003FE
0007FE
0007FE
0007FE
0007FE
0007FC
000FFC
000FFC
000FF8
000FF8
001FF8
001FF0
001FF0
003FF0
003FE0
003FE0
007FC0
007FC0
00FF80
00FF80
01FF00
01FF00
03FE00
07FC00
07FC00
0FF800
1FF000
3FE000
7FE000
FFC000
FF8000
7E0000
7C0000
780000
300000
ENDCHAR
STARTCHAR asterisk
ENCODING 42
SWIDTH 600 0
DWIDTH 54 0
BBX 44 45 7 8
BITMAP
00007FC00000
00007FC00000
00007FC00000
00003FC00000
00003FC00000
00003FC00000
00003FC00000
00003FC00000
00003FC00000
00003FC00000
00003F800000
00003F800000
30003F800080
3C003F800380
3F803F800FC0
7FE03F807FC0
7FF81F81FFC0
7FFE1F87FFC0
FFFFDFBFFFE0
FFFFFFFFFFE0
FFFFFFFFFFE0
1FFFFFFFFFD0
01FFFFFFFC00
001FFFFFC000
0001FFF80000
0000FFE00000
0001FFE00000
0003FFF00000
0003FFF80000
0007FBFC0000
000FF3FE0000
001FF1FE0000
003FE0FF0000
003FE0FF8000
007FC07FC000
00FF807FE000
01FF803FE000
03FF003FF000
07FF001FF800
07FE001FFC00
03FE000FF800
00FC0007E000
00780007C000
001800038000
000800020000
ENDCHAR
STARTCHAR plus
ENCODING 43
SWIDTH 600 0
DWIDTH 54 0
BBX 44 47 5 6
BITMAP
00007FE00000
00007FE00000
00007FE00000
00007FE00000
00007FE00000
00007FE00000
00007FE00000
00007FE00000
00007FE00000
00007FE00000
00007FE00000
00007FE00000
00007FE00000
00007FE00000
00007FE00000
00007FE00000
00007FE00000
00007FE00000
FFFFFFFFFFF0
FFFFFFFFFFF0
FFFFFFFFFFF0
FFFFFFFFFFF0
FFFFFFFFFFF0
FFFFFFFFFFF0
FFFFFFFFFFF0
FFFFFFFFFFF0
FFFFFFFFFFF0
FFFFFFFFFFF0
00007FE00000
00007FE00000
00007FE00000
00007FE00000
00007FE00000
00007FE00000
00007FE00000
00007FE00000
00007FE00000
00007FE00000
00007FE00000
00007FE00000
00007FE00000
00007FE00000
00007FE00000
00007FE00000
00007FE00000
00007FE00000
00007FE00000
ENDCHAR
STARTCHAR comma
ENCODING 44
SWIDTH 600 0
DWIDTH 54 0
BBX 14 27 16 -17
BITMAP
1FFC
1FFC
1FFC
1FFC
1FFC
1FFC
1FFC
1FFC
1FFC
1FFC
1FFC
1FFC
1FFC
1FF8
1FF8
1FF8
1FF0
3FF0
3FF0
3FE0
7FE0
7FC0
FF80
FF80
7F00
1E00
0C00
ENDCHAR
STARTCHAR hyphen
ENCODING 45
SWIDTH 600 0
DWIDTH 54 0
BBX 35 9 11 24
BITMAP
FFFFFFFFE0
FFFFFFFFE0
FFFFFFFFE0
FFFFFFFFE0
FFFFFFFFE0
FFFFFFFFE0
FFFFFFFFE0
FFFFFFFFE0
FFFFFFFFE0
ENDCHAR
STARTCHAR period
ENCODING 46
SWIDTH 600 0
DWIDTH 54 0
BBX 15 15 20 -1
BITMAP
07E0
1FF0
3FFC
7FFC
7FFE
FFFE
FFFE
FFFE
FFFE
FFFE
FFFE
7FFC
3FFC
1FF8
07E0
ENDCHAR
STARTCHAR slash
ENCODING 47
SWIDTH 600 0
DWIDTH 54 0
BBX 35 70 10 -5
BITMAP
0000007FE0
0000007FE0
0000007FC0
000000FFC0
000000FFC0
000000FF80
000001FF80
000001FF00
000003FF00
000003FF00
000003FE00
000007FE00
000007FE00
000007FC00
00000FFC00
00000FFC00
00000FF800
00001FF800
00001FF800
00001FF000
00003FF000
00003FE000
00007FE000
00007FE000
00007FC000
0000FFC000
0000FFC000
0000FF8000
0001FF8000
0001FF8000
0001FF0000
0003FF0000
0003FE0000
0003FE0000
0007FE0000
0007FC0000
000FFC0000
000FFC0000
000FF80000
001FF80000
001FF80000
001FF00000
003FF00000
003FF00000
003FE00000
007FE00000
007FC00000
00FFC00000
00FFC00000
00FF800000
01FF800000
01FF800000
01FF000000
03FF000000
03FF000000
03FE000000
07FE000000
07FC000000
07FC000000
0FFC000000
0FF8000000
1FF8000000
1FF8000000
1FF0000000
3FF0000000
3FF0000000
3FE0000000
7FE0000000
7FE0000000
FFC0000000
ENDCHAR
STARTCHAR zero
ENCODING 48
SWIDTH 600 0
DWIDTH 54 0
BBX 42 67 6 -1
BITMAP
0000FFC00000
0007FFF80000
001FFFFE0000
007FFFFF8000
00FFFFFFC000
01FFFFFFE000
03FFFFFFF000
07FFFFFFF800
0FFFFFFFFC00
0FFF003FFC00
1FFE001FFE00
1FFC000FFE00
3FF80007FF00
3FF80007FF00
3FF00003FF00
7FF00003FF80
7FF00003FF80
7FE00001FF80
7FE00001FF80
7FE00001FF80
FFE00001FFC0
FFE00001FFC0
FFE00001FFC0
FFE00007FFC0
FFE0000FFFC0
FFE0001FFFC0
FFE0007FFFC0
FFE000FFFFC0
FFE001FFFFC0
FFE007FFFFC0
FFE00FFFFFC0
FFE01FFDFFC0
FFE07FF1FFC0
FFE0FFE1FFC0
FFE1FFC1FFC0
FFE7FF01FFC0
FFEFFE01FFC0
FFFFFC01FFC0
FFFFF801FFC0
FFFFE001FFC0
FFFFC001FFC0
FFFF8001FFC0
FFFE0001FFC0
FFFC0001FFC0
FFF80001FFC0
FFE00001FFC0
FFE00001FFC0
7FE00001FFC0
7FE00001FF80
7FE00001FF80
7FF00001FF80
7FF00003FF80
3FF00003FF00
3FF80007FF00
3FF80007FF00
1FFC000FFE00
1FFE001FFE00
0FFF803FFC00
0FFFFFFFFC00
07FFFFFFF800
03FFFFFFF000
01FFFFFFE000
00FFFFFFC000
007FFFFF8000
001FFFFF0000
0007FFF80000
0000FFC00000
ENDCHAR
STARTCHAR one
ENCODING 49
SWIDTH 600 0
DWIDTH 54 0
BBX 27 65 8 0
BITMAP
00000020
000001E0
000007E0
00003FE0
0001FFE0
0007FFE0
003FFFE0
01FFFFE0
07FFFFE0
3FFFFFE0
FFFFFFE0
FFFFFFE0
FFFFFFE0
FFFF7FE0
FFFC7FE0
FFE07FE0
FF007FE0
FC007FE0
E0007FE0
00007FE0
00007FE0
00007FE0
00007FE0
00007FE0
00007FE0
00007FE0
00007FE0
00007FE0
00007FE0
00007FE0
00007FE0
00007FE0
00007FE0
00007FE0
00007FE0
00007FE0
00007FE0
00007FE0
00007FE0
00007FE0
00007FE0
00007FE0
00007FE0
00007FE0
00007FE0
00007FE0
00007FE0
00007FE0
00007FE0
00007FE0
00007FE0
00007FE0
00007FE0
00007FE0
00007FE0
00007FE0
00007FE0
00007FE0
00007FE0
00007FE0
00007FE0
00007FE0
00007FE0
00007FE0
00007FE0
ENDCHAR
STARTCHAR two
ENCODING 50
SWIDTH 600 0
DWIDTH 54 0
BBX 45 66 3 0
BITMAP
00007FE00000
0007FFFE0000
001FFFFF8000
007FFFFFE000
00FFFFFFF000
01FFFFFFF800
03FFFFFFFC00
07FFFFFFFE00
0FFFFFFFFE00
1FFF803FFF00
1FFE000FFF00
3FFC0007FF80
3FF80003FF80
7FF00003FF80
7FF00001FFC0
7FF00001FFC0
7FE00001FFC0
7FE00000FFC0
FFE00000FFC0
FFE00000FFC0
FFE00000FFC0
00000001FFC0
00000001FFC0
00000001FF80
00000003FF80
00000003FF80
00000007FF00
00000007FF00
0000000FFE00
0000001FFE00
0000001FFC00
0000003FFC00
0000007FF800
000000FFF000
000001FFE000
000003FFE000
000007FFC000
000007FF8000
00000FFF0000
00001FFE0000
00003FFC0000
00007FF80000
0000FFF00000
0001FFE00000
0003FFE00000
0007FFC00000
0007FF800000
000FFF000000
001FFE000000
003FFC000000
007FF8000000
00FFF0000000
01FFE0000000
03FFC0000000
07FF80000000
0FFF00000000
0FFF00000000
1FFFFFFFFFF8
3FFFFFFFFFF8
3FFFFFFFFFF8
3FFFFFFFFFF8
3FFFFFFFFFF8
3FFFFFFFFFF8
3FFFFFFFFFF8
3FFFFFFFFFF8
3FFFFFFFFFF8
ENDCHAR
STARTCHAR three
ENCODING 51
SWIDTH 600 0
DWIDTH 54 0
BBX 42 67 4 -1
BITMAP
0000FFE00000
0007FFFC0000
003FFFFF8000
007FFFFFC000
01FFFFFFF000
03FFFFFFF800
07FFFFFFFC00
0FFFFFFFFC00
0FFFFFFFFE00
1FFF803FFE00
3FFE000FFF00
3FFC0007FF00
3FF80003FF80
7FF00003FF80
7FF00003FF80
7FF00001FF80
7FE00001FF80
7FE00001FF80
00000001FFC0
00000001FFC0
00000001FF80
00000001FF80
00000003FF80
00000003FF80
00000003FF00
00000007FF00
0000000FFE00
0000003FFE00
000000FFFC00
0003FFFFF800
0003FFFFF000
0003FFFFE000
0003FFFF8000
0003FFFF8000
0003FFFFE000
0003FFFFF800
0003FFFFFC00
0003FFFFFE00
0000003FFF00
0000000FFF00
00000007FF80
00000003FF80
00000001FFC0
00000001FFC0
00000000FFC0
00000000FFC0
00000000FFC0
00000000FFC0
00000000FFC0
FFE00000FFC0
FFE00000FFC0
FFE00000FFC0
FFE00001FFC0
7FF00001FFC0
7FF00003FF80
7FF80007FF80
3FFC000FFF80
3FFF001FFF00
1FFFFFFFFE00
0FFFFFFFFE00
0FFFFFFFFC00
07FFFFFFF800
01FFFFFFF000
00FFFFFFC000
003FFFFF8000
000FFFFC0000
0000FFC00000
ENDCHAR
STARTCHAR four
ENCODING 52
SWIDTH 600 0
DWIDTH 54 0
BBX 46 65 3 0
BITMAP
0000001FFC00
0000001FFC00
0000003FFC00
0000007FFC00
0000007FFC00
000000FFFC00
000000FFFC00
000001FFFC00
000003FFFC00
000003FFFC00
000007FFFC00
00000FFFFC00
00000FFFFC00
00001FFFFC00
00003FFFFC00
00003FEFFC00
00007FEFFC00
00007FCFFC00
0000FFCFFC00
0001FF8FFC00
0001FF0FFC00
0003FF0FFC00
0007FE0FFC00
0007FC0FFC00
000FFC0FFC00
000FF80FFC00
001FF80FFC00
003FF00FFC00
003FE00FFC00
007FE00FFC00
00FFC00FFC00
00FF800FFC00
01FF800FFC00
01FF000FFC00
03FE000FFC00
07FE000FFC00
07FC000FFC00
0FFC000FFC00
1FF8000FFC00
1FF0000FFC00
3FF0000FFC00
3FE0000FFC00
7FFFFFFFFFFC
FFFFFFFFFFFC
FFFFFFFFFFFC
FFFFFFFFFFFC
FFFFFFFFFFFC
FFFFFFFFFFFC
FFFFFFFFFFFC
FFFFFFFFFFFC
FFFFFFFFFFFC
0000000FFC00
0000000FFC00
0000000FFC00
0000000FFC00
0000000FFC00
0000000FFC00
0000000FFC00
0000000FFC00
0000000FFC00
0000000FFC00
0000000FFC00
0000000FFC00
0000000FFC00
0000000FFC00
ENDCHAR
STARTCHAR five
ENCODING 53
SWIDTH 600 0
DWIDTH 54 0
BBX 41 66 7 -1
BITMAP
07FFFFFFFE00
07FFFFFFFE00
07FFFFFFFE00
07FFFFFFFE00
07FFFFFFFE00
0FFFFFFFFE00
0FFFFFFFFE00
0FFFFFFFFE00
0FFFFFFFFE00
0FFFFFFFFE00
0FFC00000000
0FFC00000000
0FFC00000000
0FF800000000
0FF800000000
1FF800000000
1FF800000000
1FF800000000
1FF800000000
1FF800000000
1FF800000000
1FF800000000
1FF000000000
1FF07FE00000
3FF3FFFC0000
3FFFFFFF0000
3FFFFFFFC000
3FFFFFFFE000
3FFFFFFFF000
3FFFFFFFF800
3FFFFFFFFC00
3FFFFFFFFC00
3FFC00FFFE00
1FF0003FFE00
03E0001FFF00
0000000FFF00
00000007FF00
00000007FF80
00000003FF80
00000003FF80
00000003FF80
00000001FF80
00000001FF80
00000001FF80
00000001FF80
00000001FF80
00000001FF80
00000001FF80
FFC00003FF80
FFC00003FF80
FFC00003FF80
FFE00003FF00
FFE00007FF00
7FF0000FFF00
7FF8000FFF00
3FFC001FFE00
3FFF007FFE00
1FFFFFFFFC00
1FFFFFFFF800
0FFFFFFFF000
07FFFFFFF000
03FFFFFFC000
00FFFFFF8000
003FFFFF0000
000FFFF80000
0001FFC00000
ENDCHAR
STARTCHAR six
ENCODING 54
SWIDTH 600 0
DWIDTH 54 0
BBX 43 66 5 -1
BITMAP
0000007F8000
000007FF8000
00003FFF8000
0000FFFF8000
0003FFFF8000
0007FFFF8000
000FFFFF8000
001FFFFF8000
003FFFFF8000
007FFF800000
00FFFC000000
01FFF0000000
03FFE0000000
03FFC0000000
07FF80000000
07FF00000000
0FFE00000000
0FFC00000000
1FFC00000000
1FF800000000
1FF800000000
3FF800000000
3FF001800000
3FF03FFE0000
3FF0FFFF8000
7FE1FFFFC000
7FE7FFFFF000
7FEFFFFFF800
7FFFFFFFFC00
7FFFFFFFFC00
7FFFFFFFFE00
7FFFE07FFF00
FFFF001FFF00
FFFE000FFF80
FFFC0007FF80
FFF80003FF80
FFF00003FFC0
FFF00001FFC0
FFE00001FFC0
FFE00001FFC0
FFE00000FFC0
FFE00000FFC0
FFE00000FFC0
FFE00000FFE0
7FE00000FFC0
7FE00000FFC0
7FE00000FFC0
7FE00000FFC0
7FF00000FFC0
3FF00001FFC0
3FF00001FFC0
3FF80001FF80
1FF80003FF80
1FFC0003FF80
1FFE0007FF00
0FFF000FFF00
07FFC03FFE00
07FFFFFFFE00
03FFFFFFFC00
01FFFFFFF800
00FFFFFFF000
007FFFFFE000
003FFFFFC000
000FFFFF0000
0003FFFC0000
00007FE00000
ENDCHAR
STARTCHAR seven
ENCODING 55
SWIDTH 600 0
DWIDTH 54 0
BBX 44 65 4 0
BITMAP
FFFFFFFFFFF0
FFFFFFFFFFF0
FFFFFFFFFFF0
FFFFFFFFFFF0
FFFFFFFFFFF0
FFFFFFFFFFF0
FFFFFFFFFFF0
FFFFFFFFFFE0
FFFFFFFFFFE0
000000007FE0
00000000FFC0
00000000FFC0
00000001FF80
00000001FF80
00000003FF00
00000003FF00
00000007FF00
00000007FE00
00000007FE00
0000000FFC00
0000000FFC00
0000001FF800
0000001FF800
0000003FF800
0000003FF000
0000007FF000
0000007FE000
000000FFE000
000000FFC000
000000FFC000
000001FF8000
000001FF8000
000003FF8000
000003FF0000
000007FF0000
000007FE0000
00000FFE0000
00000FFC0000
00001FFC0000
00001FFC0000
00001FF80000
00003FF80000
00003FF00000
00007FF00000
00007FE00000
0000FFE00000
0000FFE00000
0001FFC00000
0001FFC00000
0003FF800000
0003FF800000
0003FF000000
0007FF000000
0007FF000000
000FFE000000
000FFE000000
001FFC000000
001FFC000000
003FF8000000
003FF8000000
003FF8000000
007FF0000000
007FF0000000
00FFE0000000
01FFE0000000
ENDCHAR
STARTCHAR eight
ENCODING 56
SWIDTH 600 0
DWIDTH 54 0
BBX 42 67 6 -1
BITMAP
0000FFC00000
0007FFFC0000
003FFFFF0000
007FFFFFC000
01FFFFFFE000
03FFFFFFF000
03FFFFFFF800
07FFFFFFFC00
0FFFFFFFFC00
0FFF807FFE00
1FFE001FFE00
1FFC000FFF00
3FFC0007FF00
3FF80007FF00
3FF80003FF00
3FF80003FF80
3FF00003FF80
3FF00003FF80
3FF00003FF80
3FF00003FF80
3FF00003FF80
3FF80003FF00
3FF80003FF00
1FF80007FF00
1FFC0007FE00
1FFC000FFE00
0FFE001FFC00
07FF807FFC00
07FFFFFFF800
03FFFFFFF000
01FFFFFFE000
007FFFFFC000
003FFFFF0000
007FFFFF8000
01FFFFFFE000
03FFFFFFF000
07FFFFFFF800
0FFFC07FFC00
1FFE001FFE00
1FFC000FFF00
3FF80007FF00
3FF00003FF80
7FF00003FF80
7FF00001FF80
7FE00001FFC0
FFE00001FFC0
FFE00000FFC0
FFE00000FFC0
FFE00000FFC0
FFE00001FFC0
FFE00001FFC0
FFE00001FFC0
7FF00001FFC0
7FF00003FF80
7FF80003FF80
7FF80007FF80
3FFE000FFF00
3FFF003FFF00
1FFFFFFFFE00
0FFFFFFFFE00
0FFFFFFFFC00
07FFFFFFF800
01FFFFFFF000
00FFFFFFC000
003FFFFF8000
000FFFFC0000
0000FFC00000
ENDCHAR
STARTCHAR nine
ENCODING 57
SWIDTH 600 0
DWIDTH 54 0
BBX 42 66 5 0
BITMAP
0000FFC00000
0007FFF80000
001FFFFE0000
007FFFFF0000
00FFFFFFC000
01FFFFFFE000
03FFFFFFF000
07FFFFFFF000
0FFFFFFFF800
0FFF807FFC00
1FFE003FFC00
1FFC001FFE00
3FF8000FFE00
3FF80007FF00
3FF00007FF00
7FF00003FF00
7FF00003FF80
7FE00001FF80
7FE00001FF80
FFE00001FF80
FFE00001FFC0
FFE00001FFC0
FFE00001FFC0
FFE00001FFC0
FFE00000FFC0
FFE00000FFC0
7FE00000FFC0
7FE00000FFC0
7FF00001FFC0
7FF00001FFC0
7FF00003FFC0
3FF80003FFC0
3FFC0007FFC0
3FFE000FFFC0
1FFF003FFFC0
1FFFC0FFFFC0
0FFFFFFFFFC0
07FFFFFFFFC0
07FFFFFFFF80
03FFFFFFFF80
01FFFFFDFF80
007FFFF9FF80
003FFFE1FF80
000FFF81FF80
00002003FF00
00000003FF00
00000003FF00
00000007FE00
00000007FE00
0000000FFE00
0000000FFC00
0000001FFC00
0000003FF800
0000007FF000
000001FFF000
000007FFE000
00001FFFC000
003FFFFF8000
003FFFFF0000
003FFFFE0000
003FFFFC0000
003FFFF80000
003FFFE00000
003FFF800000
003FFC000000
003FC0000000
ENDCHAR
STARTCHAR colon
ENCODING 58
SWIDTH 600 0
DWIDTH 54 0
BBX 16 52 21 -1
BITMAP
07E0
1FF8
3FFC
7FFE
7FFE
7FFE
FFFF
FFFF
FFFF
FFFE
7FFE
7FFE
3FFC
1FF8
07E0
0000
0000
0000
0000
0000
0000
0000
0000
0000
0000
0000
0000
0000
0000
0000
0000
0000
0000
0000
0000
0000
0000
07E0
1FF8
3FFC
7FFE
7FFE
7FFE
FFFF
FFFF
FFFF
FFFE
7FFE
7FFE
3FFC
1FF8
07E0
ENDCHAR
STARTCHAR semicolon
ENCODING 59
SWIDTH 600 0
DWIDTH 54 0
BBX 17 68 20 -17
BITMAP
01F800
07FC00
0FFF00
1FFF00
1FFF80
3FFF80
3FFF80
3FFF80
3FFF80
3FFF80
3FFF80
1FFF00
0FFF00
07FE00
01F800
000000
000000
000000
000000
000000
000000
000000
000000
000000
000000
000000
000000
000000
000000
000000
000000
000000
000000
000000
000000
000000
000000
000000
000000
000000
000000
0FFE00
0FFE00
0FFE00
0FFC00
0FFC00
0FFC00
0FFC00
0FFC00
0FFC00
0FFC00
0FFC00
0FFC00
0FFC00
0FFC00
0FFC00
1FF800
1FF800
1FF800
1FF000
3FF000
3FE000
7FE000
7FC000
FF8000
7F0000
1F0000
060000
ENDCHAR
STARTCHAR less
ENCODING 60
SWIDTH 600 0
DWIDTH 54 0
BBX 38 41 7 7
BITMAP
000000000C
000000003C
00000001FC
00000007FC
0000001FFC
000000FFFC
000003FFFC
00000FFFFC
00007FFFFC
0001FFFFFC
0007FFFFF8
003FFFFFC0
00FFFFFF00
03FFFFF800
1FFFFFC000
7FFFFE0000
FFFFF80000
FFFFC00000
FFFE000000
FFF0000000
FFE0000000
FFFC000000
FFFF800000
FFFFF00000
7FFFFE0000
1FFFFF8000
07FFFFF000
00FFFFFE00
003FFFFFC0
000FFFFFF8
0001FFFFFC
00007FFFFC
00001FFFFC
000003FFFC
000000FFFC
0000003FFC
00000007FC
00000001FC
000000007C
000000000C
0000000004
ENDCHAR
STARTCHAR equal
ENCODING 61
SWIDTH 600 0
DWIDTH 54 0
BBX 41 28 7 14
BITMAP
FFFFFFFFFF80
FFFFFFFFFF80
FFFFFFFFFF80
FFFFFFFFFF80
FFFFFFFFFF80
FFFFFFFFFF80
FFFFFFFFFF80
FFFFFFFFFF80
FFFFFFFFFF80
000000000000
000000000000
000000000000
000000000000
000000000000
000000000000
000000000000
000000000000
000000000000
000000000000
FFFFFFFFFF80
FFFFFFFFFF80
FFFFFFFFFF80
FFFFFFFFFF80
FFFFFFFFFF80
FFFFFFFFFF80
FFFFFFFFFF80
FFFFFFFFFF80
FFFFFFFFFF80
ENDCHAR
STARTCHAR greater
ENCODING 62
SWIDTH 600 0
DWIDTH 54 0
BBX 40 41 7 7
BITMAP
E000000000
F800000000
FF00000000
FFC0000000
FFF0000000
FFFE000000
FFFF800000
FFFFF00000
FFFFFC0000
FFFFFF0000
3FFFFFE000
07FFFFF800
00FFFFFF00
001FFFFFC0
0003FFFFF0
0000FFFFFE
00001FFFFF
000003FFFF
0000007FFF
0000000FFF
0000000FFF
0000007FFF
000003FFFF
00001FFFFF
00007FFFFE
0003FFFFF8
001FFFFFC0
00FFFFFF00
07FFFFFC00
1FFFFFE000
FFFFFF8000
FFFFFC0000
FFFFF00000
FFFFC00000
FFFE000000
FFF8000000
FFC0000000
FF00000000
FC00000000
E000000000
8000000000
ENDCHAR
STARTCHAR question
ENCODING 63
SWIDTH 600 0
DWIDTH 54 0
BBX 39 67 8 -1
BITMAP
0003FF8000
003FFFF800
00FFFFFE00
03FFFFFF80
07FFFFFFC0
0FFFFFFFE0
1FFFFFFFF0
3FFFFFFFF8
3FFFFFFFF8
7FFE007FFC
7FF8003FFC
FFF0001FFE
FFE0000FFE
FFE0000FFE
FFC00007FE
FFC00007FE
FFC00007FE
00000007FE
00000007FE
00000007FE
0000000FFE
0000000FFE
0000000FFE
0000001FFC
0000003FFC
0000003FF8
0000007FF8
000000FFF0
000001FFF0
000003FFE0
000007FFC0
00000FFF80
00001FFF00
00003FFE00
00007FFC00
0000FFF800
0000FFF000
0001FFE000
0001FFC000
0001FF8000
0003FF8000
0003FF0000
0003FF0000
0003FF0000
0003FF0000
0003FF0000
0003FF0000
0000000000
0000000000
0000000000
0000000000
0000000000
0000000000
0000000000
0000000000
0000FC0000
0001FE0000
0003FF0000
0007FF8000
0007FF8000
0007FF8000
0007FF8000
0007FF8000
0007FF8000
0003FF0000
0003FE0000
0000FC0000
ENDCHAR
STARTCHAR at
ENCODING 64
SWIDTH 600 0
DWIDTH 54 0
BBX 49 65 2 0
BITMAP
000003FF000000
00001FFFE00000
00007FFFF80000
0001FFFFFE0000
0003FFFFFF0000
000FFFFFFF8000
001FFE01FFC000
003FF0003FE000
007FC0000FF000
007F800007F800
00FF000003F800
01FE000001FC00
01FC000000FC00
03F8000000FE00
07F0007F007E00
07F003FFC07E00
0FE007FFF03F00
0FE00FFFF83F00
0FC01FFFF83F00
1FC03FFFF81F00
1F807FC3F81F80
3F807F03F01F80
3F80FE03F01F80
3F00FE03F01F80
3F01FC03F01F80
7F01FC03F01F80
7F03F803F01F80
7F03F803F01F80
7E03F803F01F80
7E03F003F01F80
7E07F003F01F80
7E07F003F01F80
7E07F007F01F80
FE07F007F01F80
FE07F007E01F80
FE07E007E01F00
FE07E007E01F00
FE07F007E03F00
FE07F007E03F00
7E07F007E03F00
7E07F007E03E00
7E07F00FE07E00
7E07F81FE07E00
7F07FC3FE0FC00
7F03FFFFF1FC00
7F03FFFFFFF800
3F03FFFBFFF000
3F81FFFBFFF000
3F80FFF1FFE000
3F807FC0FFC000
1FC01F003F0000
1FC00000000000
0FE00000000000
0FF00000000000
07F80000000000
07FC0000000000
03FE0000200000
01FF8000600000
00FFF007E00000
007FFFFFF00000
003FFFFFF00000
001FFFFFF00000
0007FFFFE00000
0001FFFF800000
00001FF8000000
ENDCHAR
STARTCHAR A
ENCODING 65
SWIDTH 600 0
DWIDTH 54 0
BBX 51 65 2 0
BITMAP
000007FE000000
000007FE000000
00000FFE000000
00000FFE000000
00000FFF000000
00001FFF000000
00001FFF000000
00001FFF800000
00003FFF800000
00003FFF800000
00003FFFC00000
00007FFFC00000
00007FFFC00000
00007FFFE00000
0000FFFFE00000
0000FFFFE00000
0000FFBFF00000
0001FFBFF00000
0001FF9FF00000
0001FF9FF00000
0003FF1FF80000
0003FF1FF80000
0003FF0FF80000
0003FE0FFC0000
0007FE0FFC0000
0007FE07FC0000
0007FE07FE0000
000FFC07FE0000
000FFC07FE0000
000FFC03FF0000
001FF803FF0000
001FF803FF0000
001FF801FF8000
003FF001FF8000
003FF001FF8000
003FF001FF8000
007FF000FFC000
007FE000FFC000
007FE000FFC000
00FFE0007FE000
00FFC0007FE000
00FFFFFFFFE000
01FFFFFFFFF000
01FFFFFFFFF000
01FFFFFFFFF000
01FFFFFFFFF800
03FFFFFFFFF800
03FFFFFFFFF800
03FFFFFFFFFC00
07FFFFFFFFFC00
07FE00000FFC00
07FE00000FFE00
0FFE00000FFE00
0FFC000007FE00
0FFC000007FE00
1FFC000007FF00
1FFC000003FF00
1FF8000003FF00
3FF8000003FF80
3FF8000003FF80
3FF0000001FF80
7FF0000001FFC0
7FF0000001FFC0
7FF0000001FFC0
FFE0000000FFE0
ENDCHAR
STARTCHAR B
ENCODING 66
SWIDTH 600 0
DWIDTH 54 0
BBX 45 65 6 0
BITMAP
FFFFFFE00000
FFFFFFFE0000
FFFFFFFFC000
FFFFFFFFE000
FFFFFFFFF800
FFFFFFFFFC00
FFFFFFFFFE00
FFFFFFFFFF00
FFFFFFFFFF80
FFE0001FFF80
FFE00007FFC0
FFE00003FFC0
FFE00001FFC0
FFE00001FFE0
FFE00000FFE0
FFE00000FFE0
FFE00000FFE0
FFE00000FFE0
FFE00000FFE0
FFE00000FFE0
FFE00000FFE0
FFE00000FFE0
FFE00001FFC0
FFE00001FFC0
FFE00003FF80
FFE0000FFF80
FFE0001FFF00
FFFFFFFFFE00
FFFFFFFFFC00
FFFFFFFFF800
FFFFFFFFE000
FFFFFFFFC000
FFFFFFFFF000
FFFFFFFFFC00
FFFFFFFFFE00
FFFFFFFFFF00
FFE0001FFF80
FFE00007FFC0
FFE00001FFE0
FFE00000FFE0
FFE00000FFF0
FFE000007FF0
FFE000007FF0
FFE000003FF0
FFE000003FF0
FFE000003FF8
FFE000003FF8
FFE000003FF8
FFE000003FF0
FFE000007FF0
FFE000007FF0
FFE000007FF0
FFE00000FFF0
FFE00001FFE0
FFE00003FFE0
FFE0000FFFC0
FFFFFFFFFFC0
FFFFFFFFFF80
FFFFFFFFFF00
FFFFFFFFFE00
FFFFFFFFFC00
FFFFFFFFF000
FFFFFFFFE000
FFFFFFFF0000
FFFFFFF00000
ENDCHAR
STARTCHAR C
ENCODING 67
SWIDTH 600 0
DWIDTH 54 0
BBX 46 67 4 -1
BITMAP
00003FF80000
0001FFFF0000
0007FFFFE000
001FFFFFF000
003FFFFFFC00
007FFFFFFE00
00FFFFFFFF00
01FFFFFFFF80
03FFFFFFFF80
07FFE00FFFC0
07FF8003FFE0
0FFF0001FFE0
0FFE0000FFF0
1FFC00007FF0
1FFC00007FF0
3FF800003FF8
3FF800003FF8
3FF000001FF8
7FF000001FF8
7FF000001FF8
7FE000001FFC
7FE000000000
FFE000000000
FFE000000000
FFE000000000
FFE000000000
FFE000000000
FFE000000000
FFE000000000
FFE000000000
FFE000000000
FFE000000000
FFE000000000
FFE000000000
FFE000000000
FFE000000000
FFE000000000
FFE000000000
FFE000000000
FFE000000000
FFE000000000
FFE000000000
FFE000000000
FFE000000000
FFE000000000
7FE000000000
7FE000001FFC
7FF000001FFC
7FF000001FF8
3FF000001FF8
3FF800003FF8
3FF800003FF8
1FF800003FF0
1FFC00007FF0
1FFE0000FFF0
0FFF0001FFE0
07FF8003FFE0
07FFC007FFC0
03FFFFFFFF80
01FFFFFFFF80
00FFFFFFFF00
007FFFFFFE00
003FFFFFF800
001FFFFFF000
0007FFFFC000
0001FFFF0000
00003FF00000
ENDCHAR
STARTCHAR D
ENCODING 68
SWIDTH 600 0
DWIDTH 54 0
BBX 44 65 6 0
BITMAP
FFFFFC000000
FFFFFFC00000
FFFFFFF00000
FFFFFFFC0000
FFFFFFFF0000
FFFFFFFF8000
FFFFFFFFE000
FFFFFFFFF000
FFFFFFFFF800
FFE003FFF800
FFE000FFFC00
FFE0003FFE00
FFE0001FFF00
FFE0000FFF00
FFE00007FF80
FFE00003FF80
FFE00003FFC0
FFE00001FFC0
FFE00001FFC0
FFE00000FFE0
FFE00000FFE0
FFE00000FFE0
FFE000007FE0
FFE000007FF0
FFE000007FF0
FFE000007FF0
FFE000007FF0
FFE000007FF0
FFE000007FF0
FFE000007FF0
FFE000007FF0
FFE000007FF0
FFE000007FF0
FFE000007FF0
FFE000007FF0
FFE000007FF0
FFE000007FF0
FFE000007FF0
FFE000007FF0
FFE000007FF0
FFE000007FF0
FFE000007FF0
FFE000007FE0
FFE00000FFE0
FFE00000FFE0
FFE00000FFE0
FFE00001FFC0
FFE00001FFC0
FFE00003FFC0
FFE00003FF80
FFE00007FF80
FFE0000FFF00
FFE0001FFF00
FFE0003FFE00
FFE000FFFC00
FFE003FFF800
FFFFFFFFF800
FFFFFFFFF000
FFFFFFFFE000
FFFFFFFF8000
FFFFFFFF0000
FFFFFFFC0000
FFFFFFF00000
FFFFFFC00000
FFFFFC000000
ENDCHAR
STARTCHAR E
ENCODING 69
SWIDTH 600 0
DWIDTH 54 0
BBX 42 65 7 0
BITMAP
FFFFFFFFFF80
FFFFFFFFFF80
FFFFFFFFFF80
FFFFFFFFFF80
FFFFFFFFFF80
FFFFFFFFFF80
FFFFFFFFFF80
FFFFFFFFFF80
FFFFFFFFFF80
FFE000000000
FFE000000000
FFE000000000
FFE000000000
FFE000000000
FFE000000000
FFE000000000
FFE000000000
FFE000000000
FFE000000000
FFE000000000
FFE000000000
FFE000000000
FFE000000000
FFE000000000
FFE000000000
FFE000000000
FFE000000000
FFFFFFFFF800
FFFFFFFFF800
FFFFFFFFF800
FFFFFFFFF800
FFFFFFFFF800
FFFFFFFFF800
FFFFFFFFF800
FFFFFFFFF800
FFFFFFFFF800
FFE000000000
FFE000000000
FFE000000000
FFE000000000
FFE000000000
FFE000000000
FFE000000000
FFE000000000
FFE000000000
FFE000000000
FFE000000000
FFE000000000
FFE000000000
FFE000000000
FFE000000000
FFE000000000
FFE000000000
FFE000000000
FFE000000000
FFE000000000
FFFFFFFFFFC0
FFFFFFFFFFC0
FFFFFFFFFFC0
FFFFFFFFFFC0
FFFFFFFFFFC0
FFFFFFFFFFC0
FFFFFFFFFFC0
FFFFFFFFFFC0
FFFFFFFFFFC0
ENDCHAR
STARTCHAR F
ENCODING 70
SWIDTH 600 0
DWIDTH 54 0
BBX 42 65 7 0
BITMAP
FFFFFFFFFFC0
FFFFFFFFFFC0
FFFFFFFFFFC0
FFFFFFFFFFC0
FFFFFFFFFFC0
FFFFFFFFFFC0
FFFFFFFFFFC0
FFFFFFFFFFC0
FFFFFFFFFFC0
FFE000000000
FFE000000000
FFE000000000
FFE000000000
FFE000000000
FFE000000000
FFE000000000
FFE000000000
FFE000000000
FFE000000000
FFE000000000
FFE000000000
FFE000000000
FFE000000000
FFE000000000
FFE000000000
FFE000000000
FFE000000000
FFE000000000
FFE000000000
FFFFFFFFFC00
FFFFFFFFFC00
FFFFFFFFFC00
FFFFFFFFFC00
FFFFFFFFFC00
FFFFFFFFFC00
FFFFFFFFFC00
FFFFFFFFFC00
FFFFFFFFFC00
FFE000000000
FFE000000000
FFE000000000
FFE000000000
FFE000000000
FFE000000000
FFE000000000
FFE000000000
FFE000000000
FFE000000000
FFE000000000
FFE000000000
FFE000000000
FFE000000000
FFE000000000
FFE000000000
FFE000000000
FFE000000000
FFE000000000
FFE000000000
FFE000000000
FFE000000000
FFE000000000
FFE000000000
FFE000000000
FFE000000000
FFE000000000
ENDCHAR
STARTCHAR G
ENCODING 71
SWIDTH 600 0
DWIDTH 54 0
BBX 45 67 4 -1
BITMAP
00001FF80000
0001FFFF0000
0007FFFFE000
001FFFFFF000
003FFFFFFC00
007FFFFFFE00
00FFFFFFFF00
01FFFFFFFF80
03FFFFFFFFC0
03FFE007FFC0
07FF8003FFE0
0FFF0001FFE0
0FFE0000FFF0
1FFE00007FF0
1FFC00007FF0
3FF800003FF8
3FF800003FF8
3FF800001FF8
7FF000001FF8
7FF000001FF8
7FF000000000
7FE000000000
7FE000000000
FFE000000000
FFE000000000
FFE000000000
FFE000000000
FFE000000000
FFE000000000
FFE000000000
FFE000000000
FFE000000000
FFE000000000
FFE000FFFFF8
FFE000FFFFF8
FFE000FFFFF8
FFE000FFFFF8
FFE000FFFFF8
FFE000FFFFF8
FFE000FFFFF8
FFE000FFFFF8
FFE000FFFFF8
FFE000001FF8
FFE000001FF8
7FE000001FF8
7FE000001FF8
7FF000001FF8
7FF000001FF8
7FF000001FF8
3FF800001FF8
3FF800001FF8
3FFC00001FF8
1FFC00001FF8
1FFE00001FF8
0FFF00001FF8
0FFF80003FF8
07FFC0007FF8
03FFE001FFF8
03FFFFFFFFF8
01FFFFFFFFF0
00FFFFFFFFE0
007FFFFFFFC0
003FFFFFFF80
000FFFFFFE00
0007FFFFF800
0000FFFFC000
00001FFC0000
ENDCHAR
STARTCHAR H
ENCODING 72
SWIDTH 600 0
DWIDTH 54 0
BBX 42 65 6 0
BITMAP
FFC00000FFC0
FFC00000FFC0
FFC00000FFC0
FFC00000FFC0
FFC00000FFC0
FFC00000FFC0
FFC00000FFC0
FFC00000FFC0
FFC00000FFC0
FFC00000FFC0
FFC00000FFC0
FFC00000FFC0
FFC00000FFC0
FFC00000FFC0
FFC00000FFC0
FFC00000FFC0
FFC00000FFC0
FFC00000FFC0
FFC00000FFC0
FFC00000FFC0
FFC00000FFC0
FFC00000FFC0
FFC00000FFC0
FFC00000FFC0
FFC00000FFC0
FFC00000FFC0
FFC00000FFC0
FFFFFFFFFFC0
FFFFFFFFFFC0
FFFFFFFFFFC0
FFFFFFFFFFC0
FFFFFFFFFFC0
FFFFFFFFFFC0
FFFFFFFFFFC0
FFFFFFFFFFC0
FFFFFFFFFFC0
FFC00000FFC0
FFC00000FFC0
FFC00000FFC0
FFC00000FFC0
FFC00000FFC0
FFC00000FFC0
FFC00000FFC0
FFC00000FFC0
FFC00000FFC0
FFC00000FFC0
FFC00000FFC0
FFC00000FFC0
FFC00000FFC0
FFC00000FFC0
FFC00000FFC0
FFC00000FFC0
FFC00000FFC0
FFC00000FFC0
FFC00000FFC0
FFC00000FFC0
FFC00000FFC0
FFC00000FFC0
FFC00000FFC0
FFC00000FFC0
FFC00000FFC0
FFC00000FFC0
FFC00000FFC0
FFC00000FFC0
FFC00000FFC0
ENDCHAR
STARTCHAR I
ENCODING 73
SWIDTH 600 0
DWIDTH 54 0
BBX 38 65 8 0
BITMAP
FFFFFFFFFC
FFFFFFFFFC
FFFFFFFFFC
FFFFFFFFFC
FFFFFFFFFC
FFFFFFFFFC
FFFFFFFFFC
FFFFFFFFFC
FFFFFFFFFC
0007FF0000
0007FF0000
0007FF0000
0007FF0000
0007FF0000
0007FF0000
0007FF0000
0007FF0000
0007FF0000
0007FF0000
0007FF0000
0007FF0000
0007FF0000
0007FF0000
0007FF0000
0007FF0000
0007FF0000
0007FF0000
0007FF0000
0007FF0000
0007FF0000
0007FF0000
0007FF0000
0007FF0000
0007FF0000
0007FF0000
0007FF0000
0007FF0000
0007FF0000
0007FF0000
0007FF0000
0007FF0000
0007FF0000
0007FF0000
0007FF0000
0007FF0000
0007FF0000
0007FF0000
0007FF0000
0007FF0000
0007FF0000
0007FF0000
0007FF0000
0007FF0000
0007FF0000
0007FF0000
0007FF0000
FFFFFFFFFC
FFFFFFFFFC
FFFFFFFFFC
FFFFFFFFFC
FFFFFFFFFC
FFFFFFFFFC
FFFFFFFFFC
FFFFFFFFFC
FFFFFFFFFC
ENDCHAR
STARTCHAR J
ENCODING 74
SWIDTH 600 0
DWIDTH 54 0
BBX 42 66 5 -1
BITMAP
00000000FFC0
00000000FFC0
00000000FFC0
00000000FFC0
00000000FFC0
00000000FFC0
00000000FFC0
00000000FFC0
00000000FFC0
00000000FFC0
00000000FFC0
00000000FFC0
00000000FFC0
00000000FFC0
00000000FFC0
00000000FFC0
00000000FFC0
00000000FFC0
00000000FFC0
00000000FFC0
00000000FFC0
00000000FFC0
00000000FFC0
00000000FFC0
00000000FFC0
00000000FFC0
00000000FFC0
00000000FFC0
00000000FFC0
00000000FFC0
00000000FFC0
00000000FFC0
00000000FFC0
00000000FFC0
00000000FFC0
00000000FFC0
00000000FFC0
00000000FFC0
00000000FFC0
00000000FFC0
00000000FFC0
00000000FFC0
00000000FFC0
00000000FFC0
00000000FFC0
00000000FFC0
FFC00001FFC0
FFC00001FFC0
FFC00001FFC0
FFE00001FFC0
FFE00001FFC0
FFE00003FF80
7FF00003FF80
7FF00007FF80
7FF8000FFF00
3FFC001FFF00
3FFF007FFE00
1FFFFFFFFC00
0FFFFFFFFC00
0FFFFFFFF800
07FFFFFFF000
03FFFFFFC000
00FFFFFF8000
007FFFFE0000
000FFFF80000
0001FFC00000
ENDCHAR
STARTCHAR K
ENCODING 75
SWIDTH 600 0
DWIDTH 54 0
BBX 48 65 6 0
BITMAP
FFE000007FFE
FFE000007FFC
FFE00000FFF8
FFE00001FFF0
FFE00003FFE0
FFE00003FFE0
FFE00007FFC0
FFE0000FFF80
FFE0000FFF00
FFE0001FFF00
FFE0003FFE00
FFE0007FFC00
FFE0007FF800
FFE000FFF000
FFE001FFF000
FFE003FFE000
FFE003FFC000
FFE007FF8000
FFE00FFF8000
FFE01FFF0000
FFE01FFE0000
FFE03FFC0000
FFE07FFC0000
FFE0FFF80000
FFE0FFF00000
FFE1FFE00000
FFE3FFE00000
FFE7FFC00000
FFE7FF800000
FFEFFF800000
FFFFFFC00000
FFFFFFE00000
FFFFFFE00000
FFFFFFF00000
FFFFFFF80000
FFFFFFF80000
FFFFFFFC0000
FFFFFFFE0000
FFFF9FFE0000
FFFF0FFF0000
FFFE0FFF0000
FFFC07FF8000
FFF807FFC000
FFF003FFC000
FFE001FFE000
FFE001FFF000
FFE000FFF000
FFE000FFF800
FFE0007FF800
FFE0003FFC00
FFE0003FFE00
FFE0001FFE00
FFE0001FFF00
FFE0000FFF80
FFE00007FF80
FFE00007FFC0
FFE00003FFC0
FFE00001FFE0
FFE00001FFF0
FFE00000FFF0
FFE00000FFF8
FFE000007FFC
FFE000003FFC
FFE000003FFE
FFE000001FFF
ENDCHAR
STARTCHAR L
ENCODING 76
SWIDTH 600 0
DWIDTH 54 0
BBX 41 65 8 0
BITMAP
FFC000000000
FFC000000000
FFC000000000
FFC000000000
FFC000000000
FFC000000000
FFC000000000
FFC000000000
FFC000000000
FFC000000000
FFC000000000
FFC000000000
FFC000000000
FFC000000000
FFC000000000
FFC000000000
FFC000000000
FFC000000000
FFC000000000
FFC000000000
FFC000000000
FFC000000000
FFC000000000
FFC000000000
FFC000000000
FFC000000000
FFC000000000
FFC000000000
FFC000000000
FFC000000000
FFC000000000
FFC000000000
FFC000000000
FFC000000000
FFC000000000
FFC000000000
FFC000000000
FFC000000000
FFC000000000
FFC000000000
FFC000000000
FFC000000000
FFC000000000
FFC000000000
FFC000000000
FFC000000000
FFC000000000
FFC000000000
FFC000000000
FFC000000000
FFC000000000
FFC000000000
FFC000000000
FFC000000000
FFC000000000
FFC000000000
FFFFFFFFFF80
FFFFFFFFFF80
FFFFFFFFFF80
FFFFFFFFFF80
FFFFFFFFFF80
FFFFFFFFFF80
FFFFFFFFFF80
FFFFFFFFFF80
FFFFFFFFFF80
ENDCHAR
STARTCHAR M
ENCODING 77
SWIDTH 600 0
DWIDTH 54 0
BBX 43 65 6 0
BITMAP
FFF80003FFE0
FFF80007FFE0
FFFC0007FFE0
FFFC0007FFE0
FFFC000FFFE0
FFFE000FFFE0
FFFE000FFFE0
FFFE001FFFE0
FFFE001FFFE0
FFFF001FFFE0
FFFF003FFFE0
FFFF003FFFE0
FFFF803FFFE0
FFFF803FFFE0
FFFF807FBFE0
FFFF807FBFE0
FFBFC07FFFE0
FFBFC0FFFFE0
FFBFC0FF7FE0
FFBFE0FF7FE0
FF9FE1FF7FE0
FF9FE1FE7FE0
FF9FE1FE7FE0
FF8FF3FE7FE0
FF8FF3FC7FE0
FF8FF3FC7FE0
FF87FFFC7FE0
FFC7FFF87FE0
FFC7FFF87FE0
FFC7FFF87FE0
FFC3FFF07FE0
FFC3FFF07FE0
FFC3FFF07FE0
FFC1FFE07FE0
FFC1FFE07FE0
FFC1FFE07FE0
FFC0FFE07FE0
FFC0FFC07FE0
FFC0FFC07FE0
FFC0FFC07FE0
FFC07F807FE0
FFC07F807FE0
FFC07F807FE0
FFC03F007FE0
FFC03F007FE0
FFC000007FE0
FFC000007FE0
FFC000007FE0
FFC000007FE0
FFC000007FE0
FFC000007FE0
FFC000007FE0
FFC000007FE0
FFC000007FE0
FFC000007FE0
FFC000007FE0
FFC000007FE0
FFC000007FE0
FFC000007FE0
FFC000007FE0
FFC000007FE0
FFC000007FE0
FFC000007FE0
FFC000007FE0
FFC000007FE0
ENDCHAR
STARTCHAR N
ENCODING 78
SWIDTH 600 0
DWIDTH 54 0
BBX 42 65 6 0
BITMAP
FFE00001FFC0
FFE00001FFC0
FFF00001FFC0
FFF00001FFC0
FFF80001FFC0
FFF80001FFC0
FFF80001FFC0
FFFC0001FFC0
FFFC0001FFC0
FFFE0001FFC0
FFFE0001FFC0
FFFF0001FFC0
FFFF0001FFC0
FFFF8001FFC0
FFFF8001FFC0
FFFFC001FFC0
FFFFC001FFC0
FFFFE001FFC0
FFFFE001FFC0
FFFFE001FFC0
FFFFF001FFC0
FFDFF001FFC0
FFDFF801FFC0
FFCFF801FFC0
FFCFFC01FFC0
FFC7FC01FFC0
FFC7FE01FFC0
FFC3FE01FFC0
FFC3FF01FFC0
FFC1FF01FFC0
FFC1FF81FFC0
FFC0FF81FFC0
FFC0FFC1FFC0
FFC07FC1FFC0
FFC07FC1FFC0
FFC03FE1FFC0
FFC03FE1FFC0
FFC03FF1FFC0
FFC01FF1FFC0
FFC01FF9FFC0
FFC00FF9FFC0
FFC00FFDFFC0
FFC007FDFFC0
FFC007FFFFC0
FFC003FFFFC0
FFC003FFFFC0
FFC001FFFFC0
FFC001FFFFC0
FFC000FFFFC0
FFC000FFFFC0
FFC0007FFFC0
FFC0007FFFC0
FFC0007FFFC0
FFC0003FFFC0
FFC0003FFFC0
FFC0001FFFC0
FFC0001FFFC0
FFC0000FFFC0
FFC0000FFFC0
FFC00007FFC0
FFC00007FFC0
FFC00003FFC0
FFC00003FFC0
FFC00001FFC0
FFC00001FFC0
ENDCHAR
STARTCHAR O
ENCODING 79
SWIDTH 600 0
DWIDTH 54 0
BBX 46 67 4 -1
BITMAP
00003FF00000
0001FFFE0000
0007FFFF8000
001FFFFFE000
003FFFFFF000
007FFFFFF800
00FFFFFFFC00
01FFFFFFFE00
03FFFFFFFF00
07FFC01FFF80
07FF8007FF80
0FFF0003FFC0
0FFE0001FFC0
1FFC0000FFE0
1FF80000FFE0
3FF800007FF0
3FF800007FF0
3FF000003FF0
7FF000003FF8
7FF000003FF8
7FE000003FF8
7FE000001FF8
7FE000001FF8
FFE000001FFC
FFE000001FFC
FFE000001FFC
FFE000001FFC
FFE000001FFC
FFE000001FFC
FFE000001FFC
FFE000001FFC
FFE000001FFC
FFE000001FFC
FFE000001FFC
FFE000001FFC
FFE000001FFC
FFE000001FFC
FFE000001FFC
FFE000001FFC
FFE000001FFC
FFE000001FFC
FFE000001FFC
FFE000001FFC
FFE000001FFC
FFE000001FF8
7FE000001FF8
7FE000003FF8
7FF000003FF8
7FF000003FF8
3FF000003FF0
3FF800007FF0
3FF800007FF0
1FF80000FFE0
1FFC0000FFE0
0FFE0001FFC0
0FFF0003FFC0
07FF8007FF80
07FFC01FFF80
03FFFFFFFF00
01FFFFFFFE00
00FFFFFFFC00
007FFFFFF800
003FFFFFF000
001FFFFFE000
0007FFFF8000
0001FFFE0000
00003FF00000
ENDCHAR
STARTCHAR P
ENCODING 80
SWIDTH 600 0
DWIDTH 54 0
BBX 44 65 7 0
BITMAP
FFFFFFE00000
FFFFFFFE0000
FFFFFFFF8000
FFFFFFFFE000
FFFFFFFFF000
FFFFFFFFFC00
FFFFFFFFFE00
FFFFFFFFFF00
FFFFFFFFFF00
FFE0001FFF80
FFE00007FFC0
FFE00003FFC0
FFE00001FFC0
FFE00001FFE0
FFE00000FFE0
FFE00000FFE0
FFE000007FF0
FFE000007FF0
FFE000007FF0
FFE000007FF0
FFE000007FF0
FFE000007FF0
FFE000007FF0
FFE000007FF0
FFE00000FFE0
FFE00000FFE0
FFE00000FFE0
FFE00001FFE0
FFE00003FFC0
FFE00007FFC0
FFE0001FFF80
FFFFFFFFFF00
FFFFFFFFFF00
FFFFFFFFFE00
FFFFFFFFFC00
FFFFFFFFF800
FFFFFFFFE000
FFFFFFFF8000
FFFFFFFE0000
FFFFFFE00000
FFE000000000
FFE000000000
FFE000000000
FFE000000000
FFE000000000
FFE000000000
FFE000000000
FFE000000000
FFE000000000
FFE000000000
FFE000000000
FFE000000000
FFE000000000
FFE000000000
FFE000000000
FFE000000000
FFE000000000
FFE000000000
FFE000000000
FFE000000000
FFE000000000
FFE000000000
FFE000000000
FFE000000000
FFE000000000
ENDCHAR
STARTCHAR Q
ENCODING 81
SWIDTH 600 0
DWIDTH 54 0
BBX 49 77 4 -11
BITMAP
00003FF0000000
0001FFFE000000
0007FFFF800000
001FFFFFE00000
003FFFFFF00000
007FFFFFF80000
00FFFFFFFC0000
01FFFFFFFE0000
03FFFFFFFF0000
07FFC00FFF8000
07FF8007FF8000
0FFF0003FFC000
0FFE0001FFE000
1FFC0000FFE000
1FF800007FE000
3FF800007FF000
3FF000003FF000
3FF000003FF000
7FF000003FF800
7FF000001FF800
7FE000001FF800
7FE000001FF800
FFE000001FFC00
FFE000001FFC00
FFE000001FFC00
FFE000000FFC00
FFE000000FFC00
FFE000000FFC00
FFE000000FFC00
FFE000000FFC00
FFE000000FFC00
FFE000000FFC00
FFE000000FFC00
FFE000000FFC00
FFE000000FFC00
FFE000000FFC00
FFE000000FFC00
FFE000000FFC00
FFE000000FFC00
FFE000000FFC00
FFE000000FFC00
FFE000000FFC00
FFE000001FFC00
FFE000001FFC00
FFE000001FFC00
7FE000001FFC00
7FE000001FFC00
7FE000001FF800
7FF000003FF800
3FF000003FF800
3FF000003FF000
3FF800007FF000
1FF800007FF000
1FFC0000FFE000
1FFE0001FFE000
0FFF0003FFC000
07FF8007FFC000
07FFC00FFF8000
03FFFFFFFF0000
01FFFFFFFF0000
00FFFFFFFE0000
007FFFFFFC0000
003FFFFFFE0000
001FFFFFFF0000
0007FFFFFF8000
0001FFFFFFC000
00003FF7FFE000
00000003FFF800
00000000FFFC00
000000007FFE00
000000003FFF80
000000001FFF00
000000000FFE00
0000000007FC00
0000000003F800
0000000001E000
00000000004000
ENDCHAR
STARTCHAR R
ENCODING 82
SWIDTH 600 0
DWIDTH 54 0
BBX 44 65 7 0
BITMAP
FFFFFFC00000
FFFFFFFC0000
FFFFFFFF0000
FFFFFFFFC000
FFFFFFFFF000
FFFFFFFFF800
FFFFFFFFFC00
FFFFFFFFFE00
FFFFFFFFFF00
FFC0007FFF00
FFC0001FFF80
FFC00007FF80
FFC00003FF80
FFC00003FFC0
FFC00001FFC0
FFC00001FFC0
FFC00000FFC0
FFC00000FFC0
FFC00000FFE0
FFC00000FFE0
FFC00000FFE0
FFC00000FFE0
FFC00000FFC0
FFC00001FFC0
FFC00001FFC0
FFC00001FFC0
FFC00003FF80
FFC00007FF80
FFC0000FFF80
FFC0001FFF00
FFC000FFFE00
FFFFFFFFFE00
FFFFFFFFFC00
FFFFFFFFF800
FFFFFFFFE000
FFFFFFFFC000
FFFFFFFF0000
FFFFFFFE0000
FFFFFFFF0000
FFFFFFFF0000
FFC007FF8000
FFC003FF8000
FFC003FFC000
FFC001FFC000
FFC001FFC000
FFC000FFE000
FFC000FFE000
FFC0007FF000
FFC0007FF000
FFC0003FF800
FFC0003FF800
FFC0001FFC00
FFC0001FFC00
FFC0000FFE00
FFC0000FFE00
FFC00007FF00
FFC00007FF00
FFC00003FF80
FFC00003FF80
FFC00001FFC0
FFC00001FFC0
FFC00000FFE0
FFC00000FFE0
FFC00000FFF0
FFC000007FF0
ENDCHAR
STARTCHAR S
ENCODING 83
SWIDTH 600 0
DWIDTH 54 0
BBX 46 67 4 -1
BITMAP
00001FF80000
0001FFFF8000
0007FFFFE000
001FFFFFF800
007FFFFFFE00
00FFFFFFFF00
01FFFFFFFF80
03FFFFFFFFC0
07FFFFFFFFE0
07FFE007FFE0
0FFF8001FFF0
0FFF0000FFF0
1FFE00007FF8
1FFC00003FF8
1FFC00003FFC
1FF800001FFC
3FF800001FFC
3FF800001FFC
3FF800000FFC
3FF800000FFC
1FF800000000
1FFC00000000
1FFE00000000
1FFF00000000
0FFF80000000
0FFFC0000000
07FFF0000000
07FFFE000000
03FFFFC00000
01FFFFF80000
00FFFFFF0000
007FFFFFC000
001FFFFFF000
000FFFFFF800
0003FFFFFE00
0000FFFFFF00
00003FFFFF80
000007FFFFC0
000000FFFFE0
0000001FFFF0
00000007FFF0
00000001FFF8
00000000FFF8
000000007FFC
000000003FFC
000000001FFC
000000001FFC
FFE000000FFC
7FE000000FFC
7FE000000FFC
7FF000000FFC
7FF000000FFC
7FF800001FFC
3FF800001FFC
3FFC00003FFC
1FFE00007FF8
1FFF8000FFF8
0FFFE003FFF0
07FFFFFFFFF0
07FFFFFFFFE0
03FFFFFFFFC0
00FFFFFFFF80
007FFFFFFF00
001FFFFFFC00
0007FFFFF000
0001FFFFC000
00001FFC0000
ENDCHAR
STARTCHAR T
ENCODING 84
SWIDTH 600 0
DWIDTH 54 0
BBX 50 65 2 0
BITMAP
FFFFFFFFFFFFC0
FFFFFFFFFFFFC0
FFFFFFFFFFFFC0
FFFFFFFFFFFFC0
FFFFFFFFFFFFC0
FFFFFFFFFFFFC0
FFFFFFFFFFFFC0
FFFFFFFFFFFFC0
FFFFFFFFFFFFC0
00000FFC000000
00000FFC000000
00000FFC000000
00000FFC000000
00000FFC000000
00000FFC000000
00000FFC000000
00000FFC000000
00000FFC000000
00000FFC000000
00000FFC000000
00000FFC000000
00000FFC000000
00000FFC000000
00000FFC000000
00000FFC000000
00000FFC000000
00000FFC000000
00000FFC000000
00000FFC000000
00000FFC000000
00000FFC000000
00000FFC000000
00000FFC000000
00000FFC000000
00000FFC000000
00000FFC000000
00000FFC000000
00000FFC000000
00000FFC000000
00000FFC000000
00000FFC000000
00000FFC000000
00000FFC000000
00000FFC000000
00000FFC000000
00000FFC000000
00000FFC000000
00000FFC000000
00000FFC000000
00000FFC000000
00000FFC000000
00000FFC000000
00000FFC000000
00000FFC000000
00000FFC000000
00000FFC000000
00000FFC000000
00000FFC000000
00000FFC000000
00000FFC000000
00000FFC000000
00000FFC000000
00000FFC000000
00000FFC000000
00000FFC000000
ENDCHAR
STARTCHAR U
ENCODING 85
SWIDTH 600 0
DWIDTH 54 0
BBX 42 66 6 -1
BITMAP
FFC00000FFC0
FFC00000FFC0
FFC00000FFC0
FFC00000FFC0
FFC00000FFC0
FFC00000FFC0
FFC00000FFC0
FFC00000FFC0
FFC00000FFC0
FFC00000FFC0
FFC00000FFC0
FFC00000FFC0
FFC00000FFC0
FFC00000FFC0
FFC00000FFC0
FFC00000FFC0
FFC00000FFC0
FFC00000FFC0
FFC00000FFC0
FFC00000FFC0
FFC00000FFC0
FFC00000FFC0
FFC00000FFC0
FFC00000FFC0
FFC00000FFC0
FFC00000FFC0
FFC00000FFC0
FFC00000FFC0
FFC00000FFC0
FFC00000FFC0
FFC00000FFC0
FFC00000FFC0
FFC00000FFC0
FFC00000FFC0
FFC00000FFC0
FFC00000FFC0
FFC00000FFC0
FFC00000FFC0
FFC00000FFC0
FFC00000FFC0
FFC00000FFC0
FFC00000FFC0
FFC00000FFC0
FFC00000FFC0
FFC00000FFC0
FFC00000FFC0
FFC00001FFC0
FFE00001FFC0
FFE00001FFC0
FFE00001FFC0
7FE00001FF80
7FF00003FF80
7FF00003FF80
3FF80007FF00
3FFC000FFF00
3FFE001FFE00
1FFF007FFE00
0FFFFFFFFC00
0FFFFFFFF800
07FFFFFFF800
03FFFFFFF000
01FFFFFFE000
007FFFFF8000
003FFFFF0000
0007FFF80000
0000FFC00000
ENDCHAR
STARTCHAR V
ENCODING 86
SWIDTH 600 0
DWIDTH 54 0
BBX 50 65 2 0
BITMAP
FFF0000003FFC0
7FF0000003FF80
7FF0000007FF80
7FF8000007FF80
3FF8000007FF00
3FF8000007FF00
3FF800000FFF00
3FFC00000FFE00
1FFC00000FFE00
1FFC00000FFE00
1FFE00001FFE00
0FFE00001FFC00
0FFE00001FFC00
0FFE00003FFC00
07FF00003FF800
07FF00003FF800
07FF00003FF800
07FF80007FF000
03FF80007FF000
03FF80007FF000
03FF8000FFE000
01FFC000FFE000
01FFC000FFE000
01FFC000FFE000
00FFC001FFC000
00FFE001FFC000
00FFE001FFC000
00FFE001FF8000
007FF003FF8000
007FF003FF8000
007FF003FF0000
003FF007FF0000
003FF807FF0000
003FF807FF0000
001FF807FE0000
001FF80FFE0000
001FFC0FFE0000
000FFC0FFC0000
000FFC1FFC0000
000FFE1FFC0000
000FFE1FF80000
0007FE1FF80000
0007FE3FF80000
0007FF3FF80000
0003FF3FF00000
0003FF3FF00000
0003FF7FF00000
0001FFFFE00000
0001FFFFE00000
0001FFFFE00000
0001FFFFC00000
0000FFFFC00000
0000FFFFC00000
0000FFFF800000
00007FFF800000
00007FFF800000
00007FFF800000
00003FFF000000
00003FFF000000
00003FFF000000
00001FFE000000
00001FFE000000
00001FFE000000
00001FFC000000
00000FFC000000
ENDCHAR
STARTCHAR W
ENCODING 87
SWIDTH 600 0
DWIDTH 54 0
BBX 51 65 2 0
BITMAP
FFC007F8007FE0
FFC007FC00FFC0
FFC007FC00FFC0
7FC007FC00FFC0
7FC00FFC00FFC0
7FE00FFC00FFC0
7FE00FFC00FFC0
7FE00FFE00FFC0
7FE00FFE00FF80
7FE00FFE00FF80
7FE01FFE00FF80
3FE01FFE01FF80
3FE01FFE01FF80
3FE01FFF01FF80
3FF01FFF01FF80
3FF01FFF01FF80
3FF01FFF01FF00
3FF03FFF01FF00
3FF03FFF01FF00
1FF03FFF01FF00
1FF03FFF83FF00
1FF03FFF83FF00
1FF03FFF83FF00
1FF07FFF83FF00
1FF87FBF83FE00
1FF87FBF83FE00
1FF87FBFC3FE00
0FF87F3FC3FE00
0FF87F3FC3FE00
0FF87F3FC7FE00
0FF8FF1FC7FE00
0FF8FF1FC7FE00
0FF8FF1FE7FC00
0FFCFE1FE7FC00
0FFCFE1FE7FC00
07FCFE1FE7FC00
07FDFE0FE7FC00
07FDFE0FE7FC00
07FDFE0FFFFC00
07FDFC0FFFFC00
07FDFC0FFFF800
07FDFC0FFFF800
07FFFC07FFF800
03FFFC07FFF800
03FFFC07FFF800
03FFF807FFF800
03FFF807FFF800
03FFF807FFF800
03FFF803FFF000
03FFF803FFF000
03FFF803FFF000
01FFF803FFF000
01FFF003FFF000
01FFF003FFF000
01FFF001FFF000
01FFF001FFF000
01FFF001FFE000
01FFF001FFE000
01FFE001FFE000
00FFE001FFE000
00FFE000FFE000
00FFE000FFE000
00FFE000FFE000
00FFE000FFE000
00FFC000FFC000
ENDCHAR
STARTCHAR X
ENCODING 88
SWIDTH 600 0
DWIDTH 54 0
BBX 51 65 2 0
BITMAP
7FFC000007FFC0
3FFC000007FF80
3FFE00000FFF80
1FFE00000FFF00
1FFF00001FFF00
0FFF00001FFE00
07FF80003FFE00
07FF80003FFC00
03FFC0007FF800
03FFC0007FF800
01FFE000FFF000
01FFE000FFF000
00FFF001FFE000
007FF001FFE000
007FF803FFC000
003FF803FF8000
003FFC07FF8000
001FFC07FF0000
001FFE0FFF0000
000FFE0FFE0000
000FFF1FFE0000
0007FF1FFC0000
0003FFBFF80000
0003FFBFF80000
0001FFFFF00000
0001FFFFF00000
0000FFFFE00000
0000FFFFE00000
00007FFFC00000
00003FFFC00000
00003FFF800000
00001FFF000000
00001FFF000000
00003FFF800000
00003FFF800000
00007FFFC00000
00007FFFC00000
0000FFFFE00000
0000FFFFE00000
0001FFFFF00000
0003FFFFF80000
0003FFBFF80000
0007FF9FFC0000
0007FF1FFC0000
000FFF0FFE0000
000FFE0FFE0000
001FFE07FF0000
003FFC07FF8000
003FF803FF8000
007FF803FFC000
007FF001FFC000
00FFF001FFE000
00FFE000FFE000
01FFE000FFF000
03FFC0007FF800
03FFC0007FF800
07FF80003FFC00
07FF80003FFC00
0FFF00001FFE00
0FFF00001FFE00
1FFE00000FFF00
3FFE00000FFF80
3FFC000007FF80
7FFC000007FFC0
FFF8000003FFE0
ENDCHAR
STARTCHAR Y
ENCODING 89
SWIDTH 600 0
DWIDTH 54 0
BBX 50 65 2 0
BITMAP
FFF0000003FFC0
7FF0000003FF80
7FF8000007FF80
3FF8000007FF80
3FFC00000FFF00
1FFC00000FFF00
1FFE00000FFE00
0FFE00001FFE00
0FFE00001FFC00
07FF00003FFC00
07FF00003FF800
07FF80007FF800
03FF80007FF000
03FFC000FFF000
01FFC000FFE000
01FFE000FFE000
00FFE001FFC000
00FFE001FFC000
007FF003FF8000
007FF003FF8000
003FF807FF0000
003FF807FF0000
001FFC07FE0000
001FFC0FFE0000
000FFC0FFC0000
000FFE1FFC0000
0007FE1FFC0000
0007FF3FF80000
0003FF3FF80000
0003FFBFF00000
0001FFFFF00000
0001FFFFE00000
0000FFFFE00000
0000FFFFC00000
0000FFFFC00000
00007FFF800000
00007FFF800000
00003FFF000000
00003FFF000000
00001FFE000000
00001FFE000000
00000FFC000000
00000FFC000000
00000FFC000000
00000FFC000000
00000FFC000000
00000FFC000000
00000FFC000000
00000FFC000000
00000FFC000000
00000FFC000000
00000FFC000000
00000FFC000000
00000FFC000000
00000FFC000000
00000FFC000000
00000FFC000000
00000FFC000000
00000FFC000000
00000FFC000000
00000FFC000000
00000FFC000000
00000FFC000000
00000FFC000000
00000FFC000000
ENDCHAR
STARTCHAR Z
ENCODING 90
SWIDTH 600 0
DWIDTH 54 0
BBX 45 65 4 0
BITMAP
7FFFFFFFFFF0
7FFFFFFFFFF0
7FFFFFFFFFF0
7FFFFFFFFFF0
7FFFFFFFFFF0
7FFFFFFFFFF0
7FFFFFFFFFF0
7FFFFFFFFFF0
7FFFFFFFFFE0
00000001FFC0
00000003FFC0
00000003FF80
00000007FF80
00000007FF00
0000000FFE00
0000001FFE00
0000001FFC00
0000003FF800
0000007FF800
0000007FF000
000000FFF000
000001FFE000
000001FFC000
000003FFC000
000003FF8000
000007FF0000
00000FFF0000
00000FFE0000
00001FFC0000
00003FFC0000
00003FF80000
00007FF80000
00007FF00000
0000FFE00000
0001FFE00000
0001FFC00000
0003FF800000
0007FF800000
0007FF000000
000FFF000000
001FFE000000
001FFC000000
003FFC000000
003FF8000000
007FF0000000
00FFF0000000
00FFE0000000
01FFE0000000
03FFC0000000
03FF80000000
07FF80000000
0FFF00000000
0FFE00000000
1FFE00000000
1FFC00000000
3FF800000000
7FFFFFFFFFF8
7FFFFFFFFFF8
FFFFFFFFFFF8
FFFFFFFFFFF8
FFFFFFFFFFF8
FFFFFFFFFFF8
FFFFFFFFFFF8
FFFFFFFFFFF8
FFFFFFFFFFF8
ENDCHAR
STARTCHAR bracketleft
ENCODING 91
SWIDTH 600 0
DWIDTH 54 0
BBX 19 89 18 -14
BITMAP
FFFFE0
FFFFE0
FFFFE0
FFFFE0
FFFFE0
FFFFE0
FFFFE0
FFFFE0
FFFFE0
FFC000
FFC000
FFC000
FFC000
FFC000
FFC000
FFC000
FFC000
FFC000
FFC000
FFC000
FFC000
FFC000
FFC000
FFC000
FFC000
FFC000
FFC000
FFC000
FFC000
FFC000
FFC000
FFC000
FFC000
FFC000
FFC000
FFC000
FFC000
FFC000
FFC000
FFC000
FFC000
FFC000
FFC000
FFC000
FFC000
FFC000
FFC000
FFC000
FFC000
FFC000
FFC000
FFC000
FFC000
FFC000
FFC000
FFC000
FFC000
FFC000
FFC000
FFC000
FFC000
FFC000
FFC000
FFC000
FFC000
FFC000
FFC000
FFC000
FFC000
FFC000
FFC000
FFC000
FFC000
FFC000
FFC000
FFC000
FFC000
FFC000
FFC000
FFC000
FFFFE0
FFFFE0
FFFFE0
FFFFE0
FFFFE0
FFFFE0
FFFFE0
FFFFE0
FFFFE0
ENDCHAR
STARTCHAR backslash
ENCODING 92
SWIDTH 600 0
DWIDTH 54 0
BBX 35 70 10 -5
BITMAP
FFC0000000
7FC0000000
7FE0000000
7FE0000000
3FE0000000
3FF0000000
1FF0000000
1FF8000000
1FF8000000
0FF8000000
0FFC000000
0FFC000000
07FC000000
07FE000000
07FE000000
03FE000000
03FF000000
01FF000000
01FF800000
01FF800000
00FF800000
00FFC00000
00FFC00000
007FC00000
007FE00000
007FE00000
003FE00000
003FF00000
003FF00000
001FF00000
001FF80000
000FF80000
000FFC0000
000FFC0000
0007FC0000
0007FE0000
0007FE0000
0003FE0000
0003FF0000
0003FF0000
0001FF0000
0001FF8000
0001FF8000
0000FFC000
0000FFC000
00007FC000
00007FE000
00007FE000
00003FE000
00003FF000
00003FF000
00001FF000
00001FF800
00001FF800
00000FF800
00000FFC00
000007FC00
000007FE00
000007FE00
000003FE00
000003FF00
000003FF00
000001FF00
000001FF80
000001FF80
000000FF80
000000FFC0
000000FFC0
0000007FE0
0000007FE0
ENDCHAR
STARTCHAR bracketright
ENCODING 93
SWIDTH 600 0
DWIDTH 54 0
BBX 18 89 18 -14
BITMAP
FFFFC0
FFFFC0
FFFFC0
FFFFC0
FFFFC0
FFFFC0
FFFFC0
FFFFC0
FFFFC0
00FFC0
00FFC0
00FFC0
00FFC0
00FFC0
00FFC0
00FFC0
00FFC0
00FFC0
00FFC0
00FFC0
00FFC0
00FFC0
00FFC0
00FFC0
00FFC0
00FFC0
00FFC0
00FFC0
00FFC0
00FFC0
00FFC0
00FFC0
00FFC0
00FFC0
00FFC0
00FFC0
00FFC0
00FFC0
00FFC0
00FFC0
00FFC0
00FFC0
00FFC0
00FFC0
00FFC0
00FFC0
00FFC0
00FFC0
00FFC0
00FFC0
00FFC0
00FFC0
00FFC0
00FFC0
00FFC0
00FFC0
00FFC0
00FFC0
00FFC0
00FFC0
00FFC0
00FFC0
00FFC0
00FFC0
00FFC0
00FFC0
00FFC0
00FFC0
00FFC0
00FFC0
00FFC0
00FFC0
00FFC0
00FFC0
00FFC0
00FFC0
00FFC0
00FFC0
00FFC0
00FFC0
FFFFC0
FFFFC0
FFFFC0
FFFFC0
FFFFC0
FFFFC0
FFFFC0
FFFFC0
FFFFC0
ENDCHAR
STARTCHAR asciicircum
ENCODING 94
SWIDTH 600 0
DWIDTH 54 0
BBX 35 34 10 31
BITMAP
0007F80000
0007FC0000
0007FC0000
000FFE0000
000FFE0000
001FFE0000
001FFF0000
001FFF0000
003FFF8000
003FFF8000
007FFF8000
007FBFC000
007FBFC000
00FFBFE000
00FF3FE000
01FF1FE000
01FF1FF000
01FE0FF000
03FE0FF800
03FC0FF800
07FC07F800
07FC07FC00
07F807FC00
0FF803FE00
0FF003FE00
1FF001FE00
1FF001FF00
1FE001FF00
3FE000FF80
3FE000FF80
7FC0007F80
7FC0007FC0
FF80007FC0
FF80003FE0
ENDCHAR
STARTCHAR underscore
ENCODING 95
SWIDTH 600 0
DWIDTH 54 0
BBX 40 9 7 -8
BITMAP
FFFFFFFFFF
FFFFFFFFFF
FFFFFFFFFF
FFFFFFFFFF
FFFFFFFFFF
FFFFFFFFFF
FFFFFFFFFF
FFFFFFFFFF
FFFFFFFFFF
ENDCHAR
STARTCHAR grave
ENCODING 96
SWIDTH 600 0
DWIDTH 54 0
BBX 20 12 18 54
BITMAP
FFF000
7FF800
3FFC00
1FFC00
0FFE00
07FF00
03FF00
01FF80
00FF80
007FC0
003FE0
001FF0
ENDCHAR
STARTCHAR a
ENCODING 97
SWIDTH 600 0
DWIDTH 54 0
BBX 42 50 6 -1
BITMAP
0001FFC00000
000FFFFC0000
007FFFFF0000
00FFFFFF8000
03FFFFFFE000
07FFFFFFF000
0FFFFFFFF800
1FFFFFFFF800
1FFFFFFFFC00
3FFE007FFE00
3FF8001FFE00
7FF8000FFE00
7FF0000FFF00
7FF00007FF00
7FE00007FF00
00000007FF00
00000003FF00
00000003FF00
00000003FF00
00000003FF00
0001FFFFFF00
001FFFFFFF00
00FFFFFFFF00
03FFFFFFFF00
07FFFFFFFF00
0FFFFFFFFF00
1FFFFFFFFF00
3FFF8003FF00
3FFC0003FF00
7FF80003FF00
7FF00003FF00
FFE00003FF00
FFE00003FF00
FFC00003FF00
FFC00003FF00
FFC00003FF00
FFE00007FF00
FFE0000FFF00
FFE0001FFF00
FFF0003FFF00
7FFC00FFFF00
7FFFFFFFFF00
3FFFFFFFFF00
3FFFFFFFFF00
1FFFFFFFFF80
0FFFFFFBFF80
07FFFFF3FF80
01FFFFC1FF80
007FFF01FFC0
000FF8000000
ENDCHAR
STARTCHAR b
ENCODING 98
SWIDTH 600 0
DWIDTH 54 0
BBX 42 69 7 -1
BITMAP
FFC000000000
FFC000000000
FFC000000000
FFC000000000
FFC000000000
FFC000000000
FFC000000000
FFC000000000
FFC000000000
FFC000000000
FFC000000000
FFC000000000
FFC000000000
FFC000000000
FFC000000000
FFC000000000
FFC000000000
FFC000000000
FFC000000000
FFC03FE00000
FFC0FFFC0000
FFC3FFFF0000
FFCFFFFFC000
FFDFFFFFE000
FFFFFFFFF000
FFFFFFFFF800
FFFFFFFFF800
FFFFFFFFFC00
FFFF007FFC00
FFFC003FFE00
FFF8001FFE00
FFF0000FFF00
FFE00007FF00
FFE00007FF00
FFC00003FF80
FFC00003FF80
FFC00003FF80
FFC00001FF80
FFC00001FF80
FFC00001FF80
FFC00001FF80
FFC00001FFC0
FFC00001FFC0
FFC00001FFC0
FFC00001FFC0
FFC00001FFC0
FFC00001FFC0
FFC00001FFC0
FFC00001FF80
FFC00001FF80
FFC00001FF80
FFC00003FF80
FFC00003FF80
FFC00003FF80
FFE00007FF00
FFE00007FF00
FFF0000FFF00
FFF8001FFE00
FFFC003FFE00
FFFE007FFC00
FFFFFFFFFC00
FFFFFFFFF800
FFFFFFFFF800
FFFFFFFFF000
FFDFFFFFE000
FFCFFFFFC000
FFC3FFFF0000
FFC1FFFC0000
00003FE00000
ENDCHAR
STARTCHAR c
ENCODING 99
SWIDTH 600 0
DWIDTH 54 0
BBX 42 50 6 -1
BITMAP
0000FFE00000
0007FFFC0000
001FFFFF0000
007FFFFFC000
00FFFFFFE000
01FFFFFFF000
03FFFFFFF800
07FFFFFFFC00
0FFFFFFFFE00
1FFF803FFE00
1FFE000FFF00
3FFC0007FF00
3FF80003FF80
7FF80003FF80
7FF00001FF80
7FF00001FF80
7FE00001FF80
FFE00000FF80
FFE000000040
FFC000000000
FFC000000000
FFC000000000
FFC000000000
FFC000000000
FFC000000000
FFC000000000
FFC000000000
FFC000000000
FFC000000000
FFC000000000
FFC000000000
FFE000000000
FFE000000000
7FE00000FFC0
7FF00001FF80
7FF00001FF80
7FF80001FF80
3FF80003FF80
3FFC0007FF00
1FFE000FFF00
1FFF803FFF00
0FFFFFFFFE00
07FFFFFFFC00
03FFFFFFF800
01FFFFFFF000
00FFFFFFE000
007FFFFFC000
001FFFFF0000
0007FFFC0000
0000FFE00000
ENDCHAR
STARTCHAR d
ENCODING 100
SWIDTH 600 0
DWIDTH 54 0
BBX 42 69 5 -1
BITMAP
00000001FFC0
00000001FFC0
00000001FFC0
00000001FFC0
00000001FFC0
00000001FFC0
00000001FFC0
00000001FFC0
00000001FFC0
00000001FFC0
00000001FFC0
00000001FFC0
00000001FFC0
00000001FFC0
00000001FFC0
00000001FFC0
00000001FFC0
00000001FFC0
00000001FFC0
0001FF01FFC0
000FFFE1FFC0
003FFFF1FFC0
007FFFFDFFC0
00FFFFFFFFC0
01FFFFFFFFC0
03FFFFFFFFC0
07FFFFFFFFC0
0FFFFFFFFFC0
0FFFC01FFFC0
1FFF000FFFC0
1FFE0007FFC0
3FFC0003FFC0
3FF80001FFC0
3FF80001FFC0
7FF00001FFC0
7FF00001FFC0
7FF00001FFC0
7FF00001FFC0
7FE00001FFC0
7FE00001FFC0
FFE00001FFC0
FFE00001FFC0
FFE00001FFC0
FFE00001FFC0
FFE00001FFC0
FFE00001FFC0
FFE00001FFC0
FFE00001FFC0
7FE00001FFC0
7FE00001FFC0
7FE00001FFC0
7FF00001FFC0
7FF00001FFC0
7FF00001FFC0
3FF80001FFC0
3FF80001FFC0
3FFC0003FFC0
1FFE0007FFC0
1FFF000FFFC0
0FFF801FFFC0
0FFFFFFFFFC0
07FFFFFFFFC0
03FFFFFFFFC0
01FFFFFFFFC0
00FFFFFEFFC0
007FFFFCFFC0
003FFFF0FFC0
000FFFE0FFC0
0001FF000000
ENDCHAR
STARTCHAR e
ENCODING 101
SWIDTH 600 0
DWIDTH 54 0
BBX 44 50 5 -1
BITMAP
00003FF00000
0001FFFE0000
0007FFFF8000
001FFFFFE000
003FFFFFF000
00FFFFFFF800
01FFFFFFFC00
03FFFFFFFE00
03FFFFFFFF00
07FFC01FFF00
0FFF8007FF80
0FFF0003FF80
1FFE0001FFC0
1FFC0000FFC0
3FF80000FFC0
3FF800007FE0
7FF000007FE0
7FF000007FE0
7FF000007FE0
7FF000007FF0
7FE000007FF0
FFFFFFFFFFF0
FFFFFFFFFFF0
FFFFFFFFFFF0
FFFFFFFFFFF0
FFFFFFFFFFF0
FFFFFFFFFFF0
FFFFFFFFFFF0
FFFFFFFFFFF0
FFE000000000
7FE000000000
7FE000000000
7FF000000000
7FF000000000
3FF800000000
3FF800000000
3FFC00000400
1FFE00000E00
1FFF00001F00
0FFF80007FC0
07FFE001FFE0
07FFFFFFFFE0
03FFFFFFFFC0
01FFFFFFFF80
00FFFFFFFF00
007FFFFFFE00
001FFFFFF800
0007FFFFE000
0001FFFF8000
00003FF80000
ENDCHAR
STARTCHAR f
ENCODING 102
SWIDTH 600 0
DWIDTH 54 0
BBX 44 70 6 0
BITMAP
0000001FFE00
000000FFFFF0
000003FFFFF0
00000FFFFFF0
00001FFFFFF0
00003FFFFFF0
00007FFFFFF0
0000FFFFFFF0
0001FFFFFFF0
0001FFF80020
0003FFE00000
0003FFC00000
0003FF800000
0007FF000000
0007FF000000
0007FF000000
0007FE000000
0007FE000000
0007FE000000
0007FE000000
0007FE000000
0007FE000000
FFFFFFFFFF80
FFFFFFFFFF80
FFFFFFFFFF80
FFFFFFFFFF80
FFFFFFFFFF80
FFFFFFFFFF80
FFFFFFFFFF80
FFFFFFFFFF80
0007FE000000
0007FE000000
0007FE000000
0007FE000000
0007FE000000
0007FE000000
0007FE000000
0007FE000000
0007FE000000
0007FE000000
0007FE000000
0007FE000000
0007FE000000
0007FE000000
0007FE000000
0007FE000000
0007FE000000
0007FE000000
0007FE000000
0007FE000000
0007FE000000
0007FE000000
0007FE000000
0007FE000000
0007FE000000
0007FE000000
0007FE000000
0007FE000000
0007FE000000
0007FE000000
0007FE000000
0007FE000000
0007FE000000
0007FE000000
0007FE000000
0007FE000000
0007FE000000
0007FE000000
0007FE000000
0007FE000000
ENDCHAR
STARTCHAR g
ENCODING 103
SWIDTH 600 0
DWIDTH 54 0
BBX 42 67 5 -18
BITMAP
0001FF000000
000FFFE07FC0
003FFFF87FC0
007FFFFC7FC0
00FFFFFEFFC0
01FFFFFFFFC0
03FFFFFFFFC0
07FFFFFFFFC0
0FFFFFFFFFC0
0FFFC01FFFC0
1FFF0007FFC0
1FFE0003FFC0
3FFC0003FFC0
3FFC0001FFC0
3FF80000FFC0
3FF80000FFC0
7FF00000FFC0
7FF00000FFC0
7FF00000FFC0
7FE00000FFC0
7FE00000FFC0
7FE00000FFC0
FFE00000FFC0
FFE00000FFC0
FFE00000FFC0
FFE00000FFC0
FFE00000FFC0
FFE00000FFC0
7FE00000FFC0
7FE00000FFC0
7FE00000FFC0
7FF00000FFC0
7FF00000FFC0
7FF00000FFC0
3FF00000FFC0
3FF80000FFC0
3FF80001FFC0
1FFC0001FFC0
1FFE0003FFC0
1FFF0007FFC0
0FFFC01FFFC0
07FFFFFFFFC0
07FFFFFFFFC0
03FFFFFFFFC0
01FFFFFFFFC0
00FFFFFEFFC0
007FFFFCFFC0
003FFFF8FFC0
000FFFE0FFC0
0001FF00FFC0
00000000FFC0
00000001FFC0
00000001FFC0
00800003FF80
01800003FF80
03E00007FF80
07F0000FFF00
0FFE003FFF00
1FFFFFFFFE00
1FFFFFFFFC00
0FFFFFFFFC00
07FFFFFFF800
01FFFFFFF000
00FFFFFFC000
003FFFFF0000
000FFFFC0000
0000FFC00000
ENDCHAR
STARTCHAR h
ENCODING 104
SWIDTH 600 0
DWIDTH 54 0
BBX 41 68 7 0
BITMAP
FFC000000000
FFC000000000
FFC000000000
FFC000000000
FFC000000000
FFC000000000
FFC000000000
FFC000000000
FFC000000000
FFC000000000
FFC000000000
FFC000000000
FFC000000000
FFC000000000
FFC000000000
FFC000000000
FFC000000000
FFC000000000
FFC000000000
FFC00FF80000
FFC07FFF0000
FFC1FFFFC000
FFC3FFFFE000
FFC7FFFFF000
FFCFFFFFF800
FFDFFFFFFC00
FFFFFFFFFC00
FFFFFFFFFE00
FFFF003FFE00
FFFC001FFF00
FFF8000FFF00
FFE00007FF00
FFE00007FF00
FFC00003FF80
FFC00003FF80
FFC00003FF80
FFC00003FF80
FFC00003FF80
FFC00003FF80
FFC00003FF80
FFC00003FF80
FFC00003FF80
FFC00003FF80
FFC00003FF80
FFC00003FF80
FFC00003FF80
FFC00003FF80
FFC00003FF80
FFC00003FF80
FFC00003FF80
FFC00003FF80
FFC00003FF80
FFC00003FF80
FFC00003FF80
FFC00003FF80
FFC00003FF80
FFC00003FF80
FFC00003FF80
FFC00003FF80
FFC00003FF80
FFC00003FF80
FFC00003FF80
FFC00003FF80
FFC00003FF80
FFC00003FF80
FFC00003FF80
FFC00003FF80
FFC00003FF80
ENDCHAR
STARTCHAR i
ENCODING 105
SWIDTH 600 0
DWIDTH 54 0
BBX 40 66 9 0
BITMAP
00007E0000
0000FF0000
0001FF8000
0003FFC000
0003FFC000
0003FFC000
0003FFC000
0003FFC000
0001FF8000
0000FF0000
00007E0000
0000000000
0000000000
0000000000
0000000000
0000000000
0000000000
0000000000
FFFFFF8000
FFFFFF8000
FFFFFF8000
FFFFFF8000
FFFFFF8000
FFFFFF8000
FFFFFF8000
FFFFFF8000
FFFFFF8000
0001FF8000
0001FF8000
0001FF8000
0001FF8000
0001FF8000
0001FF8000
0001FF8000
0001FF8000
0001FF8000
0001FF8000
0001FF8000
0001FF8000
0001FF8000
0001FF8000
0001FF8000
0001FF8000
0001FF8000
0001FF8000
0001FF8000
0001FF8000
0001FF8000
0001FF8000
0001FF8000
0001FF8000
0001FF8000
0001FF8000
0001FF8000
0001FF8000
0001FF8000
0001FF8000
FFFFFFFFFF
FFFFFFFFFF
FFFFFFFFFF
FFFFFFFFFF
FFFFFFFFFF
FFFFFFFFFF
FFFFFFFFFF
FFFFFFFFFF
FFFFFFFFFF
ENDCHAR
STARTCHAR j
ENCODING 106
SWIDTH 600 0
DWIDTH 54 0
BBX 28 85 10 -19
BITMAP
00001F80
00003FE0
00007FE0
0000FFF0
0000FFF0
0000FFF0
0000FFF0
0000FFF0
00007FE0
00003FE0
00001F80
00000000
00000000
00000000
00000000
00000000
00000000
00000000
1FFFFFF0
1FFFFFF0
1FFFFFF0
1FFFFFF0
1FFFFFF0
1FFFFFF0
1FFFFFF0
1FFFFFF0
1FFFFFF0
00007FF0
00007FF0
00007FF0
00007FF0
00007FF0
00007FF0
00007FF0
00007FF0
00007FF0
00007FF0
00007FF0
00007FF0
00007FF0
00007FF0
00007FF0
00007FF0
00007FF0
00007FF0
00007FF0
00007FF0
00007FF0
00007FF0
00007FF0
00007FF0
00007FF0
00007FF0
00007FF0
00007FF0
00007FF0
00007FF0
00007FF0
00007FF0
00007FF0
00007FF0
00007FF0
00007FF0
00007FF0
00007FF0
00007FF0
00007FF0
00007FF0
00007FF0
00007FE0
00007FE0
0000FFE0
0000FFE0
0001FFE0
0003FFC0
0007FFC0
FFFFFF80
FFFFFF80
FFFFFF00
FFFFFE00
FFFFFC00
FFFFF800
FFFFF000
FFFFC000
7FFC0000
ENDCHAR
STARTCHAR k
ENCODING 107
SWIDTH 600 0
DWIDTH 54 0
BBX 44 68 7 0
BITMAP
FFC000000000
FFC000000000
FFC000000000
FFC000000000
FFC000000000
FFC000000000
FFC000000000
FFC000000000
FFC000000000
FFC000000000
FFC000000000
FFC000000000
FFC000000000
FFC000000000
FFC000000000
FFC000000000
FFC000000000
FFC000000000
FFC000000000
FFC000000000
FFC0000FFF80
FFC0001FFF00
FFC0003FFE00
FFC0003FFC00
FFC0007FF800
FFC000FFF000
FFC001FFF000
FFC003FFE000
FFC007FFC000
FFC00FFF8000
FFC01FFF0000
FFC03FFE0000
FFC07FFC0000
FFC0FFF80000
FFC1FFF00000
FFC1FFE00000
FFC3FFE00000
FFC7FFC00000
FFCFFF800000
FFDFFF000000
FFFFFE000000
FFFFFF000000
FFFFFF800000
FFFFFF800000
FFFFFFC00000
FFFFFFE00000
FFFFFFF00000
FFFFFFF80000
FFFE7FF80000
FFFC3FFC0000
FFF83FFE0000
FFF01FFF0000
FFE00FFF0000
FFC007FF8000
FFC007FFC000
FFC003FFE000
FFC001FFE000
FFC000FFF000
FFC000FFF800
FFC0007FFC00
FFC0003FFE00
FFC0003FFE00
FFC0001FFF00
FFC0000FFF80
FFC00007FFC0
FFC00007FFC0
FFC00003FFE0
FFC00001FFF0
ENDCHAR
STARTCHAR l
ENCODING 108
SWIDTH 600 0
DWIDTH 54 0
BBX 40 68 9 0
BITMAP
FFFFFF8000
FFFFFF8000
FFFFFF8000
FFFFFF8000
FFFFFF8000
FFFFFF8000
FFFFFF8000
FFFFFF8000
FFFFFF8000
0001FF8000
0001FF8000
0001FF8000
0001FF8000
0001FF8000
0001FF8000
0001FF8000
0001FF8000
0001FF8000
0001FF8000
0001FF8000
0001FF8000
0001FF8000
0001FF8000
0001FF8000
0001FF8000
0001FF8000
0001FF8000
0001FF8000
0001FF8000
0001FF8000
0001FF8000
0001FF8000
0001FF8000
0001FF8000
0001FF8000
0001FF8000
0001FF8000
0001FF8000
0001FF8000
0001FF8000
0001FF8000
0001FF8000
0001FF8000
0001FF8000
0001FF8000
0001FF8000
0001FF8000
0001FF8000
0001FF8000
0001FF8000
0001FF8000
0001FF8000
0001FF8000
0001FF8000
0001FF8000
0001FF8000
0001FF8000
0001FF8000
0001FF8000
FFFFFFFFFF
FFFFFFFFFF
FFFFFFFFFF
FFFFFFFFFF
FFFFFFFFFF
FFFFFFFFFF
FFFFFFFFFF
FFFFFFFFFF
FFFFFFFFFF
ENDCHAR
STARTCHAR m
ENCODING 109
SWIDTH 600 0
DWIDTH 54 0
BBX 46 49 4 0
BITMAP
0001FC00FE00
FF87FF03FF80
FF8FFF87FFE0
FF9FFFCFFFE0
FFBFFFDFFFF0
FFFFFFFFFFF8
FFFFFFFFFFF8
FFFFFFFFFFF8
FFFFFFFFFFFC
FFE07FF81FFC
FFC03FF00FFC
FFC03FF00FFC
FF803FF00FFC
FF803FF00FFC
FF803FF00FFC
FF803FF00FFC
FF803FF00FFC
FF803FF00FFC
FF803FF00FFC
FF803FF00FFC
FF803FF00FFC
FF803FF00FFC
FF803FF00FFC
FF803FF00FFC
FF803FF00FFC
FF803FF00FFC
FF803FF00FFC
FF803FF00FFC
FF803FF00FFC
FF803FF00FFC
FF803FF00FFC
FF803FF00FFC
FF803FF00FFC
FF803FF00FFC
FF803FF00FFC
FF803FF00FFC
FF803FF00FFC
FF803FF00FFC
FF803FF00FFC
FF803FF00FFC
FF803FF00FFC
FF803FF00FFC
FF803FF00FFC
FF803FF00FFC
FF803FF00FFC
FF803FF00FFC
FF803FF00FFC
FF803FF00FFC
FF803FF00FFC
ENDCHAR
STARTCHAR n
ENCODING 110
SWIDTH 600 0
DWIDTH 54 0
BBX 41 49 7 0
BITMAP
00000FF80000
FF807FFF0000
FF81FFFFC000
FFC3FFFFE000
FFC7FFFFF000
FFCFFFFFF800
FFDFFFFFFC00
FFFFFFFFFC00
FFFFFFFFFE00
FFFF003FFE00
FFFC001FFF00
FFF8000FFF00
FFF00007FF00
FFE00007FF00
FFC00003FF80
FFC00003FF80
FFC00003FF80
FFC00003FF80
FFC00003FF80
FFC00003FF80
FFC00003FF80
FFC00003FF80
FFC00003FF80
FFC00003FF80
FFC00003FF80
FFC00003FF80
FFC00003FF80
FFC00003FF80
FFC00003FF80
FFC00003FF80
FFC00003FF80
FFC00003FF80
FFC00003FF80
FFC00003FF80
FFC00003FF80
FFC00003FF80
FFC00003FF80
FFC00003FF80
FFC00003FF80
FFC00003FF80
FFC00003FF80
FFC00003FF80
FFC00003FF80
FFC00003FF80
FFC00003FF80
FFC00003FF80
FFC00003FF80
FFC00003FF80
FFC00003FF80
ENDCHAR
STARTCHAR o
ENCODING 111
SWIDTH 600 0
DWIDTH 54 0
BBX 44 50 5 -1
BITMAP
00007FE00000
0003FFFC0000
001FFFFF8000
003FFFFFC000
00FFFFFFF000
01FFFFFFF800
03FFFFFFFC00
07FFFFFFFE00
07FFFFFFFE00
0FFF803FFF00
1FFF000FFF80
1FFE0007FF80
3FFC0003FFC0
3FF80001FFC0
7FF00001FFC0
7FF00000FFE0
7FF00000FFE0
7FE000007FE0
FFE000007FE0
FFE000007FF0
FFE000007FF0
FFE000007FF0
FFC000007FF0
FFC000003FF0
FFC000003FF0
FFC000003FF0
FFC000003FF0
FFC000007FF0
FFE000007FF0
FFE000007FF0
FFE000007FF0
FFE000007FF0
7FE000007FE0
7FF00000FFE0
7FF00000FFE0
7FF00001FFC0
3FF80001FFC0
3FFC0003FFC0
1FFE0007FF80
1FFF000FFF80
0FFF801FFF00
07FFFFFFFE00
07FFFFFFFE00
03FFFFFFFC00
01FFFFFFF800
00FFFFFFF000
003FFFFFC000
001FFFFF8000
0007FFFC0000
00007FE00000
ENDCHAR
STARTCHAR p
ENCODING 112
SWIDTH 600 0
DWIDTH 54 0
BBX 41 67 7 -18
BITMAP
00003FE00000
FFC1FFFC0000
FFC3FFFF0000
FFCFFFFF8000
FFDFFFFFE000
FFFFFFFFF000
FFFFFFFFF000
FFFFFFFFF800
FFFFFFFFFC00
FFFE00FFFC00
FFF8003FFE00
FFF0001FFE00
FFE0000FFF00
FFE0000FFF00
FFC00007FF00
FFC00007FF00
FFC00003FF80
FFC00003FF80
FFC00003FF80
FFC00003FF80
FFC00001FF80
FFC00001FF80
FFC00001FF80
FFC00001FF80
FFC00001FF80
FFC00001FF80
FFC00001FF80
FFC00001FF80
FFC00001FF80
FFC00001FF80
FFC00003FF80
FFC00003FF80
FFC00003FF80
FFC00003FF80
FFC00007FF00
FFC00007FF00
FFE0000FFF00
FFE0000FFE00
FFF0001FFE00
FFF8003FFE00
FFFE00FFFC00
FFFFFFFFFC00
FFFFFFFFF800
FFFFFFFFF000
FFFFFFFFE000
FFDFFFFFC000
FFCFFFFF8000
FFC7FFFF0000
FFC1FFFC0000
FFC03FE00000
FFC000000000
FFC000000000
FFC000000000
FFC000000000
FFC000000000
FFC000000000
FFC000000000
FFC000000000
FFC000000000
FFC000000000
FFC000000000
FFC000000000
FFC000000000
FFC000000000
FFC000000000
FFC000000000
FFC000000000
ENDCHAR
STARTCHAR q
ENCODING 113
SWIDTH 600 0
DWIDTH 54 0
BBX 42 67 5 -18
BITMAP
0001FF000000
000FFFE07FC0
003FFFF8FFC0
007FFFFCFFC0
01FFFFFEFFC0
01FFFFFFFFC0
03FFFFFFFFC0
07FFFFFFFFC0
0FFFFFFFFFC0
0FFFC01FFFC0
1FFF0007FFC0
1FFE0003FFC0
3FFC0001FFC0
3FF80001FFC0
3FF80001FFC0
7FF80001FFC0
7FF00001FFC0
7FF00001FFC0
7FF00001FFC0
7FE00001FFC0
7FE00001FFC0
7FE00001FFC0
FFE00001FFC0
FFE00001FFC0
FFE00001FFC0
FFE00001FFC0
FFE00001FFC0
FFE00001FFC0
7FE00001FFC0
7FE00001FFC0
7FE00001FFC0
7FF00001FFC0
7FF00001FFC0
7FF00001FFC0
3FF00001FFC0
3FF80001FFC0
3FF80001FFC0
3FFC0003FFC0
1FFE0003FFC0
1FFF000FFFC0
0FFFC01FFFC0
0FFFFFFFFFC0
07FFFFFFFFC0
03FFFFFFFFC0
01FFFFFFFFC0
00FFFFFFFFC0
007FFFFDFFC0
003FFFF9FFC0
000FFFE1FFC0
0001FF01FFC0
00000001FFC0
00000001FFC0
00000001FFC0
00000001FFC0
00000001FFC0
00000001FFC0
00000001FFC0
00000001FFC0
00000001FFC0
00000001FFC0
00000001FFC0
00000001FFC0
00000001FFC0
00000001FFC0
00000001FFC0
00000001FFC0
00000001FFC0
ENDCHAR
STARTCHAR r
ENCODING 114
SWIDTH 600 0
DWIDTH 54 0
BBX 35 49 13 0
BITMAP
000003FF80
FFC01FFFE0
FFC07FFFE0
FFC1FFFFE0
FFC3FFFFE0
FFE7FFFFE0
FFEFFFFFC0
FFFFFFFFC0
FFFFFFFFC0
FFFFFFFFC0
FFFFF007C0
FFFF800040
FFFF000000
FFFC000000
FFF8000000
FFF8000000
FFF0000000
FFE0000000
FFE0000000
FFE0000000
FFE0000000
FFE0000000
FFE0000000
FFE0000000
FFE0000000
FFE0000000
FFE0000000
FFE0000000
FFE0000000
FFE0000000
FFE0000000
FFE0000000
FFE0000000
FFE0000000
FFE0000000
FFE0000000
FFE0000000
FFE0000000
FFE0000000
FFE0000000
FFE0000000
FFE0000000
FFE0000000
FFE0000000
FFE0000000
FFE0000000
FFE0000000
FFE0000000
FFE0000000
ENDCHAR
STARTCHAR s
ENCODING 115
SWIDTH 600 0
DWIDTH 54 0
BBX 42 50 6 -1
BITMAP
0000FFE00000
0007FFFE0000
003FFFFF8000
00FFFFFFE000
01FFFFFFF000
03FFFFFFF800
07FFFFFFFC00
0FFFFFFFFE00
0FFFFFFFFF00
1FFF001FFF00
1FFC0007FF80
3FF80003FF80
3FF80003FF80
3FF00001FFC0
3FF00001FFC0
3FF00001FFC0
3FF800000000
3FF800000000
1FFC00000000
1FFF00000000
0FFFF0000000
07FFFF800000
03FFFFF80000
01FFFFFF0000
00FFFFFFC000
003FFFFFF000
0007FFFFFC00
0000FFFFFE00
00001FFFFF00
000000FFFF00
0000001FFF80
00000007FF80
00000001FFC0
00000001FFC0
FFE00000FFC0
7FE00000FFC0
7FE00000FFC0
7FF00001FFC0
7FF80001FFC0
3FFC0003FF80
3FFF000FFF80
1FFFFFFFFF80
0FFFFFFFFF00
07FFFFFFFE00
03FFFFFFFC00
01FFFFFFF800
00FFFFFFF000
003FFFFFC000
000FFFFF0000
0000FFF00000
ENDCHAR
STARTCHAR t
ENCODING 116
SWIDTH 600 0
DWIDTH 54 0
BBX 42 61 6 -1
BITMAP
001FFC000000
001FFC000000
001FFC000000
001FFC000000
001FFC000000
001FFC000000
001FFC000000
001FFC000000
001FFC000000
001FFC000000
001FFC000000
001FFC000000
FFFFFFFFFF00
FFFFFFFFFF00
FFFFFFFFFF00
FFFFFFFFFF00
FFFFFFFFFF00
FFFFFFFFFF00
FFFFFFFFFF00
FFFFFFFFFF00
001FFC000000
001FFC000000
001FFC000000
001FFC000000
001FFC000000
001FFC000000
001FFC000000
001FFC000000
001FFC000000
001FFC000000
001FFC000000
001FFC000000
001FFC000000
001FFC000000
001FFC000000
001FFC000000
001FFC000000
001FFC000000
001FFC000000
001FFC000000
001FFC000000
001FFC000000
001FFC000000
001FFC000000
001FFC000000
001FFC000000
001FFC000000
000FFC000000
000FFE000000
000FFE000000
000FFF000000
0007FFC00180
0007FFFFFF80
0007FFFFFF80
0003FFFFFF80
0001FFFFFF80
0001FFFFFF80
00007FFFFFC0
00003FFFFF80
00000FFFFE00
000001FFC000
ENDCHAR
STARTCHAR u
ENCODING 117
SWIDTH 600 0
DWIDTH 54 0
BBX 40 49 7 -1
BITMAP
FFE00003FF
FFE00003FF
FFE00003FF
FFE00003FF
FFE00003FF
FFE00003FF
FFE00003FF
FFE00003FF
FFE00003FF
FFE00003FF
FFE00003FF
FFE00003FF
FFE00003FF
FFE00003FF
FFE00003FF
FFE00003FF
FFE00003FF
FFE00003FF
FFE00003FF
FFE00003FF
FFE00003FF
FFE00003FF
FFE00003FF
FFE00003FF
FFE00003FF
FFE00003FF
FFE00003FF
FFE00003FF
FFE00003FF
FFE00003FF
FFE00003FF
FFE00003FF
FFE00003FF
FFE00003FF
7FE00003FF
7FE00007FF
7FF0000FFF
7FF0000FFF
3FF8003FFF
3FFC007FFF
3FFFFFFFFF
1FFFFFFFFF
1FFFFFFFFF
0FFFFFFBFF
07FFFFF1FF
03FFFFE1FF
01FFFF81FF
007FFF01FF
000FF80000
ENDCHAR
STARTCHAR v
ENCODING 118
SWIDTH 600 0
DWIDTH 54 0
BBX 46 48 4 0
BITMAP
FFE000001FFC
FFE000001FFC
7FE000003FF8
7FF000003FF8
7FF000003FF0
3FF000007FF0
3FF800007FF0
1FF800007FE0
1FF80000FFE0
1FFC0000FFE0
0FFC0000FFC0
0FFC0000FFC0
07FE0001FF80
07FE0001FF80
07FE0001FF80
03FF0003FF00
03FF0003FF00
01FF0003FE00
01FF8007FE00
01FF8007FE00
00FF8007FC00
00FFC00FFC00
00FFC00FF800
007FC00FF800
007FE01FF800
003FE01FF000
003FF01FF000
003FF03FF000
001FF03FE000
001FF83FE000
000FF87FC000
000FF87FC000
000FFC7FC000
0007FCFF8000
0007FCFF8000
0003FCFF0000
0003FFFF0000
0003FFFF0000
0001FFFE0000
0001FFFE0000
0000FFFC0000
0000FFFC0000
0000FFFC0000
00007FF80000
00007FF80000
00003FF80000
00003FF00000
00003FF00000
ENDCHAR
STARTCHAR w
ENCODING 119
SWIDTH 600 0
DWIDTH 54 0
BBX 50 48 2 0
BITMAP
FF8007F0007FC0
FF8007F800FFC0
FF8007F800FFC0
FFC007F800FFC0
FFC00FF800FF80
7FC00FF800FF80
7FC00FFC00FF80
7FC00FFC00FF80
7FC00FFC01FF80
7FC01FFC01FF00
3FE01FFE01FF00
3FE01FFE01FF00
3FE01FFE01FF00
3FE01FFE01FF00
3FE03FFE01FE00
1FE03FFF03FE00
1FE03FFF03FE00
1FF03F7F03FE00
1FF03F7F03FE00
1FF07F3F03FC00
0FF07F3F83FC00
0FF07F3F83FC00
0FF07E3F87FC00
0FF8FE1F87FC00
0FF8FE1F87F800
07F8FE1FC7F800
07F8FC1FC7F800
07F8FC1FC7F800
07F9FC0FC7F800
07F9FC0FEFF800
07FDFC0FEFF000
03FDF80FEFF000
03FDF807EFF000
03FFF807EFF000
03FFF807EFF000
03FFF007FFE000
01FFF007FFE000
01FFF003FFE000
01FFF003FFE000
01FFF003FFE000
01FFE003FFC000
00FFE001FFC000
00FFE001FFC000
00FFE001FFC000
00FFC001FFC000
00FFC000FF8000
007FC000FF8000
007FC000FF8000
ENDCHAR
STARTCHAR x
ENCODING 120
SWIDTH 600 0
DWIDTH 54 0
BBX 47 48 4 0
BITMAP
7FF800001FFE
3FF800003FFC
1FFC00007FF8
1FFE0000FFF0
0FFF0000FFE0
07FF0001FFE0
07FF8003FFC0
03FFC003FF80
01FFC007FF80
01FFE00FFF00
00FFF00FFE00
007FF01FFE00
003FF83FFC00
003FFC7FF800
001FFE7FF000
000FFEFFF000
000FFFFFE000
0007FFFFC000
0003FFFFC000
0003FFFF8000
0001FFFF0000
0000FFFF0000
00007FFE0000
00007FFC0000
00007FFC0000
0000FFFE0000
0000FFFF0000
0001FFFF0000
0003FFFF8000
0003FFFFC000
0007FFFFE000
000FFFFFE000
001FFEFFF000
001FFC7FF800
003FFC3FF800
007FF81FFC00
007FF01FFE00
00FFE00FFF00
01FFE007FF00
03FFC007FF80
03FF8003FFC0
07FF8001FFC0
0FFF0000FFE0
1FFE0000FFF0
1FFC00007FF8
3FFC00003FF8
7FF800003FFC
FFF000001FFE
ENDCHAR
STARTCHAR y
ENCODING 121
SWIDTH 600 0
DWIDTH 54 0
BBX 49 67 3 -19
BITMAP
FFE0000003FF80
FFF0000007FF80
7FF0000007FF00
7FF800000FFF00
3FF800000FFF00
3FF800000FFE00
3FFC00001FFE00
1FFC00001FFC00
1FFE00001FFC00
0FFE00003FF800
0FFE00003FF800
07FF00007FF000
07FF00007FF000
03FF80007FF000
03FF8000FFE000
03FF8000FFE000
01FFC001FFC000
01FFC001FFC000
00FFE001FF8000
00FFE003FF8000
007FE003FF8000
007FF003FF0000
003FF007FF0000
003FF807FE0000
003FF80FFE0000
001FF80FFC0000
001FFC0FFC0000
000FFC1FF80000
000FFE1FF80000
0007FE3FF80000
0007FE3FF00000
0007FE3FF00000
0003FF7FE00000
0003FF7FE00000
0001FF7FC00000
0001FFFFC00000
0000FFFF800000
0000FFFF800000
00007FFF800000
00007FFF000000
00007FFF000000
00003FFE000000
00003FFE000000
00001FFC000000
00001FFC000000
00000FFC000000
00001FF8000000
00001FF8000000
00003FF0000000
00003FF0000000
00007FE0000000
00007FE0000000
0000FFC0000000
0000FFC0000000
0001FFC0000000
0003FF80000000
0007FF80000000
000FFF00000000
03FFFF00000000
07FFFE00000000
07FFFC00000000
07FFF800000000
07FFF000000000
07FFE000000000
0FFFC000000000
0FFF0000000000
07FC0000000000
ENDCHAR
STARTCHAR z
ENCODING 122
SWIDTH 600 0
DWIDTH 54 0
BBX 43 48 6 0
BITMAP
7FFFFFFFFF80
7FFFFFFFFF80
7FFFFFFFFF80
7FFFFFFFFF80
7FFFFFFFFF80
7FFFFFFFFF80
7FFFFFFFFF80
7FFFFFFFFF80
7FFFFFFFFF00
0000003FFE00
0000003FFC00
0000007FF800
000000FFF800
000001FFF000
000003FFE000
000007FFC000
000007FF8000
00000FFF0000
00001FFF0000
00003FFE0000
00007FFC0000
0000FFF80000
0000FFF00000
0001FFE00000
0003FFE00000
0007FFC00000
000FFF800000
001FFF000000
001FFE000000
003FFC000000
007FFC000000
00FFF8000000
01FFF0000000
03FFE0000000
03FFC0000000
07FF80000000
0FFF80000000
1FFF00000000
3FFE00000000
7FFFFFFFFFE0
7FFFFFFFFFE0
FFFFFFFFFFE0
FFFFFFFFFFE0
FFFFFFFFFFE0
FFFFFFFFFFE0
FFFFFFFFFFE0
FFFFFFFFFFE0
FFFFFFFFFFE0
ENDCHAR
STARTCHAR braceleft
ENCODING 123
SWIDTH 600 0
DWIDTH 54 0
BBX 29 87 14 -16
BITMAP
000000F0
000007F0
00001FF8
00003FF8
00007FF8
0000FFF8
0001FFC0
0001FF80
0003FF00
0003FE00
0007FE00
0007FC00
0007FC00
000FFC00
000FFC00
000FFC00
000FFC00
000FF800
000FF800
001FF800
001FF800
001FF800
001FF800
001FF800
001FF800
001FF800
001FF800
001FF800
001FF800
001FF800
001FF800
001FF800
001FF800
001FF800
003FF000
003FF000
007FF000
00FFE000
01FFC000
0FFFC000
FFFF8000
FFFF0000
FFFC0000
FFF00000
FFF00000
FFFC0000
FFFF0000
FFFF8000
0FFFC000
01FFE000
00FFE000
007FF000
003FF000
003FF000
001FF800
001FF800
001FF800
001FF800
001FF800
001FF800
001FF800
001FF800
001FF800
001FF800
001FF800
001FF800
001FF800
001FF800
000FF800
000FFC00
000FFC00
000FFC00
000FFC00
000FFC00
0007FC00
0007FE00
0007FE00
0003FF00
0003FF00
0001FF80
0000FFE0
0000FFF8
00007FF8
00003FF8
00000FF8
000007F8
000000F0
ENDCHAR
STARTCHAR bar
ENCODING 124
SWIDTH 600 0
DWIDTH 54 0
BBX 8 83 23 -18
BITMAP
FF
FF
FF
FF
FF
FF
FF
FF
FF
FF
FF
FF
FF
FF
FF
FF
FF
FF
FF
FF
FF
FF
FF
FF
FF
FF
FF
FF
FF
FF
FF
FF
FF
FF
FF
FF
FF
FF
FF
FF
FF
FF
FF
FF
FF
FF
FF
FF
FF
FF
FF
FF
FF
FF
FF
FF
FF
FF
FF
FF
FF
FF
FF
FF
FF
FF
FF
FF
FF
FF
FF
FF
FF
FF
FF
FF
FF
FF
FF
FF
FF
FF
FF
ENDCHAR
STARTCHAR braceright
ENCODING 125
SWIDTH 600 0
DWIDTH 54 0
BBX 30 87 14 -16
BITMAP
7C000000
7F800000
7FC00000
7FF00000
7FF80000
FFFC0000
1FFC0000
07FE0000
03FE0000
01FF0000
01FF0000
01FF8000
00FF8000
00FF8000
00FFC000
00FFC000
00FFC000
00FFC000
00FFC000
00FFC000
00FFC000
00FFC000
00FFC000
00FFC000
00FFC000
00FFC000
00FFC000
00FFC000
00FFC000
00FFC000
00FFC000
007FC000
007FE000
007FE000
007FE000
003FF000
003FF000
001FF800
001FFE00
000FFF80
0007FFFC
0003FFFC
0001FFFC
00007FFC
00007FFC
0001FFFC
0003FFFC
0007FFFC
000FFF80
001FFE00
001FF800
003FF000
003FF000
007FE000
007FE000
007FE000
007FC000
00FFC000
00FFC000
00FFC000
00FFC000
00FFC000
00FFC000
00FFC000
00FFC000
00FFC000
00FFC000
00FFC000
00FFC000
00FFC000
00FFC000
00FFC000
00FFC000
00FF8000
01FF8000
01FF8000
01FF0000
03FF0000
07FE0000
07FE0000
1FFC0000
FFF80000
7FF00000
7FE00000
7FC00000
7F000000
7C000000
ENDCHAR
STARTCHAR asciitilde
ENCODING 126
SWIDTH 600 0
DWIDTH 54 0
BBX 49 19 2 17
BITMAP
00080000000000
00FFE000000000
03FFF800000000
07FFFE00003F80
0FFFFF00003F80
1FFFFFC0007F80
3FFFFFE0007F80
7FFFFFF000FF80
7FFFFFFC00FF00
7FE0FFFE03FF00
FF803FFFFFFF00
FF000FFFFFFE00
FF0007FFFFFE00
FE0003FFFFFC00
FE0000FFFFF800
FE00007FFFF000
0200001FFFE000
0000000FFFC000
00000001FE0000
ENDCHAR
STARTCHAR nonbreakingspace
ENCODING 160
SWIDTH 600 0
DWIDTH 54 0
BBX 1 1 0 0
BITMAP
00
ENDCHAR
STARTCHAR exclamdown
ENCODING 161
SWIDTH 600 0
DWIDTH 54 0
BBX 13 66 21 -17
BITMAP
0F80
3FE0
7FF0
7FF0
7FF8
FFF8
FFF8
7FF8
7FF0
7FF0
3FE0
0F80
0000
0000
0000
0000
0000
0000
0000
0000
0000
0000
0000
3FF0
3FF0
3FF0
3FF0
3FF0
3FF0
3FF0
3FF0
7FF0
7FF0
7FF0
7FF0
7FF0
7FF0
7FF0
7FF0
7FF0
7FF0
7FF0
7FF0
7FF0
7FF0
7FF0
7FF0
7FF0
7FF0
7FF0
7FF0
7FF0
7FF0
7FF0
7FF0
7FF0
7FF0
7FF0
7FF0
7FF0
7FF0
7FF0
7FF0
7FF0
7FF0
7FF0
ENDCHAR
STARTCHAR cent
ENCODING 162
SWIDTH 600 0
DWIDTH 54 0
BBX 42 69 6 -11
BITMAP
00007FC00000
00007FC00000
00007FC00000
00007FC00000
00007FC00000
00007FC00000
00007FC00000
00007FC00000
00007FC00000
00007FC00000
0001FFF80000
0007FFFF0000
001FFFFFC000
007FFFFFE000
00FFFFFFF000
01FFFFFFF800
03FFFFFFFC00
07FFFFFFFE00
0FFFE07FFF00
0FFF000FFF00
1FFE0007FF80
1FFC0003FF80
3FF80001FF80
3FF80001FFC0
3FF00000FFC0
7FF00000FFC0
7FF00000FFC0
7FE00000FFC0
7FE000000000
FFE000000000
FFE000000000
FFE000000000
FFE000000000
FFE000000000
FFE000000000
FFE000000000
FFE000000000
FFE000000000
FFE000000000
FFE000000000
7FE000000000
7FE000000000
7FF000000000
7FF00000FFC0
3FF00000FFC0
3FF80000FFC0
3FF80001FFC0
1FFC0003FF80
1FFE0007FF80
0FFF000FFF00
0FFFE07FFF00
07FFFFFFFE00
03FFFFFFFC00
01FFFFFFF800
00FFFFFFF000
007FFFFFE000
001FFFFF8000
0007FFFE0000
0001FFF00000
00007FC00000
00007FC00000
00007FC00000
00007FC00000
00007FC00000
00007FC00000
00007FC00000
00007FC00000
00007FC00000
00007FC00000
ENDCHAR
STARTCHAR sterling
ENCODING 163
SWIDTH 600 0
DWIDTH 54 0
BBX 46 66 5 0
BITMAP
000007FE0000
00003FFFE000
0000FFFFF800
0003FFFFFE00
0007FFFFFF00
000FFFFFFF80
001FFFFFFFC0
003FFFFFFFC0
007FFFFFFFE0
007FFC03FFE0
00FFF000FFF0
00FFE0007FF0
01FFE0003FF0
01FFC0003FF8
01FFC0003FF8
01FF80001FF8
01FF80001FF8
03FF80001FF8
03FF80000000
03FF80000000
03FF80000000
03FF80000000
03FF80000000
01FF80000000
01FF80000000
01FF80000000
01FF80000000
01FF80000000
01FF80000000
01FF80000000
FFFFFFFE0000
FFFFFFFE0000
FFFFFFFE0000
FFFFFFFE0000
FFFFFFFE0000
FFFFFFFE0000
FFFFFFFE0000
FFFFFFFE0000
FFFFFFFE0000
01FFC0000000
01FFC0000000
01FFC0000000
01FFC0000000
01FFC0000000
01FFC0000000
01FFC0000000
01FFC0000000
01FFC0000000
01FFC0000000
01FFC0000000
01FFC0000000
01FFC0000000
01FF80000000
01FF80000000
03FF80000000
03FF00000000
07FF00000000
FFFFFFFFFFFC
FFFFFFFFFFFC
FFFFFFFFFFFC
FFFFFFFFFFFC
FFFFFFFFFFFC
FFFFFFFFFFFC
FFFFFFFFFFFC
FFFFFFFFFFFC
FFFFFFFFFFFC
ENDCHAR
STARTCHAR currency
ENCODING 164
SWIDTH 600 0
DWIDTH 54 0
BBX 47 48 4 -1
BITMAP
0600000000C0
07001FF001C0
0F80FFFE03E0
1FC3FFFF87F0
3FEFFFFFEFF8
7FFFFFFFFFFC
FFFFFFFFFFFE
7FFFFFFFFFFC
3FFFFFFFFFF8
1FFFFFFFFFF0
0FFFE00FFFE0
07FF8003FFC0
07FE0000FFC0
0FFC00007FE0
0FF800003FE0
1FF000003FE0
1FF000001FF0
1FE000001FF0
3FE000000FF0
3FE000000FF8
3FC0000007F8
3FC0000007F8
3FC0000007F8
3FC0000007F8
3FC0000007F8
3FC0000007F8
3FC0000007F8
3FC0000007F8
3FC000000FF8
3FE000000FF8
3FE000000FF0
1FE000001FF0
1FF000001FF0
1FF000003FE0
0FF800003FE0
0FFC00007FE0
07FE0000FFC0
0FFF8003FFE0
1FFFE00FFFF0
3FFFFFFFFFF8
7FFFFFFFFFFC
FFFFFFFFFFFE
7FFFFFFFFFFC
3FFFFFFFFFF8
1FCFFFFFE7F0
0F83FFFF83E0
0700FFFE01C0
02001FF00080
ENDCHAR
STARTCHAR yen
ENCODING 165
SWIDTH 600 0
DWIDTH 54 0
BBX 52 65 1 0
BITMAP
FFF0000000FFF0
7FF8000000FFE0
7FF8000001FFE0
3FFC000001FFC0
1FFC000003FFC0
1FFE000003FF80
0FFE000007FF80
0FFF000007FF00
07FF00000FFF00
07FF80000FFE00
03FF80001FFE00
03FFC0001FFC00
01FFC0003FF800
01FFE0003FF800
00FFE0007FF000
007FF0007FF000
007FF000FFE000
003FF800FFE000
003FF801FFC000
001FFC01FFC000
001FFC03FF8000
000FFE03FF8000
000FFE07FF0000
0007FF07FE0000
0003FF0FFE0000
0003FF8FFC0000
0001FF9FFC0000
0001FFDFF80000
0000FFFFF80000
0000FFFFF00000
00007FFFF00000
00007FFFE00000
07FFFFFFFFFE00
07FFFFFFFFFE00
07FFFFFFFFFE00
07FFFFFFFFFE00
07FFFFFFFFFE00
07FFFFFFFFFE00
07FFFFFFFFFE00
000007FE000000
000007FE000000
000007FE000000
000007FE000000
000007FE000000
000007FE000000
07FFFFFFFFFE00
07FFFFFFFFFE00
07FFFFFFFFFE00
07FFFFFFFFFE00
07FFFFFFFFFE00
07FFFFFFFFFE00
000007FE000000
000007FE000000
000007FE000000
000007FE000000
000007FE000000
000007FE000000
000007FE000000
000007FE000000
000007FE000000
000007FE000000
000007FE000000
000007FE000000
000007FE000000
000007FE000000
ENDCHAR
STARTCHAR brokenbar
ENCODING 166
SWIDTH 600 0
DWIDTH 54 0
BBX 10 77 22 -12
BITMAP
FFC0
FFC0
FFC0
FFC0
FFC0
FFC0
FFC0
FFC0
FFC0
FFC0
FFC0
FFC0
FFC0
FFC0
FFC0
FFC0
FFC0
FFC0
FFC0
FFC0
FFC0
FFC0
FFC0
FFC0
FFC0
FFC0
FFC0
FFC0
FFC0
FFC0
FFC0
FFC0
FFC0
FFC0
0000
0000
0000
0000
0000
0000
0000
0000
FFC0
FFC0
FFC0
FFC0
FFC0
FFC0
FFC0
FFC0
FFC0
FFC0
FFC0
FFC0
FFC0
FFC0
FFC0
FFC0
FFC0
FFC0
FFC0
FFC0
FFC0
FFC0
FFC0
FFC0
FFC0
FFC0
FFC0
FFC0
FFC0
FFC0
FFC0
FFC0
FFC0
FFC0
FFC0
ENDCHAR
STARTCHAR section
ENCODING 167
SWIDTH 600 0
DWIDTH 54 0
BBX 47 87 4 -21
BITMAP
00003FFC0000
0003FFFFC000
001FFFFFF000
007FFFFFFC00
00FFFFFFFE00
03FFFFFFFF80
07FFFFFFFFC0
07FFFFFFFFC0
0FFFFFFFFFE0
1FFFC007FFF0
1FFE0001FFF0
3FFC0000FFF8
3FF800007FF8
3FF800003FF8
3FF000003FF8
3FF000001FFC
7FF000001FFC
7FF000001FFC
3FF000001FFC
3FF000000000
3FF800000000
3FFC00000000
3FFE00000000
1FFF80000000
1FFFE0000000
0FFFFC000000
0FFFFFC00000
07FFFFF80000
03FFFFFF0000
01FFFFFFE000
03FFFFFFF800
07FFFFFFFE00
0FFFFFFFFF00
1FFFFFFFFFC0
3FFC7FFFFFE0
7FF80FFFFFF0
7FF000FFFFF0
7FE0001FFFF8
FFE00007FFF8
FFC00000FFFC
FFC000007FFC
FFC000003FFC
FFC000001FFE
FFE000000FFE
FFE000000FFE
FFF000000FFE
FFF000000FFE
7FFC00000FFE
7FFF00000FFE
3FFFC0000FFC
3FFFF8001FFC
1FFFFF803FFC
0FFFFFF07FF8
07FFFFFFFFF0
03FFFFFFFFE0
00FFFFFFFFC0
007FFFFFFF80
000FFFFFFF00
0003FFFFFF00
00007FFFFF80
000007FFFFC0
000000FFFFE0
0000001FFFF0
00000007FFF0
00000001FFF0
000000007FF8
000000003FF8
000000003FF8
FFC000001FF8
FFC000001FF8
FFE000001FF8
FFE000001FF8
FFE000003FF8
FFF000003FF8
7FF800007FF8
7FFC0000FFF0
3FFF0001FFF0
3FFFE00FFFE0
1FFFFFFFFFE0
0FFFFFFFFFC0
07FFFFFFFF80
03FFFFFFFF00
01FFFFFFFE00
007FFFFFF800
001FFFFFE000
0003FFFF0000
000001000000
ENDCHAR
STARTCHAR dieresis
ENCODING 168
SWIDTH 600 0
DWIDTH 54 0
BBX 31 10 12 56
BITMAP
1F0001F0
7FC007FC
7FC007FC
FFE00FFE
FFE00FFE
FFE00FFE
FFE00FFE
7FC007FC
7FC007FC
1F0001F0
ENDCHAR
STARTCHAR copyright
ENCODING 169
SWIDTH 600 0
DWIDTH 54 0
BBX 47 50 4 -1
BITMAP
00001FF00000
0001FFFE0000
0007FFFFC000
001FFFFFE000
003FE00FF800
007F0001FC00
00FC00007E00
01F800003F00
03E000001F80
07C0000007C0
0F801FE007C0
0F007FF803E0
1F00FFFE01F0
3E01FFFF00F0
3C03FFFF00F8
3C07F03F8078
7C07E01F8078
780FC00FC03C
780F8007C03C
F80F8007C03C
F00F8007C03C
F01F8000003C
F01F8000001E
F01F0000001E
F01F0000001E
F01F0000001E
F01F0000001E
F01F0000001E
F01F8000003C
F00F8007C03C
F80F8007C03C
780F8007C03C
780FC00FC07C
7C07E00F8078
3C07F03F8078
3E03FFFF80F8
1E01FFFF00F0
1F00FFFE01F0
0F007FF803E0
0F801FE007C0
07C000000FC0
03E000001F80
01F800003F00
00FC00007E00
007F0001FC00
003FE00FF800
001FFFFFE000
0007FFFFC000
0001FFFF0000
00003FF00000
ENDCHAR
STARTCHAR ordfeminine
ENCODING 170
SWIDTH 600 0
DWIDTH 54 0
BBX 30 35 12 31
BITMAP
001FF000
00FFFE00
03FFFF00
07FFFF80
0FFFFFC0
1FFFFFE0
1FFFFFE0
3FF03FF0
3FE01FF0
3FC00FF0
3FC00FF0
000007F0
000007F0
000007F0
000007F0
007FFFF0
03FFFFF0
0FFFFFF0
1FFFFFF0
3FFFFFF0
7FE007F0
7FC007F0
FF8007F0
FF0007F0
FF0007F0
FF000FF0
FF001FF0
FF803FF0
7FC0FFF0
7FFFFFF8
7FFFFFF8
3FFFF7F8
1FFFE7F8
07FFC7F8
01FE0004
ENDCHAR
STARTCHAR guillemotleft
ENCODING 171
SWIDTH 600 0
DWIDTH 54 0
BBX 35 36 9 4
BITMAP
000FF00FE0
001FE01FC0
003FC03FC0
003F807F80
007F807F80
00FF00FF00
00FF01FE00
01FE01FE00
03FC03FC00
03FC07FC00
07F80FF800
0FF80FF000
1FF01FF000
1FE03FE000
3FE03FE000
7FC07FC000
7FC0FF8000
FF80FF8000
FF81FF8000
FFC0FF8000
7FC07FC000
3FE07FC000
3FE03FE000
1FF01FF000
0FF80FF000
07F80FF800
07FC07FC00
03FC03FC00
01FE01FE00
00FF01FE00
00FF00FF00
007F807F80
003F807F80
003FC03FC0
001FE01FC0
000FF00FE0
ENDCHAR
STARTCHAR logicalnot
ENCODING 172
SWIDTH 600 0
DWIDTH 54 0
BBX 37 19 8 17
BITMAP
FFFFFFFFF8
FFFFFFFFF8
FFFFFFFFF8
FFFFFFFFF8
FFFFFFFFF8
FFFFFFFFF8
FFFFFFFFF8
FFFFFFFFF8
0000000FF8
0000000FF8
0000000FF8
0000000FF8
0000000FF8
0000000FF8
0000000FF8
0000000FF8
0000000FF8
0000000FF8
0000000FF8
ENDCHAR
STARTCHAR uni00AD
ENCODING 173
SWIDTH 600 0
DWIDTH 54 0
BBX 35 9 11 24
BITMAP
FFFFFFFFE0
FFFFFFFFE0
FFFFFFFFE0
FFFFFFFFE0
FFFFFFFFE0
FFFFFFFFE0
FFFFFFFFE0
FFFFFFFFE0
FFFFFFFFE0
ENDCHAR
STARTCHAR registered
ENCODING 174
SWIDTH 600 0
DWIDTH 54 0
BBX 47 50 4 -1
BITMAP
00003FF00000
0001FFFE0000
0007FFFFC000
001FFFFFE000
003FE01FF800
00FF0001FC00
01FC00007E00
03F000003F00
03E000001F80
07C000000FC0
0F80000007C0
1F03FFE003E0
1F03FFFC01F0
3E03FFFE00F0
3C03FFFF00F8
3C03E03F8078
7803E00F8078
7803E00F807C
7803E007C03C
F003E007C03C
F003E00F803C
F003E00F803C
F003E03F003E
F003FFFF001E
F003FFFC001E
F003FFF0001E
F003FFF0001E
F003E0F0003E
F003E0F8003C
F003E078003C
F003E07C003C
7803E03C003C
7803E03E007C
7803E01E0078
3C03E01F0078
3C03E01F00F0
3E03E00F80F0
1F03E00F81F0
1F03E007C3E0
0F80000007C0
07C000000FC0
03E000001F80
03F000003F00
01FC0000FE00
00FF0001FC00
003FE00FF800
001FFFFFE000
0007FFFFC000
0001FFFE0000
00003FF00000
ENDCHAR
STARTCHAR macron
ENCODING 175
SWIDTH 600 0
DWIDTH 54 0
BBX 31 7 12 58
BITMAP
FFFFFFFE
FFFFFFFE
FFFFFFFE
FFFFFFFE
FFFFFFFE
FFFFFFFE
FFFFFFFE
ENDCHAR
STARTCHAR degree
ENCODING 176
SWIDTH 600 0
DWIDTH 54 0
BBX 23 24 16 42
BITMAP
00FE00
03FF80
0FFFC0
1FFFE0
3FFFF0
3FFFF8
7F87F8
7F01FC
FE00FC
FC00FC
FC00FE
FC007E
FC007E
FC00FE
FC00FE
FE00FC
7F01FC
7F83F8
3FFFF8
3FFFF0
1FFFE0
0FFFC0
03FF80
00FE00
ENDCHAR
STARTCHAR plusminus
ENCODING 177
SWIDTH 600 0
DWIDTH 54 0
BBX 40 57 7 0
BITMAP
0001FF8000
0001FF8000
0001FF8000
0001FF8000
0001FF8000
0001FF8000
0001FF8000
0001FF8000
0001FF8000
0001FF8000
0001FF8000
0001FF8000
0001FF8000
0001FF8000
0001FF8000
0001FF8000
0001FF8000
FFFFFFFFFF
FFFFFFFFFF
FFFFFFFFFF
FFFFFFFFFF
FFFFFFFFFF
FFFFFFFFFF
FFFFFFFFFF
FFFFFFFFFF
FFFFFFFFFF
0001FF8000
0001FF8000
0001FF8000
0001FF8000
0001FF8000
0001FF8000
0001FF8000
0001FF8000
0001FF8000
0001FF8000
0001FF8000
0001FF8000
0001FF8000
0001FF8000
0001FF8000
0001FF8000
0001FF8000
0000000000
0000000000
0000000000
0000000000
0000000000
7FFFFFFFFC
7FFFFFFFFC
7FFFFFFFFC
7FFFFFFFFC
7FFFFFFFFC
7FFFFFFFFC
7FFFFFFFFC
7FFFFFFFFC
7FFFFFFFFC
ENDCHAR
STARTCHAR twosuperior
ENCODING 178
SWIDTH 600 0
DWIDTH 54 0
BBX 28 36 13 30
BITMAP
003FE000
01FFF800
07FFFE00
0FFFFF00
1FFFFF80
3FFFFFC0
3FFFFFC0
7FE07FE0
7FC03FE0
7F803FE0
7F801FE0
FF801FE0
00003FE0
00003FE0
00003FC0
00007FC0
0000FF80
0001FF00
0003FF00
0007FE00
000FFC00
001FF800
003FF000
00FFC000
01FF8000
03FF0000
07FE0000
0FFC0000
1FF00000
3FFFFFF0
7FFFFFF0
7FFFFFF0
7FFFFFF0
7FFFFFF0
7FFFFFF0
7FFFFFF0
ENDCHAR
STARTCHAR threesuperior
ENCODING 179
SWIDTH 600 0
DWIDTH 54 0
BBX 28 37 13 28
BITMAP
003FE000
01FFFC00
07FFFE00
0FFFFF80
1FFFFFC0
3FFFFFC0
3FFFFFE0
7FE07FE0
7FC03FE0
7F801FE0
00001FE0
00001FE0
00001FE0
00003FE0
00007FC0
003FFF80
003FFF00
003FFC00
003FFE00
003FFF80
003FFFC0
00007FE0
00001FE0
00001FF0
00000FF0
00000FF0
FF800FF0
7F801FF0
7FC01FF0
7FE07FE0
7FFFFFE0
3FFFFFC0
1FFFFFC0
0FFFFF80
07FFFE00
01FFFC00
007FE000
ENDCHAR
STARTCHAR acute
ENCODING 180
SWIDTH 600 0
DWIDTH 54 0
BBX 20 12 17 54
BITMAP
00FFF0
01FFE0
01FFC0
03FF80
07FF00
07FE00
0FFC00
1FF800
1FF000
3FE000
7FC000
FF8000
ENDCHAR
STARTCHAR mu
ENCODING 181
SWIDTH 600 0
DWIDTH 54 0
BBX 40 66 8 -18
BITMAP
FFC00007FF
FFC00007FF
FFC00007FF
FFC00007FF
FFC00007FF
FFC00007FF
FFC00007FF
FFC00007FF
FFC00007FF
FFC00007FF
FFC00007FF
FFC00007FF
FFC00007FF
FFC00007FF
FFC00007FF
FFC00007FF
FFC00007FF
FFC00007FF
FFC00007FF
FFC00007FF
FFC00007FF
FFC00007FF
FFC00007FF
FFC00007FF
FFC00007FF
FFC00007FF
FFC00007FF
FFC00007FF
FFC00007FF
FFC00007FF
FFC00007FF
FFE00007FF
FFE00007FF
FFE00007FF
FFE00007FF
FFE00007FF
FFF0000FFF
FFF0001FFF
FFF8003FFF
FFFE00FFFF
FFFFFFFFFF
FFFFFFFFFF
FFFFFFFFFF
FFFFFFFFFF
FFFFFFFBFF
FFFFFFF3FF
FFFFFFE3FF
FFCFFFC3FF
FFC1FE0000
FFC0000000
FFC0000000
FFC0000000
FFC0000000
FFC0000000
FFC0000000
FFC0000000
FFC0000000
FFC0000000
FFC0000000
FFC0000000
FFC0000000
FFC0000000
FFC0000000
FFC0000000
FFC0000000
FFC0000000
ENDCHAR
STARTCHAR paragraph
ENCODING 182
SWIDTH 600 0
DWIDTH 54 0
BBX 35 65 9 0
BITMAP
0000FFFFE0
0007FFFFE0
001FFFFFE0
007FFFFFE0
01FFFFFFE0
03FFFFFFE0
07FFFFFFE0
0FFFFFFFE0
0FFFFFFFE0
1FFFFFFFE0
1FFFFFFFE0
3FFFFFFFE0
3FFFFFFFE0
7FFFFFFFE0
7FFFFFFFE0
7FFFFFFFE0
7FFFFFFFE0
FFFFFFFFE0
FFFFFFFFE0
FFFFFFFFE0
FFFFFFFFE0
FFFFFFFFE0
FFFFFFFFE0
FFFFFFFFE0
FFFFFFFFE0
7FFFFFFFE0
7FFFFFFFE0
7FFFFFFFE0
7FFFFFFFE0
3FFFFFFFE0
3FFFFFFFE0
1FFFFFFFE0
1FFFFFFFE0
0FFFFFFFE0
0FFFFFFFE0
07FFFFFFE0
03FFFFFFE0
01FFFFFFE0
007FFFFFE0
001FFFFFE0
0007FFFFE0
0000FFFFE0
0000003FE0
0000003FE0
0000003FE0
0000003FE0
0000003FE0
0000003FE0
0000003FE0
0000003FE0
0000003FE0
0000003FE0
0000003FE0
0000003FE0
0000003FE0
0000003FE0
0000003FE0
0000003FE0
0000003FE0
0000003FE0
0000003FE0
0000003FE0
0000003FE0
0000003FE0
0000003FE0
ENDCHAR
STARTCHAR periodcentered
ENCODING 183
SWIDTH 600 0
DWIDTH 54 0
BBX 12 12 22 26
BITMAP
1F80
3FC0
7FE0
FFF0
FFF0
FFF0
FFF0
FFF0
FFF0
7FE0
3FC0
1F80
ENDCHAR
STARTCHAR cedilla
ENCODING 184
SWIDTH 600 0
DWIDTH 54 0
BBX 15 20 20 -19
BITMAP
7F80
7F00
FF80
FFF0
FFF8
FFFC
0FFC
03FC
03FE
03FE
03FE
03FE
07FE
0FFC
FFFC
FFF8
FFF0
FFE0
FF80
7C00
ENDCHAR
STARTCHAR onesuperior
ENCODING 185
SWIDTH 600 0
DWIDTH 54 0
BBX 17 35 17 29
BITMAP
000180
000F80
007F80
07FF80
3FFF80
FFFF80
FFFF80
FFFF80
FFFF80
FFFF80
F87F80
807F80
007F80
007F80
007F80
007F80
007F80
007F80
007F80
007F80
007F80
007F80
007F80
007F80
007F80
007F80
007F80
007F80
007F80
007F80
007F80
007F80
007F80
007F80
007F80
ENDCHAR
STARTCHAR ordmasculine
ENCODING 186
SWIDTH 600 0
DWIDTH 54 0
BBX 30 35 12 31
BITMAP
001FE000
00FFFC00
03FFFF00
07FFFF80
0FFFFFC0
1FFFFFE0
3FFFFFF0
7FF03FF0
7FC00FF8
7F8007F8
FF8007FC
FF0003FC
FF0003FC
FF0003FC
FE0003FC
FE0003FC
FE0003FC
FE0003FC
FE0003FC
FE0003FC
FE0003FC
FE0003FC
FF0003FC
FF0003FC
FF0003FC
7F8007F8
7F8007F8
7FC00FF8
3FF03FF0
1FFFFFE0
0FFFFFC0
07FFFF80
03FFFF00
00FFFC00
003FF000
ENDCHAR
STARTCHAR guillemotright
ENCODING 187
SWIDTH 600 0
DWIDTH 54 0
BBX 36 36 10 6
BITMAP
FF00FF0000
7F807F0000
3F803F8000
3FC03FC000
1FE01FE000
0FE01FE000
0FF00FF000
07F807F800
07FC07F800
03FC03FC00
01FE03FE00
01FF01FF00
00FF00FF00
00FF80FF80
007FC07FC0
007FE07FC0
003FE03FE0
001FF01FF0
001FF01FF0
003FF03FE0
003FE03FE0
007FC07FC0
007F80FF80
00FF80FF80
01FF01FF00
01FE01FE00
03FC03FC00
07FC07FC00
07F807F800
0FF00FF000
0FF01FE000
1FE01FE000
3FC03FC000
3F803F8000
7F807F0000
FF00FF0000
ENDCHAR
STARTCHAR onequarter
ENCODING 188
SWIDTH 600 0
DWIDTH 54 0
BBX 49 64 2 0
BITMAP
00070000000000
003F0000000000
01FF0000000000
0FFF0000000000
7FFF0000000000
FFFF0000000000
FFFF0000000000
FFFF0000000000
FFFF0000000000
F0FF0000000000
00FF0000400000
00FF0000F00000
00FF0000FC0000
00FF0001FE0000
00FF0001FC0000
00FF0003F80000
00FF0003F80000
00FF0007F00000
00FF0007F00000
00FF000FE00000
00FF001FE00000
00FF001FC00000
00FF003FC00000
00FF003F800000
00FF007F000000
00FF007F000000
00FF00FE000000
00FF00FE000000
00FF01FC000000
00FF01FC000000
00FF03F8000000
000007F8000000
000007F003FC00
00000FF007FC00
00000FE007FC00
00001FC00FFC00
00001FC01FFC00
00003F801FFC00
00003F803FFC00
00007F007FFC00
00007F00FFFC00
0000FE00FFFC00
0001FE01FFFC00
0001FC03FBFC00
0003FC03F3FC00
0003F807E3FC00
0007F00FE3FC00
0007F01FC3FC00
000FE01F83FC00
000FE03F03FC00
001FC07F03FC00
001FC07FFFFF80
000780FFFFFF80
000180FFFFFF80
000000FFFFFF80
000000FFFFFF80
000000FFFFFF80
000000FFFFFF80
0000000003FC00
0000000003FC00
0000000003FC00
0000000003FC00
0000000003FC00
0000000003FC00
ENDCHAR
STARTCHAR onehalf
ENCODING 189
SWIDTH 600 0
DWIDTH 54 0
BBX 51 64 1 0
BITMAP
00060000000000
003E0000000000
01FE0000000000
0FFE0000000000
FFFE0000000000
FFFE0000000000
FFFE0000000000
FFFE0000000000
FFFE0000000000
F0FE0000000000
00FE0001000000
00FE0003C00000
00FE0003F00000
00FE0007F80000
00FE0007F00000
00FE000FF00000
00FE000FE00000
00FE001FC00000
00FE001FC00000
00FE003F800000
00FE003F800000
00FE007F000000
00FE00FF000000
00FE00FE000000
00FE01FE000000
00FE01FC000000
00FE03FC000000
00FE03F8000000
00FE07F0000000
00FE07F0000000
00FE0FE0000000
00000FE0000000
00001FC07FF000
00003FC1FFFC00
00003F83FFFF00
00007F87FFFF00
00007F0FFFFF80
0000FF0FFFFFC0
0000FE1FF07FC0
0001FC1FE03FC0
0001FC1FC01FC0
0003F83FC01FC0
0003F83FC01FC0
0007F000003FC0
0007F000003FC0
000FE000007F80
001FE00000FF80
001FC00001FF00
003FC00003FE00
003F800007FC00
007F00000FF800
007F00001FF000
001E00003FE000
000600007FC000
00000000FF8000
00000001FE0000
00000003FC0000
0000000FF80000
0000001FFFFFE0
0000001FFFFFE0
0000001FFFFFE0
0000001FFFFFE0
0000001FFFFFE0
0000001FFFFFE0
ENDCHAR
STARTCHAR threequarters
ENCODING 190
SWIDTH 600 0
DWIDTH 54 0
BBX 51 65 2 0
BITMAP
007C0000000000
03FFC000000000
0FFFF000000000
3FFFF800000000
7FFFFC00000000
7FFFFE00000000
FFC3FE00000000
FF01FF00000000
FE00FF00000000
0000FF00000000
0000FF00000000
0000FE000C0000
0001FE000E0000
000FFC001F8000
00FFF8001FC000
00FFF0003F8000
00FFF0003F8000
00FFFC007F0000
00FFFE00FF0000
0001FE00FE0000
0000FF01FE0000
00007F01FC0000
00007F03F80000
FE007F03F80000
FE00FF07F00000
FF00FF07F00000
FFE7FF0FE00000
7FFFFE0FE00000
7FFFFC1FC00000
3FFFF83FC00000
0FFFF03F800000
03FFC07F800000
0000007F000000
000000FE00FE00
000000FE01FE00
000001FC03FE00
000001FC03FE00
000003F807FE00
000003F80FFE00
000007F00FFE00
00000FF01FFE00
00000FE03FFE00
00001FE07FFE00
00001FC07FFE00
00003F80FEFE00
00003F81FCFE00
00007F01F8FE00
00007F03F0FE00
0000FE07F0FE00
0000FE07E0FE00
0001FC0FC0FE00
0003FC1F80FE00
0001F83FFFFFE0
0000783FFFFFE0
0000307FFFFFE0
0000003FFFFFE0
0000003FFFFFE0
0000003FFFFFE0
0000003FFFFFE0
0000000000FE00
0000000000FE00
0000000000FE00
0000000000FE00
0000000000FE00
0000000000FE00
ENDCHAR
STARTCHAR questiondown
ENCODING 191
SWIDTH 600 0
DWIDTH 54 0
BBX 38 66 9 -18
BITMAP
00007C0000
0001FF0000
0001FF0000
0003FF8000
0003FF8000
0003FF8000
0003FF8000
0003FF8000
0003FF0000
0001FF0000
00007C0000
0000000000
0000000000
0000000000
0000000000
0000000000
0000000000
0000000000
0000000000
0001FF0000
0001FF0000
0001FF0000
0003FF0000
0003FF0000
0003FF0000
0003FF0000
0007FF0000
0007FF0000
000FFF0000
001FFE0000
003FFC0000
007FFC0000
00FFF80000
01FFF00000
03FFE00000
07FFC00000
0FFF800000
0FFF000000
1FFE000000
3FFC000000
3FFC000000
7FF8000000
7FF0000000
7FF0000000
FFE0000000
FFE0000000
FFE0000000
FFC0000000
FFC0000000
FFC0001FFC
FFC0001FFC
FFE0001FFC
FFE0001FF8
FFE0003FF8
FFF0003FF8
7FF8007FF8
7FFC01FFF0
3FFFFFFFF0
3FFFFFFFE0
1FFFFFFFC0
0FFFFFFFC0
07FFFFFF80
03FFFFFE00
01FFFFFC00
003FFFF000
0007FF0000
ENDCHAR
STARTCHAR Agrave
ENCODING 192
SWIDTH 600 0
DWIDTH 54 0
BBX 51 81 2 0
BITMAP
003FFE00000000
000FFE00000000
0007FF00000000
0003FF80000000
0001FF80000000
0000FFC0000000
00007FE0000000
00007FE0000000
00003FF0000000
00001FF0000000
00000FF8000000
000007FC000000
00000000000000
00000000000000
00000000000000
00000000000000
000007FE000000
000007FE000000
00000FFE000000
00000FFE000000
00000FFF000000
00001FFF000000
00001FFF000000
00001FFF800000
00003FFF800000
00003FFF800000
00003FFFC00000
00007FFFC00000
00007FFFC00000
00007FFFE00000
0000FFFFE00000
0000FFFFE00000
0000FFBFF00000
0001FFBFF00000
0001FF9FF00000
0001FF9FF00000
0003FF1FF80000
0003FF1FF80000
0003FF0FF80000
0003FE0FFC0000
0007FE0FFC0000
0007FE07FC0000
0007FE07FE0000
000FFC07FE0000
000FFC07FE0000
000FFC03FF0000
001FF803FF0000
001FF803FF0000
001FF801FF8000
003FF001FF8000
003FF001FF8000
003FF001FF8000
007FF000FFC000
007FE000FFC000
007FE000FFC000
00FFE0007FE000
00FFC0007FE000
00FFFFFFFFE000
01FFFFFFFFF000
01FFFFFFFFF000
01FFFFFFFFF000
01FFFFFFFFF800
03FFFFFFFFF800
03FFFFFFFFF800
03FFFFFFFFFC00
07FFFFFFFFFC00
07FE00000FFC00
07FE00000FFE00
0FFE00000FFE00
0FFC000007FE00
0FFC000007FE00
1FFC000007FF00
1FFC000003FF00
1FF8000003FF00
3FF8000003FF80
3FF8000003FF80
3FF0000001FF80
7FF0000001FFC0
7FF0000001FFC0
7FF0000001FFC0
FFE0000000FFE0
ENDCHAR
STARTCHAR Aacute
ENCODING 193
SWIDTH 600 0
DWIDTH 54 0
BBX 51 81 2 0
BITMAP
00000007FF8000
0000000FFF0000
0000000FFE0000
0000001FFC0000
0000003FF80000
0000003FF00000
0000007FE00000
000000FFC00000
000000FF800000
000001FF000000
000003FE000000
000007FC000000
00000000000000
00000000000000
00000000000000
00000000000000
000007FE000000
000007FE000000
00000FFE000000
00000FFE000000
00000FFF000000
00001FFF000000
00001FFF000000
00001FFF800000
00003FFF800000
00003FFF800000
00003FFFC00000
00007FFFC00000
00007FFFC00000
00007FFFE00000
0000FFFFE00000
0000FFFFE00000
0000FFBFF00000
0001FFBFF00000
0001FF9FF00000
0001FF9FF00000
0003FF1FF80000
0003FF1FF80000
0003FF0FF80000
0003FE0FFC0000
0007FE0FFC0000
0007FE07FC0000
0007FE07FE0000
000FFC07FE0000
000FFC07FE0000
000FFC03FF0000
001FF803FF0000
001FF803FF0000
001FF801FF8000
003FF001FF8000
003FF001FF8000
003FF001FF8000
007FF000FFC000
007FE000FFC000
007FE000FFC000
00FFE0007FE000
00FFC0007FE000
00FFFFFFFFE000
01FFFFFFFFF000
01FFFFFFFFF000
01FFFFFFFFF000
01FFFFFFFFF800
03FFFFFFFFF800
03FFFFFFFFF800
03FFFFFFFFFC00
07FFFFFFFFFC00
07FE00000FFC00
07FE00000FFE00
0FFE00000FFE00
0FFC000007FE00
0FFC000007FE00
1FFC000007FF00
1FFC000003FF00
1FF8000003FF00
3FF8000003FF80
3FF8000003FF80
3FF0000001FF80
7FF0000001FFC0
7FF0000001FFC0
7FF0000001FFC0
FFE0000000FFE0
ENDCHAR
STARTCHAR Acircumflex
ENCODING 194
SWIDTH 600 0
DWIDTH 54 0
BBX 51 82 2 0
BITMAP
000003F8000000
000007FC000000
00000FFF000000
00001FFF800000
00003FFFC00000
00007FFFE00000
0001FFBFF00000
0003FF1FF80000
0007FE07FC0000
000FFC03FE0000
001FF801FF0000
001FF000FF8000
00000000000000
00000000000000
00000000000000
00000000000000
00000000000000
000007FE000000
000007FE000000
00000FFE000000
00000FFE000000
00000FFF000000
00001FFF000000
00001FFF000000
00001FFF800000
00003FFF800000
00003FFF800000
00003FFFC00000
00007FFFC00000
00007FFFC00000
00007FFFE00000
0000FFFFE00000
0000FFFFE00000
0000FFBFF00000
0001FFBFF00000
0001FF9FF00000
0001FF9FF00000
0003FF1FF80000
0003FF1FF80000
0003FF0FF80000
0003FE0FFC0000
0007FE0FFC0000
0007FE07FC0000
0007FE07FE0000
000FFC07FE0000
000FFC07FE0000
000FFC03FF0000
001FF803FF0000
001FF803FF0000
001FF801FF8000
003FF001FF8000
003FF001FF8000
003FF001FF8000
007FF000FFC000
007FE000FFC000
007FE000FFC000
00FFE0007FE000
00FFC0007FE000
00FFFFFFFFE000
01FFFFFFFFF000
01FFFFFFFFF000
01FFFFFFFFF000
01FFFFFFFFF800
03FFFFFFFFF800
03FFFFFFFFF800
03FFFFFFFFFC00
07FFFFFFFFFC00
07FE00000FFC00
07FE00000FFE00
0FFE00000FFE00
0FFC000007FE00
0FFC000007FE00
1FFC000007FF00
1FFC000003FF00
1FF8000003FF00
3FF8000003FF80
3FF8000003FF80
3FF0000001FF80
7FF0000001FFC0
7FF0000001FFC0
7FF0000001FFC0
FFE0000000FFE0
ENDCHAR
STARTCHAR Atilde
ENCODING 195
SWIDTH 600 0
DWIDTH 54 0
BBX 51 83 2 0
BITMAP
00000000080000
0000FC000F0000
0001FF801F8000
0007FFE01F8000
000FFFF83F8000
000FFFFFFF8000
001FFFFFFF0000
001FFFFFFF0000
003FC3FFFE0000
003F80FFFC0000
003F003FF80000
003F0007E00000
00010000000000
00000000000000
00000000000000
00000000000000
00000000000000
00000000000000
000007FE000000
000007FE000000
00000FFE000000
00000FFE000000
00000FFF000000
00001FFF000000
00001FFF000000
00001FFF800000
00003FFF800000
00003FFF800000
00003FFFC00000
00007FFFC00000
00007FFFC00000
00007FFFE00000
0000FFFFE00000
0000FFFFE00000
0000FFBFF00000
0001FFBFF00000
0001FF9FF00000
0001FF9FF00000
0003FF1FF80000
0003FF1FF80000
0003FF0FF80000
0003FE0FFC0000
0007FE0FFC0000
0007FE07FC0000
0007FE07FE0000
000FFC07FE0000
000FFC07FE0000
000FFC03FF0000
001FF803FF0000
001FF803FF0000
001FF801FF8000
003FF001FF8000
003FF001FF8000
003FF001FF8000
007FF000FFC000
007FE000FFC000
007FE000FFC000
00FFE0007FE000
00FFC0007FE000
00FFFFFFFFE000
01FFFFFFFFF000
01FFFFFFFFF000
01FFFFFFFFF000
01FFFFFFFFF800
03FFFFFFFFF800
03FFFFFFFFF800
03FFFFFFFFFC00
07FFFFFFFFFC00
07FE00000FFC00
07FE00000FFE00
0FFE00000FFE00
0FFC000007FE00
0FFC000007FE00
1FFC000007FF00
1FFC000003FF00
1FF8000003FF00
3FF8000003FF80
3FF8000003FF80
3FF0000001FF80
7FF0000001FFC0
7FF0000001FFC0
7FF0000001FFC0
FFE0000000FFE0
ENDCHAR
STARTCHAR Adieresis
ENCODING 196
SWIDTH 600 0
DWIDTH 54 0
BBX 51 81 2 0
BITMAP
0007C0007C0000
001FF001FF0000
001FF001FF0000
003FF803FF8000
003FF803FF8000
003FF803FF8000
003FF803FF8000
001FF001FF0000
001FF001FF0000
0007C0007C0000
00000000000000
00000000000000
00000000000000
00000000000000
00000000000000
00000000000000
000007FE000000
000007FE000000
00000FFE000000
00000FFE000000
00000FFF000000
00001FFF000000
00001FFF000000
00001FFF800000
00003FFF800000
00003FFF800000
00003FFFC00000
00007FFFC00000
00007FFFC00000
00007FFFE00000
0000FFFFE00000
0000FFFFE00000
0000FFBFF00000
0001FFBFF00000
0001FF9FF00000
0001FF9FF00000
0003FF1FF80000
0003FF1FF80000
0003FF0FF80000
0003FE0FFC0000
0007FE0FFC0000
0007FE07FC0000
0007FE07FE0000
000FFC07FE0000
000FFC07FE0000
000FFC03FF0000
001FF803FF0000
001FF803FF0000
001FF801FF8000
003FF001FF8000
003FF001FF8000
003FF001FF8000
007FF000FFC000
007FE000FFC000
007FE000FFC000
00FFE0007FE000
00FFC0007FE000
00FFFFFFFFE000
01FFFFFFFFF000
01FFFFFFFFF000
01FFFFFFFFF000
01FFFFFFFFF800
03FFFFFFFFF800
03FFFFFFFFF800
03FFFFFFFFFC00
07FFFFFFFFFC00
07FE00000FFC00
07FE00000FFE00
0FFE00000FFE00
0FFC000007FE00
0FFC000007FE00
1FFC000007FF00
1FFC000003FF00
1FF8000003FF00
3FF8000003FF80
3FF8000003FF80
3FF0000001FF80
7FF0000001FFC0
7FF0000001FFC0
7FF0000001FFC0
FFE0000000FFE0
ENDCHAR
STARTCHAR Aring
ENCODING 197
SWIDTH 600 0
DWIDTH 54 0
BBX 51 86 2 0
BITMAP
000001F8000000
00000FFE000000
00001FFF000000
00003FFF800000
00003F0FC00000
00007C07C00000
00007C03E00000
00007803E00000
0000F803E00000
0000F803E00000
00007C03E00000
00007C07C00000
00007F0FC00000
00003FFF800000
00001FFF000000
00000FFE000000
000001F8000000
00000000000000
00000000000000
00000000000000
00000000000000
000007FE000000
000007FE000000
00000FFE000000
00000FFE000000
00000FFF000000
00001FFF000000
00001FFF000000
00001FFF800000
00003FFF800000
00003FFF800000
00003FFFC00000
00007FFFC00000
00007FFFC00000
00007FFFE00000
0000FFFFE00000
0000FFFFE00000
0000FFBFF00000
0001FFBFF00000
0001FF9FF00000
0001FF9FF00000
0003FF1FF80000
0003FF1FF80000
0003FF0FF80000
0003FE0FFC0000
0007FE0FFC0000
0007FE07FC0000
0007FE07FE0000
000FFC07FE0000
000FFC07FE0000
000FFC03FF0000
001FF803FF0000
001FF803FF0000
001FF801FF8000
003FF001FF8000
003FF001FF8000
003FF001FF8000
007FF000FFC000
007FE000FFC000
007FE000FFC000
00FFE0007FE000
00FFC0007FE000
00FFFFFFFFE000
01FFFFFFFFF000
01FFFFFFFFF000
01FFFFFFFFF000
01FFFFFFFFF800
03FFFFFFFFF800
03FFFFFFFFF800
03FFFFFFFFFC00
07FFFFFFFFFC00
07FE00000FFC00
07FE00000FFE00
0FFE00000FFE00
0FFC000007FE00
0FFC000007FE00
1FFC000007FF00
1FFC000003FF00
1FF8000003FF00
3FF8000003FF80
3FF8000003FF80
3FF0000001FF80
7FF0000001FFC0
7FF0000001FFC0
7FF0000001FFC0
FFE0000000FFE0
ENDCHAR
STARTCHAR AE
ENCODING 198
SWIDTH 600 0
DWIDTH 54 0
BBX 50 65 2 0
BITMAP
000003FFFFFF80
000003FFFFFF80
000003FFFFFF80
000007FFFFFF80
000007FFFFFF80
000007FFFFFF80
00000FFFFFFF80
00000FFFFFFF80
00000FFFFFFF80
00001FFFF80000
00001FFFF80000
00003FFFF80000
00003FFFF80000
00003FDFF80000
00007FDFF80000
00007FDFF80000
00007FDFF80000
0000FF9FF80000
0000FF9FF80000
0000FF9FF80000
0001FF1FF80000
0001FF1FF80000
0001FF1FF80000
0003FE1FF80000
0003FE1FF80000
0003FE1FF80000
0007FE1FF80000
0007FC1FFFFF00
000FFC1FFFFF00
000FFC1FFFFF00
000FF81FFFFF00
001FF81FFFFF00
001FF81FFFFF00
001FF01FFFFF00
003FF01FFFFF00
003FF01FFFFF00
003FF01FF80000
007FE01FF80000
007FE01FF80000
007FE01FF80000
00FFC01FF80000
00FFFFFFF80000
00FFFFFFF80000
01FFFFFFF80000
01FFFFFFF80000
03FFFFFFF80000
03FFFFFFF80000
03FFFFFFF80000
07FFFFFFF80000
07FFFFFFF80000
07FE001FF80000
0FFE001FF80000
0FFC001FF80000
0FFC001FF80000
1FFC001FF80000
1FFC001FF80000
1FF8001FFFFFC0
3FF8001FFFFFC0
3FF8001FFFFFC0
3FF0001FFFFFC0
7FF0001FFFFFC0
7FF0001FFFFFC0
FFE0001FFFFFC0
FFE0001FFFFFC0
FFE0001FFFFFC0
ENDCHAR
STARTCHAR Ccedilla
ENCODING 199
SWIDTH 600 0
DWIDTH 54 0
BBX 46 85 4 -19
BITMAP
00003FF80000
0001FFFF0000
0007FFFFE000
001FFFFFF000
003FFFFFFC00
007FFFFFFE00
00FFFFFFFF00
01FFFFFFFF80
03FFFFFFFF80
07FFE00FFFC0
07FF8003FFE0
0FFF0001FFE0
0FFE0000FFF0
1FFC00007FF0
1FFC00007FF0
3FF800003FF8
3FF800003FF8
3FF000001FF8
7FF000001FF8
7FF000001FF8
7FE000001FFC
7FE000000000
FFE000000000
FFE000000000
FFE000000000
FFE000000000
FFE000000000
FFE000000000
FFE000000000
FFE000000000
FFE000000000
FFE000000000
FFE000000000
FFE000000000
FFE000000000
FFE000000000
FFE000000000
FFE000000000
FFE000000000
FFE000000000
FFE000000000
FFE000000000
FFE000000000
FFE000000000
FFE000000000
7FE000000000
7FE000001FFC
7FF000001FFC
7FF000001FF8
3FF000001FF8
3FF800003FF8
3FF800003FF8
1FF800003FF0
1FFC00007FF0
1FFE0000FFF0
0FFF0001FFE0
07FF8003FFE0
07FFC007FFC0
03FFFFFFFF80
01FFFFFFFF80
00FFFFFFFF00
007FFFFFFE00
003FFFFFF800
001FFFFFF000
0007FFFFC000
0001FFFF0000
00003FF00000
00001FE00000
00001FFC0000
00003FFE0000
00003FFF0000
000003FF0000
000000FF8000
0000007F8000
0000007F8000
0000007F8000
000000FF8000
000000FF8000
000003FF8000
00001FFF0000
00001FFE0000
00001FFC0000
00001FF80000
00001FE00000
00001F000000
ENDCHAR
STARTCHAR Egrave
ENCODING 200
SWIDTH 600 0
DWIDTH 54 0
BBX 42 81 7 0
BITMAP
03FFC0000000
01FFE0000000
00FFE0000000
007FF0000000
003FF0000000
001FF8000000
000FFC000000
0007FC000000
0003FE000000
0001FF000000
0000FF000000
0000FF800000
000000000000
000000000000
000000000000
000000000000
FFFFFFFFFF80
FFFFFFFFFF80
FFFFFFFFFF80
FFFFFFFFFF80
FFFFFFFFFF80
FFFFFFFFFF80
FFFFFFFFFF80
FFFFFFFFFF80
FFFFFFFFFF80
FFE000000000
FFE000000000
FFE000000000
FFE000000000
FFE000000000
FFE000000000
FFE000000000
FFE000000000
FFE000000000
FFE000000000
FFE000000000
FFE000000000
FFE000000000
FFE000000000
FFE000000000
FFE000000000
FFE000000000
FFE000000000
FFFFFFFFF800
FFFFFFFFF800
FFFFFFFFF800
FFFFFFFFF800
FFFFFFFFF800
FFFFFFFFF800
FFFFFFFFF800
FFFFFFFFF800
FFFFFFFFF800
FFE000000000
FFE000000000
FFE000000000
FFE000000000
FFE000000000
FFE000000000
FFE000000000
FFE000000000
FFE000000000
FFE000000000
FFE000000000
FFE000000000
FFE000000000
FFE000000000
FFE000000000
FFE000000000
FFE000000000
FFE000000000
FFE000000000
FFE000000000
FFFFFFFFFFC0
FFFFFFFFFFC0
FFFFFFFFFFC0
FFFFFFFFFFC0
FFFFFFFFFFC0
FFFFFFFFFFC0
FFFFFFFFFFC0
FFFFFFFFFFC0
FFFFFFFFFFC0
ENDCHAR
STARTCHAR Eacute
ENCODING 201
SWIDTH 600 0
DWIDTH 54 0
BBX 42 81 7 0
BITMAP
000000FFF800
000001FFE000
000001FFC000
000003FF8000
000007FF0000
000007FE0000
00000FFC0000
00001FF80000
00001FF00000
00003FE00000
00007FC00000
0000FF800000
000000000000
000000000000
000000000000
000000000000
FFFFFFFFFF80
FFFFFFFFFF80
FFFFFFFFFF80
FFFFFFFFFF80
FFFFFFFFFF80
FFFFFFFFFF80
FFFFFFFFFF80
FFFFFFFFFF80
FFFFFFFFFF80
FFE000000000
FFE000000000
FFE000000000
FFE000000000
FFE000000000
FFE000000000
FFE000000000
FFE000000000
FFE000000000
FFE000000000
FFE000000000
FFE000000000
FFE000000000
FFE000000000
FFE000000000
FFE000000000
FFE000000000
FFE000000000
FFFFFFFFF800
FFFFFFFFF800
FFFFFFFFF800
FFFFFFFFF800
FFFFFFFFF800
FFFFFFFFF800
FFFFFFFFF800
FFFFFFFFF800
FFFFFFFFF800
FFE000000000
FFE000000000
FFE000000000
FFE000000000
FFE000000000
FFE000000000
FFE000000000
FFE000000000
FFE000000000
FFE000000000
FFE000000000
FFE000000000
FFE000000000
FFE000000000
FFE000000000
FFE000000000
FFE000000000
FFE000000000
FFE000000000
FFE000000000
FFFFFFFFFFC0
FFFFFFFFFFC0
FFFFFFFFFFC0
FFFFFFFFFFC0
FFFFFFFFFFC0
FFFFFFFFFFC0
FFFFFFFFFFC0
FFFFFFFFFFC0
FFFFFFFFFFC0
ENDCHAR
STARTCHAR Ecircumflex
ENCODING 202
SWIDTH 600 0
DWIDTH 54 0
BBX 42 82 7 0
BITMAP
00007F800000
0000FFC00000
0001FFE00000
0003FFF00000
0007FFF80000
000FFFFC0000
001FF3FE0000
003FE1FF0000
00FFC0FF8000
01FF807FE000
03FF003FF000
03FE001FF000
000000000000
000000000000
000000000000
000000000000
000000000000
FFFFFFFFFF80
FFFFFFFFFF80
FFFFFFFFFF80
FFFFFFFFFF80
FFFFFFFFFF80
FFFFFFFFFF80
FFFFFFFFFF80
FFFFFFFFFF80
FFFFFFFFFF80
FFE000000000
FFE000000000
FFE000000000
FFE000000000
FFE000000000
FFE000000000
FFE000000000
FFE000000000
FFE000000000
FFE000000000
FFE000000000
FFE000000000
FFE000000000
FFE000000000
FFE000000000
FFE000000000
FFE000000000
FFE000000000
FFFFFFFFF800
FFFFFFFFF800
FFFFFFFFF800
FFFFFFFFF800
FFFFFFFFF800
FFFFFFFFF800
FFFFFFFFF800
FFFFFFFFF800
FFFFFFFFF800
FFE000000000
FFE000000000
FFE000000000
FFE000000000
FFE000000000
FFE000000000
FFE000000000
FFE000000000
FFE000000000
FFE000000000
FFE000000000
FFE000000000
FFE000000000
FFE000000000
FFE000000000
FFE000000000
FFE000000000
FFE000000000
FFE000000000
FFE000000000
FFFFFFFFFFC0
FFFFFFFFFFC0
FFFFFFFFFFC0
FFFFFFFFFFC0
FFFFFFFFFFC0
FFFFFFFFFFC0
FFFFFFFFFFC0
FFFFFFFFFFC0
FFFFFFFFFFC0
ENDCHAR
STARTCHAR Edieresis
ENCODING 203
SWIDTH 600 0
DWIDTH 54 0
BBX 42 81 7 0
BITMAP
00F8000F8000
01FE001FE000
03FF003FF000
07FF007FF000
07FF007FF000
07FF007FF000
07FF007FF000
03FF003FF000
01FE001FE000
00F8000F8000
000000000000
000000000000
000000000000
000000000000
000000000000
000000000000
FFFFFFFFFF80
FFFFFFFFFF80
FFFFFFFFFF80
FFFFFFFFFF80
FFFFFFFFFF80
FFFFFFFFFF80
FFFFFFFFFF80
FFFFFFFFFF80
FFFFFFFFFF80
FFE000000000
FFE000000000
FFE000000000
FFE000000000
FFE000000000
FFE000000000
FFE000000000
FFE000000000
FFE000000000
FFE000000000
FFE000000000
FFE000000000
FFE000000000
FFE000000000
FFE000000000
FFE000000000
FFE000000000
FFE000000000
FFFFFFFFF800
FFFFFFFFF800
FFFFFFFFF800
FFFFFFFFF800
FFFFFFFFF800
FFFFFFFFF800
FFFFFFFFF800
FFFFFFFFF800
FFFFFFFFF800
FFE000000000
FFE000000000
FFE000000000
FFE000000000
FFE000000000
FFE000000000
FFE000000000
FFE000000000
FFE000000000
FFE000000000
FFE000000000
FFE000000000
FFE000000000
FFE000000000
FFE000000000
FFE000000000
FFE000000000
FFE000000000
FFE000000000
FFE000000000
FFFFFFFFFFC0
FFFFFFFFFFC0
FFFFFFFFFFC0
FFFFFFFFFFC0
FFFFFFFFFFC0
FFFFFFFFFFC0
FFFFFFFFFFC0
FFFFFFFFFFC0
FFFFFFFFFFC0
ENDCHAR
STARTCHAR Igrave
ENCODING 204
SWIDTH 600 0
DWIDTH 54 0
BBX 38 81 8 0
BITMAP
3FFC000000
0FFE000000
0FFF000000
07FF000000
03FF800000
01FFC00000
00FFC00000
007FE00000
003FF00000
001FF00000
000FF80000
0007FC0000
0000000000
0000000000
0000000000
0000000000
FFFFFFFFFC
FFFFFFFFFC
FFFFFFFFFC
FFFFFFFFFC
FFFFFFFFFC
FFFFFFFFFC
FFFFFFFFFC
FFFFFFFFFC
FFFFFFFFFC
0007FF0000
0007FF0000
0007FF0000
0007FF0000
0007FF0000
0007FF0000
0007FF0000
0007FF0000
0007FF0000
0007FF0000
0007FF0000
0007FF0000
0007FF0000
0007FF0000
0007FF0000
0007FF0000
0007FF0000
0007FF0000
0007FF0000
0007FF0000
0007FF0000
0007FF0000
0007FF0000
0007FF0000
0007FF0000
0007FF0000
0007FF0000
0007FF0000
0007FF0000
0007FF0000
0007FF0000
0007FF0000
0007FF0000
0007FF0000
0007FF0000
0007FF0000
0007FF0000
0007FF0000
0007FF0000
0007FF0000
0007FF0000
0007FF0000
0007FF0000
0007FF0000
0007FF0000
0007FF0000
0007FF0000
FFFFFFFFFC
FFFFFFFFFC
FFFFFFFFFC
FFFFFFFFFC
FFFFFFFFFC
FFFFFFFFFC
FFFFFFFFFC
FFFFFFFFFC
FFFFFFFFFC
ENDCHAR
STARTCHAR Iacute
ENCODING 205
SWIDTH 600 0
DWIDTH 54 0
BBX 38 81 8 0
BITMAP
000007FF80
00000FFF00
00001FFE00
00001FFC00
00003FF800
00007FF000
00007FE000
0000FF8000
0001FF0000
0001FE0000
0003FC0000
0007F80000
0000000000
0000000000
0000000000
0000000000
FFFFFFFFFC
FFFFFFFFFC
FFFFFFFFFC
FFFFFFFFFC
FFFFFFFFFC
FFFFFFFFFC
FFFFFFFFFC
FFFFFFFFFC
FFFFFFFFFC
0007FF0000
0007FF0000
0007FF0000
0007FF0000
0007FF0000
0007FF0000
0007FF0000
0007FF0000
0007FF0000
0007FF0000
0007FF0000
0007FF0000
0007FF0000
0007FF0000
0007FF0000
0007FF0000
0007FF0000
0007FF0000
0007FF0000
0007FF0000
0007FF0000
0007FF0000
0007FF0000
0007FF0000
0007FF0000
0007FF0000
0007FF0000
0007FF0000
0007FF0000
0007FF0000
0007FF0000
0007FF0000
0007FF0000
0007FF0000
0007FF0000
0007FF0000
0007FF0000
0007FF0000
0007FF0000
0007FF0000
0007FF0000
0007FF0000
0007FF0000
0007FF0000
0007FF0000
0007FF0000
0007FF0000
FFFFFFFFFC
FFFFFFFFFC
FFFFFFFFFC
FFFFFFFFFC
FFFFFFFFFC
FFFFFFFFFC
FFFFFFFFFC
FFFFFFFFFC
FFFFFFFFFC
ENDCHAR
STARTCHAR Icircumflex
ENCODING 206
SWIDTH 600 0
DWIDTH 54 0
BBX 38 82 8 0
BITMAP
0003F80000
0007FC0000
000FFE0000
001FFF0000
007FFFC000
00FFFFE000
01FFBFF000
03FF1FF800
07FE0FFC00
0FFC07FE00
1FF803FF00
1FE000FF80
0000000000
0000000000
0000000000
0000000000
0000000000
FFFFFFFFFC
FFFFFFFFFC
FFFFFFFFFC
FFFFFFFFFC
FFFFFFFFFC
FFFFFFFFFC
FFFFFFFFFC
FFFFFFFFFC
FFFFFFFFFC
0007FF0000
0007FF0000
0007FF0000
0007FF0000
0007FF0000
0007FF0000
0007FF0000
0007FF0000
0007FF0000
0007FF0000
0007FF0000
0007FF0000
0007FF0000
0007FF0000
0007FF0000
0007FF0000
0007FF0000
0007FF0000
0007FF0000
0007FF0000
0007FF0000
0007FF0000
0007FF0000
0007FF0000
0007FF0000
0007FF0000
0007FF0000
0007FF0000
0007FF0000
0007FF0000
0007FF0000
0007FF0000
0007FF0000
0007FF0000
0007FF0000
0007FF0000
0007FF0000
0007FF0000
0007FF0000
0007FF0000
0007FF0000
0007FF0000
0007FF0000
0007FF0000
0007FF0000
0007FF0000
0007FF0000
FFFFFFFFFC
FFFFFFFFFC
FFFFFFFFFC
FFFFFFFFFC
FFFFFFFFFC
FFFFFFFFFC
FFFFFFFFFC
FFFFFFFFFC
FFFFFFFFFC
ENDCHAR
STARTCHAR Idieresis
ENCODING 207
SWIDTH 600 0
DWIDTH 54 0
BBX 38 81 8 0
BITMAP
07C0007C00
1FE001FE00
3FF003FF00
3FF803FF80
3FF803FF80
3FF803FF80
3FF803FF80
3FF003FF00
1FF001FE00
07C0007C00
0000000000
0000000000
0000000000
0000000000
0000000000
0000000000
FFFFFFFFFC
FFFFFFFFFC
FFFFFFFFFC
FFFFFFFFFC
FFFFFFFFFC
FFFFFFFFFC
FFFFFFFFFC
FFFFFFFFFC
FFFFFFFFFC
0007FF0000
0007FF0000
0007FF0000
0007FF0000
0007FF0000
0007FF0000
0007FF0000
0007FF0000
0007FF0000
0007FF0000
0007FF0000
0007FF0000
0007FF0000
0007FF0000
0007FF0000
0007FF0000
0007FF0000
0007FF0000
0007FF0000
0007FF0000
0007FF0000
0007FF0000
0007FF0000
0007FF0000
0007FF0000
0007FF0000
0007FF0000
0007FF0000
0007FF0000
0007FF0000
0007FF0000
0007FF0000
0007FF0000
0007FF0000
0007FF0000
0007FF0000
0007FF0000
0007FF0000
0007FF0000
0007FF0000
0007FF0000
0007FF0000
0007FF0000
0007FF0000
0007FF0000
0007FF0000
0007FF0000
FFFFFFFFFC
FFFFFFFFFC
FFFFFFFFFC
FFFFFFFFFC
FFFFFFFFFC
FFFFFFFFFC
FFFFFFFFFC
FFFFFFFFFC
FFFFFFFFFC
ENDCHAR
STARTCHAR Eth
ENCODING 208
SWIDTH 614 0
DWIDTH 55 0
BBX 53 65 -2 0
BITMAP
007FFFFE000000
007FFFFFE00000
007FFFFFFC0000
007FFFFFFF0000
007FFFFFFF8000
007FFFFFFFE000
007FFFFFFFF000
007FFFFFFFF800
007FFFFFFFFC00
007FF001FFFE00
007FF0007FFF00
007FF0001FFF00
007FF0000FFF80
007FF00007FF80
007FF00003FFC0
007FF00001FFC0
007FF00000FFE0
007FF00000FFE0
007FF000007FF0
007FF000007FF0
007FF000007FF0
007FF000003FF0
007FF000003FF8
007FF000003FF8
007FF000003FF8
007FF000003FF8
007FF000003FF8
007FF000001FF8
FFFFFFFC001FF8
FFFFFFFC001FF8
FFFFFFFC001FF8
FFFFFFFC001FF8
FFFFFFFC001FF8
FFFFFFFC001FF8
FFFFFFFC001FF8
FFFFFFFC001FF8
007FF000001FF8
007FF000001FF8
007FF000003FF8
007FF000003FF8
007FF000003FF8
007FF000003FF8
007FF000003FF8
007FF000003FF0
007FF000007FF0
007FF000007FF0
007FF000007FF0
007FF00000FFE0
007FF00000FFE0
007FF00001FFC0
007FF00003FFC0
007FF00007FF80
007FF00007FF80
007FF0001FFF00
007FF0003FFF00
007FF001FFFE00
007FFFFFFFFC00
007FFFFFFFF800
007FFFFFFFF000
007FFFFFFFE000
007FFFFFFF8000
007FFFFFFF0000
007FFFFFFC0000
007FFFFFE00000
007FFFFE000000
ENDCHAR
STARTCHAR Ntilde
ENCODING 209
SWIDTH 600 0
DWIDTH 54 0
BBX 42 83 6 0
BITMAP
000000020000
001F8003E000
007FE003F000
00FFF807F000
01FFFF0FF000
03FFFFFFE000
03FFFFFFE000
07FFFFFFC000
07F07FFFC000
07E01FFF8000
07E007FF0000
07C001FC0000
004000000000
000000000000
000000000000
000000000000
000000000000
000000000000
FFE00001FFC0
FFE00001FFC0
FFF00001FFC0
FFF00001FFC0
FFF80001FFC0
FFF80001FFC0
FFF80001FFC0
FFFC0001FFC0
FFFC0001FFC0
FFFE0001FFC0
FFFE0001FFC0
FFFF0001FFC0
FFFF0001FFC0
FFFF8001FFC0
FFFF8001FFC0
FFFFC001FFC0
FFFFC001FFC0
FFFFE001FFC0
FFFFE001FFC0
FFFFE001FFC0
FFFFF001FFC0
FFDFF001FFC0
FFDFF801FFC0
FFCFF801FFC0
FFCFFC01FFC0
FFC7FC01FFC0
FFC7FE01FFC0
FFC3FE01FFC0
FFC3FF01FFC0
FFC1FF01FFC0
FFC1FF81FFC0
FFC0FF81FFC0
FFC0FFC1FFC0
FFC07FC1FFC0
FFC07FC1FFC0
FFC03FE1FFC0
FFC03FE1FFC0
FFC03FF1FFC0
FFC01FF1FFC0
FFC01FF9FFC0
FFC00FF9FFC0
FFC00FFDFFC0
FFC007FDFFC0
FFC007FFFFC0
FFC003FFFFC0
FFC003FFFFC0
FFC001FFFFC0
FFC001FFFFC0
FFC000FFFFC0
FFC000FFFFC0
FFC0007FFFC0
FFC0007FFFC0
FFC0007FFFC0
FFC0003FFFC0
FFC0003FFFC0
FFC0001FFFC0
FFC0001FFFC0
FFC0000FFFC0
FFC0000FFFC0
FFC00007FFC0
FFC00007FFC0
FFC00003FFC0
FFC00003FFC0
FFC00001FFC0
FFC00001FFC0
ENDCHAR
STARTCHAR Ograve
ENCODING 210
SWIDTH 600 0
DWIDTH 54 0
BBX 46 83 4 -1
BITMAP
00FFF0000000
003FF8000000
003FFC000000
001FFC000000
000FFE000000
0007FF000000
0003FF000000
0001FF800000
0000FFC00000
00007FC00000
00003FE00000
00001FF00000
000000000000
000000000000
000000000000
000000000000
00003FF00000
0001FFFE0000
0007FFFF8000
001FFFFFE000
003FFFFFF000
007FFFFFF800
00FFFFFFFC00
01FFFFFFFE00
03FFFFFFFF00
07FFC01FFF80
07FF8007FF80
0FFF0003FFC0
0FFE0001FFC0
1FFC0000FFE0
1FF80000FFE0
3FF800007FF0
3FF800007FF0
3FF000003FF0
7FF000003FF8
7FF000003FF8
7FE000003FF8
7FE000001FF8
7FE000001FF8
FFE000001FFC
FFE000001FFC
FFE000001FFC
FFE000001FFC
FFE000001FFC
FFE000001FFC
FFE000001FFC
FFE000001FFC
FFE000001FFC
FFE000001FFC
FFE000001FFC
FFE000001FFC
FFE000001FFC
FFE000001FFC
FFE000001FFC
FFE000001FFC
FFE000001FFC
FFE000001FFC
FFE000001FFC
FFE000001FFC
FFE000001FFC
FFE000001FF8
7FE000001FF8
7FE000003FF8
7FF000003FF8
7FF000003FF8
3FF000003FF0
3FF800007FF0
3FF800007FF0
1FF80000FFE0
1FFC0000FFE0
0FFE0001FFC0
0FFF0003FFC0
07FF8007FF80
07FFC01FFF80
03FFFFFFFF00
01FFFFFFFE00
00FFFFFFFC00
007FFFFFF800
003FFFFFF000
001FFFFFE000
0007FFFF8000
0001FFFE0000
00003FF00000
ENDCHAR
STARTCHAR Oacute
ENCODING 211
SWIDTH 600 0
DWIDTH 54 0
BBX 46 83 4 -1
BITMAP
0000001FFE00
0000003FFC00
0000007FF800
0000007FF000
000000FFE000
000001FFC000
000001FF0000
000003FE0000
000007FC0000
000007F80000
00000FF00000
00001FE00000
000000000000
000000000000
000000000000
000000000000
00003FF00000
0001FFFE0000
0007FFFF8000
001FFFFFE000
003FFFFFF000
007FFFFFF800
00FFFFFFFC00
01FFFFFFFE00
03FFFFFFFF00
07FFC01FFF80
07FF8007FF80
0FFF0003FFC0
0FFE0001FFC0
1FFC0000FFE0
1FF80000FFE0
3FF800007FF0
3FF800007FF0
3FF000003FF0
7FF000003FF8
7FF000003FF8
7FE000003FF8
7FE000001FF8
7FE000001FF8
FFE000001FFC
FFE000001FFC
FFE000001FFC
FFE000001FFC
FFE000001FFC
FFE000001FFC
FFE000001FFC
FFE000001FFC
FFE000001FFC
FFE000001FFC
FFE000001FFC
FFE000001FFC
FFE000001FFC
FFE000001FFC
FFE000001FFC
FFE000001FFC
FFE000001FFC
FFE000001FFC
FFE000001FFC
FFE000001FFC
FFE000001FFC
FFE000001FF8
7FE000001FF8
7FE000003FF8
7FF000003FF8
7FF000003FF8
3FF000003FF0
3FF800007FF0
3FF800007FF0
1FF80000FFE0
1FFC0000FFE0
0FFE0001FFC0
0FFF0003FFC0
07FF8007FF80
07FFC01FFF80
03FFFFFFFF00
01FFFFFFFE00
00FFFFFFFC00
007FFFFFF800
003FFFFFF000
001FFFFFE000
0007FFFF8000
0001FFFE0000
00003FF00000
ENDCHAR
STARTCHAR Ocircumflex
ENCODING 212
SWIDTH 600 0
DWIDTH 54 0
BBX 46 84 4 -1
BITMAP
00000FE00000
00001FF00000
00003FF80000
00007FFC0000
0001FFFF0000
0003FFFF8000
0007FEFFC000
000FFC7FE000
001FF83FF000
003FF01FF800
007FE00FFC00
007F8003FE00
000000000000
000000000000
000000000000
000000000000
000000000000
00003FF00000
0001FFFE0000
0007FFFF8000
001FFFFFE000
003FFFFFF000
007FFFFFF800
00FFFFFFFC00
01FFFFFFFE00
03FFFFFFFF00
07FFC01FFF80
07FF8007FF80
0FFF0003FFC0
0FFE0001FFC0
1FFC0000FFE0
1FF80000FFE0
3FF800007FF0
3FF800007FF0
3FF000003FF0
7FF000003FF8
7FF000003FF8
7FE000003FF8
7FE000001FF8
7FE000001FF8
FFE000001FFC
FFE000001FFC
FFE000001FFC
FFE000001FFC
FFE000001FFC
FFE000001FFC
FFE000001FFC
FFE000001FFC
FFE000001FFC
FFE000001FFC
FFE000001FFC
FFE000001FFC
FFE000001FFC
FFE000001FFC
FFE000001FFC
FFE000001FFC
FFE000001FFC
FFE000001FFC
FFE000001FFC
FFE000001FFC
FFE000001FFC
FFE000001FF8
7FE000001FF8
7FE000003FF8
7FF000003FF8
7FF000003FF8
3FF000003FF0
3FF800007FF0
3FF800007FF0
1FF80000FFE0
1FFC0000FFE0
0FFE0001FFC0
0FFF0003FFC0
07FF8007FF80
07FFC01FFF80
03FFFFFFFF00
01FFFFFFFE00
00FFFFFFFC00
007FFFFFF800
003FFFFFF000
001FFFFFE000
0007FFFF8000
0001FFFE0000
00003FF00000
ENDCHAR
STARTCHAR Otilde
ENCODING 213
SWIDTH 600 0
DWIDTH 54 0
BBX 46 85 4 -1
BITMAP
000000004000
0003F0007C00
000FFC007E00
001FFF007E00
003FFFE1FE00
007FFFFFFC00
007FFFFFFC00
00FFFFFFFC00
00FF0FFFF800
00FC03FFF000
00FC00FFE000
00F8003F8000
000400000000
000000000000
000000000000
000000000000
000000000000
000000000000
00003FF00000
0001FFFE0000
0007FFFF8000
001FFFFFE000
003FFFFFF000
007FFFFFF800
00FFFFFFFC00
01FFFFFFFE00
03FFFFFFFF00
07FFC01FFF80
07FF8007FF80
0FFF0003FFC0
0FFE0001FFC0
1FFC0000FFE0
1FF80000FFE0
3FF800007FF0
3FF800007FF0
3FF000003FF0
7FF000003FF8
7FF000003FF8
7FE000003FF8
7FE000001FF8
7FE000001FF8
FFE000001FFC
FFE000001FFC
FFE000001FFC
FFE000001FFC
FFE000001FFC
FFE000001FFC
FFE000001FFC
FFE000001FFC
FFE000001FFC
FFE000001FFC
FFE000001FFC
FFE000001FFC
FFE000001FFC
FFE000001FFC
FFE000001FFC
FFE000001FFC
FFE000001FFC
FFE000001FFC
FFE000001FFC
FFE000001FFC
FFE000001FFC
FFE000001FF8
7FE000001FF8
7FE000003FF8
7FF000003FF8
7FF000003FF8
3FF000003FF0
3FF800007FF0
3FF800007FF0
1FF80000FFE0
1FFC0000FFE0
0FFE0001FFC0
0FFF0003FFC0
07FF8007FF80
07FFC01FFF80
03FFFFFFFF00
01FFFFFFFE00
00FFFFFFFC00
007FFFFFF800
003FFFFFF000
001FFFFFE000
0007FFFF8000
0001FFFE0000
00003FF00000
ENDCHAR
STARTCHAR Odieresis
ENCODING 214
SWIDTH 600 0
DWIDTH 54 0
BBX 46 83 4 -1
BITMAP
001F0001F000
007F8007F800
00FFC00FFC00
00FFE00FFE00
00FFE00FFE00
00FFE00FFE00
00FFE00FFE00
00FFC00FFC00
007FC007F800
001F0001F000
000000000000
000000000000
000000000000
000000000000
000000000000
000000000000
00003FF00000
0001FFFE0000
0007FFFF8000
001FFFFFE000
003FFFFFF000
007FFFFFF800
00FFFFFFFC00
01FFFFFFFE00
03FFFFFFFF00
07FFC01FFF80
07FF8007FF80
0FFF0003FFC0
0FFE0001FFC0
1FFC0000FFE0
1FF80000FFE0
3FF800007FF0
3FF800007FF0
3FF000003FF0
7FF000003FF8
7FF000003FF8
7FE000003FF8
7FE000001FF8
7FE000001FF8
FFE000001FFC
FFE000001FFC
FFE000001FFC
FFE000001FFC
FFE000001FFC
FFE000001FFC
FFE000001FFC
FFE000001FFC
FFE000001FFC
FFE000001FFC
FFE000001FFC
FFE000001FFC
FFE000001FFC
FFE000001FFC
FFE000001FFC
FFE000001FFC
FFE000001FFC
FFE000001FFC
FFE000001FFC
FFE000001FFC
FFE000001FFC
FFE000001FF8
7FE000001FF8
7FE000003FF8
7FF000003FF8
7FF000003FF8
3FF000003FF0
3FF800007FF0
3FF800007FF0
1FF80000FFE0
1FFC0000FFE0
0FFE0001FFC0
0FFF0003FFC0
07FF8007FF80
07FFC01FFF80
03FFFFFFFF00
01FFFFFFFE00
00FFFFFFFC00
007FFFFFF800
003FFFFFF000
001FFFFFE000
0007FFFF8000
0001FFFE0000
00003FF00000
ENDCHAR
STARTCHAR multiply
ENCODING 215
SWIDTH 600 0
DWIDTH 54 0
BBX 41 42 7 9
BITMAP
020000002000
070000007000
0F800000F800
1FC00001FC00
3FE00003FE00
7FF00007FF00
FFF8000FFF80
7FFC001FFF00
3FFE003FFE00
1FFF007FFC00
0FFF80FFF800
07FFC1FFF000
03FFE3FFE000
01FFF7FFC000
00FFFFFF8000
007FFFFF0000
003FFFFE0000
001FFFFC0000
000FFFF80000
0007FFF00000
0003FFE00000
0003FFF00000
0007FFF80000
000FFFFC0000
001FFFFE0000
003FFFFF0000
007FFFFF8000
00FFFFFFC000
01FFF3FFE000
03FFE1FFF000
07FFC0FFF800
0FFF807FFC00
1FFF003FFE00
3FFE001FFF00
7FFC000FFF80
FFF80007FF80
3FF00003FF00
1FE00001FE00
0FC00000FC00
078000007800
030000003000
020000002000
ENDCHAR
STARTCHAR Oslash
ENCODING 216
SWIDTH 600 0
DWIDTH 54 0
BBX 49 71 2 -4
BITMAP
00000000007F80
00000FFC00FF00
00007FFF80FE00
0001FFFFE1FE00
0007FFFFFBFC00
000FFFFFFFF800
003FFFFFFFF800
003FFFFFFFF000
007FFFFFFFF000
00FFFFFFFFE000
01FFF007FFC000
01FFE003FFE000
03FFC000FFF000
03FF8000FFF000
07FF00007FF800
07FE0000FFF800
0FFE0000FFF800
0FFC0001FFFC00
0FFC0003FFFC00
1FFC0003FFFC00
1FFC0007FFFE00
1FF80007FFFE00
1FF8000FFFFE00
3FF8000FE7FE00
3FF8001FE7FE00
3FF8001FC7FF00
3FF8003F87FF00
3FF8007F87FF00
3FF8007F07FF00
3FF800FF07FF00
3FF800FE07FF00
3FF801FE07FF00
3FF801FC07FF00
3FF803F807FF00
3FF807F807FF00
3FF807F007FF00
3FF80FF007FF00
3FF80FE007FF00
3FF81FE007FF00
3FF81FC007FF00
3FF83FC007FF00
3FF83F8007FF00
3FF87F0007FF00
3FF8FF0007FF00
3FF8FE0007FE00
3FF9FE0007FE00
3FF9FC0007FE00
1FFBFC000FFE00
1FFFF8000FFE00
1FFFF0000FFC00
1FFFF0000FFC00
0FFFE0001FFC00
0FFFE0001FFC00
0FFFC0003FF800
07FFC0003FF800
07FF80007FF000
03FF8000FFF000
03FFE001FFE000
01FFF007FFC000
01FFFFFFFFC000
01FFFFFFFF8000
03FFFFFFFF0000
03FFFFFFFE0000
07FFFFFFFC0000
0FFFFFFFF80000
0FE3FFFFE00000
1FE0FFFF800000
1FC00FFC000000
3F800000000000
3F800000000000
FF000000000000
ENDCHAR
STARTCHAR Ugrave
ENCODING 217
SWIDTH 600 0
DWIDTH 54 0
BBX 42 82 6 -1
BITMAP
01FFE0000000
00FFF0000000
007FF8000000
003FF8000000
001FFC000000
000FFC000000
0007FE000000
0003FF000000
0001FF000000
0000FF800000
00007FC00000
00003FE00000
000000000000
000000000000
000000000000
000000000000
FFC00000FFC0
FFC00000FFC0
FFC00000FFC0
FFC00000FFC0
FFC00000FFC0
FFC00000FFC0
FFC00000FFC0
FFC00000FFC0
FFC00000FFC0
FFC00000FFC0
FFC00000FFC0
FFC00000FFC0
FFC00000FFC0
FFC00000FFC0
FFC00000FFC0
FFC00000FFC0
FFC00000FFC0
FFC00000FFC0
FFC00000FFC0
FFC00000FFC0
FFC00000FFC0
FFC00000FFC0
FFC00000FFC0
FFC00000FFC0
FFC00000FFC0
FFC00000FFC0
FFC00000FFC0
FFC00000FFC0
FFC00000FFC0
FFC00000FFC0
FFC00000FFC0
FFC00000FFC0
FFC00000FFC0
FFC00000FFC0
FFC00000FFC0
FFC00000FFC0
FFC00000FFC0
FFC00000FFC0
FFC00000FFC0
FFC00000FFC0
FFC00000FFC0
FFC00000FFC0
FFC00000FFC0
FFC00000FFC0
FFC00000FFC0
FFC00000FFC0
FFC00001FFC0
FFE00001FFC0
FFE00001FFC0
FFE00001FFC0
7FE00001FF80
7FF00003FF80
7FF00003FF80
3FF80007FF00
3FFC000FFF00
3FFE001FFE00
1FFF007FFE00
0FFFFFFFFC00
0FFFFFFFF800
07FFFFFFF800
03FFFFFFF000
01FFFFFFE000
007FFFFF8000
003FFFFF0000
0007FFF80000
0000FFC00000
ENDCHAR
STARTCHAR Uacute
ENCODING 218
SWIDTH 600 0
DWIDTH 54 0
BBX 42 82 6 -1
BITMAP
0000003FFC00
0000007FF000
000000FFE000
000001FFC000
000001FF8000
000003FF0000
000007FE0000
000007FC0000
00000FF80000
00001FF00000
00001FE00000
00003FC00000
000000000000
000000000000
000000000000
000000000000
FFC00000FFC0
FFC00000FFC0
FFC00000FFC0
FFC00000FFC0
FFC00000FFC0
FFC00000FFC0
FFC00000FFC0
FFC00000FFC0
FFC00000FFC0
FFC00000FFC0
FFC00000FFC0
FFC00000FFC0
FFC00000FFC0
FFC00000FFC0
FFC00000FFC0
FFC00000FFC0
FFC00000FFC0
FFC00000FFC0
FFC00000FFC0
FFC00000FFC0
FFC00000FFC0
FFC00000FFC0
FFC00000FFC0
FFC00000FFC0
FFC00000FFC0
FFC00000FFC0
FFC00000FFC0
FFC00000FFC0
FFC00000FFC0
FFC00000FFC0
FFC00000FFC0
FFC00000FFC0
FFC00000FFC0
FFC00000FFC0
FFC00000FFC0
FFC00000FFC0
FFC00000FFC0
FFC00000FFC0
FFC00000FFC0
FFC00000FFC0
FFC00000FFC0
FFC00000FFC0
FFC00000FFC0
FFC00000FFC0
FFC00000FFC0
FFC00000FFC0
FFC00001FFC0
FFE00001FFC0
FFE00001FFC0
FFE00001FFC0
7FE00001FF80
7FF00003FF80
7FF00003FF80
3FF80007FF00
3FFC000FFF00
3FFE001FFE00
1FFF007FFE00
0FFFFFFFFC00
0FFFFFFFF800
07FFFFFFF800
03FFFFFFF000
01FFFFFFE000
007FFFFF8000
003FFFFF0000
0007FFF80000
0000FFC00000
ENDCHAR
STARTCHAR Ucircumflex
ENCODING 219
SWIDTH 600 0
DWIDTH 54 0
BBX 42 83 6 -1
BITMAP
00001FC00000
00003FE00000
0000FFF00000
0001FFF80000
0003FFFC0000
0007FFFE0000
000FFDFF8000
001FF8FFC000
003FF07FE000
007FC03FF000
00FF801FF800
01FF000FF800
000000000000
000000000000
000000000000
000000000000
000000000000
FFC00000FFC0
FFC00000FFC0
FFC00000FFC0
FFC00000FFC0
FFC00000FFC0
FFC00000FFC0
FFC00000FFC0
FFC00000FFC0
FFC00000FFC0
FFC00000FFC0
FFC00000FFC0
FFC00000FFC0
FFC00000FFC0
FFC00000FFC0
FFC00000FFC0
FFC00000FFC0
FFC00000FFC0
FFC00000FFC0
FFC00000FFC0
FFC00000FFC0
FFC00000FFC0
FFC00000FFC0
FFC00000FFC0
FFC00000FFC0
FFC00000FFC0
FFC00000FFC0
FFC00000FFC0
FFC00000FFC0
FFC00000FFC0
FFC00000FFC0
FFC00000FFC0
FFC00000FFC0
FFC00000FFC0
FFC00000FFC0
FFC00000FFC0
FFC00000FFC0
FFC00000FFC0
FFC00000FFC0
FFC00000FFC0
FFC00000FFC0
FFC00000FFC0
FFC00000FFC0
FFC00000FFC0
FFC00000FFC0
FFC00000FFC0
FFC00000FFC0
FFC00001FFC0
FFE00001FFC0
FFE00001FFC0
FFE00001FFC0
7FE00001FF80
7FF00003FF80
7FF00003FF80
3FF80007FF00
3FFC000FFF00
3FFE001FFE00
1FFF007FFE00
0FFFFFFFFC00
0FFFFFFFF800
07FFFFFFF800
03FFFFFFF000
01FFFFFFE000
007FFFFF8000
003FFFFF0000
0007FFF80000
0000FFC00000
ENDCHAR
STARTCHAR Udieresis
ENCODING 220
SWIDTH 600 0
DWIDTH 54 0
BBX 42 82 6 -1
BITMAP
003E0007E000
00FF000FF000
01FF801FF800
01FF801FF800
01FFC01FFC00
01FFC01FFC00
01FF801FF800
01FF801FF800
00FF000FF000
007E0007E000
000000000000
000000000000
000000000000
000000000000
000000000000
000000000000
FFC00000FFC0
FFC00000FFC0
FFC00000FFC0
FFC00000FFC0
FFC00000FFC0
FFC00000FFC0
FFC00000FFC0
FFC00000FFC0
FFC00000FFC0
FFC00000FFC0
FFC00000FFC0
FFC00000FFC0
FFC00000FFC0
FFC00000FFC0
FFC00000FFC0
FFC00000FFC0
FFC00000FFC0
FFC00000FFC0
FFC00000FFC0
FFC00000FFC0
FFC00000FFC0
FFC00000FFC0
FFC00000FFC0
FFC00000FFC0
FFC00000FFC0
FFC00000FFC0
FFC00000FFC0
FFC00000FFC0
FFC00000FFC0
FFC00000FFC0
FFC00000FFC0
FFC00000FFC0
FFC00000FFC0
FFC00000FFC0
FFC00000FFC0
FFC00000FFC0
FFC00000FFC0
FFC00000FFC0
FFC00000FFC0
FFC00000FFC0
FFC00000FFC0
FFC00000FFC0
FFC00000FFC0
FFC00000FFC0
FFC00000FFC0
FFC00000FFC0
FFC00001FFC0
FFE00001FFC0
FFE00001FFC0
FFE00001FFC0
7FE00001FF80
7FF00003FF80
7FF00003FF80
3FF80007FF00
3FFC000FFF00
3FFE001FFE00
1FFF007FFE00
0FFFFFFFFC00
0FFFFFFFF800
07FFFFFFF800
03FFFFFFF000
01FFFFFFE000
007FFFFF8000
003FFFFF0000
0007FFF80000
0000FFC00000
ENDCHAR
STARTCHAR Yacute
ENCODING 221
SWIDTH 600 0
DWIDTH 54 0
BBX 50 81 2 0
BITMAP
0000000FFF8000
0000000FFE0000
0000001FFC0000
0000003FF80000
0000003FF00000
0000007FE00000
000000FFC00000
000000FF800000
000001FF000000
000003FE000000
000003FC000000
000007F8000000
00000000000000
00000000000000
00000000000000
00000000000000
FFF0000003FFC0
7FF0000003FF80
7FF8000007FF80
3FF8000007FF80
3FFC00000FFF00
1FFC00000FFF00
1FFE00000FFE00
0FFE00001FFE00
0FFE00001FFC00
07FF00003FFC00
07FF00003FF800
07FF80007FF800
03FF80007FF000
03FFC000FFF000
01FFC000FFE000
01FFE000FFE000
00FFE001FFC000
00FFE001FFC000
007FF003FF8000
007FF003FF8000
003FF807FF0000
003FF807FF0000
001FFC07FE0000
001FFC0FFE0000
000FFC0FFC0000
000FFE1FFC0000
0007FE1FFC0000
0007FF3FF80000
0003FF3FF80000
0003FFBFF00000
0001FFFFF00000
0001FFFFE00000
0000FFFFE00000
0000FFFFC00000
0000FFFFC00000
00007FFF800000
00007FFF800000
00003FFF000000
00003FFF000000
00001FFE000000
00001FFE000000
00000FFC000000
00000FFC000000
00000FFC000000
00000FFC000000
00000FFC000000
00000FFC000000
00000FFC000000
00000FFC000000
00000FFC000000
00000FFC000000
00000FFC000000
00000FFC000000
00000FFC000000
00000FFC000000
00000FFC000000
00000FFC000000
00000FFC000000
00000FFC000000
00000FFC000000
00000FFC000000
00000FFC000000
00000FFC000000
00000FFC000000
00000FFC000000
ENDCHAR
STARTCHAR Thorn
ENCODING 222
SWIDTH 600 0
DWIDTH 54 0
BBX 43 65 7 0
BITMAP
FFC000000000
FFC000000000
FFC000000000
FFC000000000
FFC000000000
FFC000000000
FFC000000000
FFC000000000
FFC000000000
FFC000000000
FFC000000000
FFC000000000
FFC000000000
FFFFFFE00000
FFFFFFFE0000
FFFFFFFF8000
FFFFFFFFE000
FFFFFFFFF800
FFFFFFFFFC00
FFFFFFFFFE00
FFFFFFFFFF00
FFFFFFFFFF00
FFC0003FFF80
FFC0000FFF80
FFC00003FFC0
FFC00001FFC0
FFC00001FFE0
FFC00000FFE0
FFC00000FFE0
FFC000007FE0
FFC000007FE0
FFC000007FE0
FFC000007FE0
FFC000007FE0
FFC000007FE0
FFC00000FFE0
FFC00000FFE0
FFC00000FFE0
FFC00001FFE0
FFC00003FFC0
FFC00007FFC0
FFC0000FFF80
FFC0007FFF80
FFFFFFFFFF00
FFFFFFFFFE00
FFFFFFFFFC00
FFFFFFFFF800
FFFFFFFFF000
FFFFFFFFC000
FFFFFFFF0000
FFFFFFF80000
FFFFF8000000
FFC000000000
FFC000000000
FFC000000000
FFC000000000
FFC000000000
FFC000000000
FFC000000000
FFC000000000
FFC000000000
FFC000000000
FFC000000000
FFC000000000
FFC000000000
ENDCHAR
STARTCHAR germandbls
ENCODING 223
SWIDTH 600 0
DWIDTH 54 0
BBX 43 71 7 -1
BITMAP
000030000000
0007FFC00000
003FFFF00000
00FFFFFC0000
01FFFFFE0000
03FFFFFF0000
07FFFFFF8000
0FFFFFFFC000
0FFFFFFFC000
1FFF07FFE000
3FFE01FFE000
3FFC00FFE000
3FF8007FF000
7FF0007FF000
7FF0007FF000
7FE0003FF000
7FE0003FF000
FFE0003FF000
FFE0003FF000
FFE0007FF000
FFE0007FE000
FFE0007FE000
FFE000FFE000
FFE000FFC000
FFE001FFC000
FFE001FF8000
FFE003FF8000
FFE007FF0000
FFE007FF0000
FFE007FE0000
FFE00FFE0000
FFE00FFE0000
FFE00FFE0000
FFE00FFE0000
FFE00FFE0000
FFE00FFE0000
FFE00FFF0000
FFE007FF0000
FFE007FF8000
FFE007FFC000
FFE003FFE000
FFE001FFF000
FFE001FFF800
FFE000FFFC00
FFE0007FFE00
FFE0003FFF00
FFE0001FFF00
FFE0000FFF80
FFE00007FFC0
FFE00003FFC0
FFE00001FFC0
FFE00001FFE0
FFE00000FFE0
FFE00000FFE0
FFE000007FE0
FFE000007FE0
FFE000007FE0
FFE000007FE0
FFE00000FFE0
FFE00000FFE0
FFE0C001FFE0
FFE0F803FFC0
FFE1FFFFFFC0
FFE1FFFFFF80
FFE1FFFFFF80
FFE1FFFFFF00
FFE3FFFFFE00
FFE3FFFFFC00
FFE1FFFFF800
FFE07FFFE000
000007FF0000
ENDCHAR
STARTCHAR agrave
ENCODING 224
SWIDTH 600 0
DWIDTH 54 0
BBX 42 68 6 -1
BITMAP
07FFC0000000
01FFC0000000
00FFE0000000
007FF0000000
003FF0000000
001FF8000000
000FFC000000
0007FC000000
0007FE000000
0003FF000000
0001FF000000
0000FF800000
000000000000
000000000000
000000000000
000000000000
000000000000
000000000000
0001FFC00000
000FFFFC0000
007FFFFF0000
00FFFFFF8000
03FFFFFFE000
07FFFFFFF000
0FFFFFFFF800
1FFFFFFFF800
1FFFFFFFFC00
3FFE007FFE00
3FF8001FFE00
7FF8000FFE00
7FF0000FFF00
7FF00007FF00
7FE00007FF00
00000007FF00
00000003FF00
00000003FF00
00000003FF00
00000003FF00
0001FFFFFF00
001FFFFFFF00
00FFFFFFFF00
03FFFFFFFF00
07FFFFFFFF00
0FFFFFFFFF00
1FFFFFFFFF00
3FFF8003FF00
3FFC0003FF00
7FF80003FF00
7FF00003FF00
FFE00003FF00
FFE00003FF00
FFC00003FF00
FFC00003FF00
FFC00003FF00
FFE00007FF00
FFE0000FFF00
FFE0001FFF00
FFF0003FFF00
7FFC00FFFF00
7FFFFFFFFF00
3FFFFFFFFF00
3FFFFFFFFF00
1FFFFFFFFF80
0FFFFFFBFF80
07FFFFF3FF80
01FFFFC1FF80
007FFF01FFC0
000FF8000000
ENDCHAR
STARTCHAR aacute
ENCODING 225
SWIDTH 600 0
DWIDTH 54 0
BBX 42 68 6 -1
BITMAP
000000FFF000
000001FFE000
000001FFC000
000003FF8000
000007FF0000
000007FE0000
00000FFC0000
00001FF80000
00001FF00000
00003FE00000
00007FC00000
0000FF800000
000000000000
000000000000
000000000000
000000000000
000000000000
000000000000
0001FFC00000
000FFFFC0000
007FFFFF0000
00FFFFFF8000
03FFFFFFE000
07FFFFFFF000
0FFFFFFFF800
1FFFFFFFF800
1FFFFFFFFC00
3FFE007FFE00
3FF8001FFE00
7FF8000FFE00
7FF0000FFF00
7FF00007FF00
7FE00007FF00
00000007FF00
00000003FF00
00000003FF00
00000003FF00
00000003FF00
0001FFFFFF00
001FFFFFFF00
00FFFFFFFF00
03FFFFFFFF00
07FFFFFFFF00
0FFFFFFFFF00
1FFFFFFFFF00
3FFF8003FF00
3FFC0003FF00
7FF80003FF00
7FF00003FF00
FFE00003FF00
FFE00003FF00
FFC00003FF00
FFC00003FF00
FFC00003FF00
FFE00007FF00
FFE0000FFF00
FFE0001FFF00
FFF0003FFF00
7FFC00FFFF00
7FFFFFFFFF00
3FFFFFFFFF00
3FFFFFFFFF00
1FFFFFFFFF80
0FFFFFFBFF80
07FFFFF3FF80
01FFFFC1FF80
007FFF01FFC0
000FF8000000
ENDCHAR
STARTCHAR acircumflex
ENCODING 226
SWIDTH 600 0
DWIDTH 54 0
BBX 42 69 6 -1
BITMAP
00007F000000
0000FFC00000
0001FFE00000
0003FFF00000
0007FFF80000
000FFFFC0000
001FF7FE0000
007FE1FF0000
00FFC0FF8000
01FF807FC000
03FF003FF000
03FE001FF000
000000000000
000000000000
000000000000
000000000000
000000000000
000000000000
000000000000
0001FFC00000
000FFFFC0000
007FFFFF0000
00FFFFFF8000
03FFFFFFE000
07FFFFFFF000
0FFFFFFFF800
1FFFFFFFF800
1FFFFFFFFC00
3FFE007FFE00
3FF8001FFE00
7FF8000FFE00
7FF0000FFF00
7FF00007FF00
7FE00007FF00
00000007FF00
00000003FF00
00000003FF00
00000003FF00
00000003FF00
0001FFFFFF00
001FFFFFFF00
00FFFFFFFF00
03FFFFFFFF00
07FFFFFFFF00
0FFFFFFFFF00
1FFFFFFFFF00
3FFF8003FF00
3FFC0003FF00
7FF80003FF00
7FF00003FF00
FFE00003FF00
FFE00003FF00
FFC00003FF00
FFC00003FF00
FFC00003FF00
FFE00007FF00
FFE0000FFF00
FFE0001FFF00
FFF0003FFF00
7FFC00FFFF00
7FFFFFFFFF00
3FFFFFFFFF00
3FFFFFFFFF00
1FFFFFFFFF80
0FFFFFFBFF80
07FFFFF3FF80
01FFFFC1FF80
007FFF01FFC0
000FF8000000
ENDCHAR
STARTCHAR atilde
ENCODING 227
SWIDTH 600 0
DWIDTH 54 0
BBX 42 70 6 -1
BITMAP
000000010000
000F8001E000
003FF001F000
00FFFC03F000
00FFFF07F000
01FFFFFFF000
03FFFFFFE000
03FFFFFFE000
03F87FFFC000
07F00FFF8000
07E007FF0000
03E000FC0000
002000000000
000000000000
000000000000
000000000000
000000000000
000000000000
000000000000
000000000000
0001FFC00000
000FFFFC0000
007FFFFF0000
00FFFFFF8000
03FFFFFFE000
07FFFFFFF000
0FFFFFFFF800
1FFFFFFFF800
1FFFFFFFFC00
3FFE007FFE00
3FF8001FFE00
7FF8000FFE00
7FF0000FFF00
7FF00007FF00
7FE00007FF00
00000007FF00
00000003FF00
00000003FF00
00000003FF00
00000003FF00
0001FFFFFF00
001FFFFFFF00
00FFFFFFFF00
03FFFFFFFF00
07FFFFFFFF00
0FFFFFFFFF00
1FFFFFFFFF00
3FFF8003FF00
3FFC0003FF00
7FF80003FF00
7FF00003FF00
FFE00003FF00
FFE00003FF00
FFC00003FF00
FFC00003FF00
FFC00003FF00
FFE00007FF00
FFE0000FFF00
FFE0001FFF00
FFF0003FFF00
7FFC00FFFF00
7FFFFFFFFF00
3FFFFFFFFF00
3FFFFFFFFF00
1FFFFFFFFF80
0FFFFFFBFF80
07FFFFF3FF80
01FFFFC1FF80
007FFF01FFC0
000FF8000000
ENDCHAR
STARTCHAR adieresis
ENCODING 228
SWIDTH 600 0
DWIDTH 54 0
BBX 42 68 6 -1
BITMAP
00F8000F8000
01FE001FE000
03FF003FF000
07FF007FF000
07FF007FF000
07FF007FF000
07FF007FF000
03FF003FF000
01FE001FE000
00F8000F8000
000000000000
000000000000
000000000000
000000000000
000000000000
000000000000
000000000000
000000000000
0001FFC00000
000FFFFC0000
007FFFFF0000
00FFFFFF8000
03FFFFFFE000
07FFFFFFF000
0FFFFFFFF800
1FFFFFFFF800
1FFFFFFFFC00
3FFE007FFE00
3FF8001FFE00
7FF8000FFE00
7FF0000FFF00
7FF00007FF00
7FE00007FF00
00000007FF00
00000003FF00
00000003FF00
00000003FF00
00000003FF00
0001FFFFFF00
001FFFFFFF00
00FFFFFFFF00
03FFFFFFFF00
07FFFFFFFF00
0FFFFFFFFF00
1FFFFFFFFF00
3FFF8003FF00
3FFC0003FF00
7FF80003FF00
7FF00003FF00
FFE00003FF00
FFE00003FF00
FFC00003FF00
FFC00003FF00
FFC00003FF00
FFE00007FF00
FFE0000FFF00
FFE0001FFF00
FFF0003FFF00
7FFC00FFFF00
7FFFFFFFFF00
3FFFFFFFFF00
3FFFFFFFFF00
1FFFFFFFFF80
0FFFFFFBFF80
07FFFFF3FF80
01FFFFC1FF80
007FFF01FFC0
000FF8000000
ENDCHAR
STARTCHAR aring
ENCODING 229
SWIDTH 600 0
DWIDTH 54 0
BBX 42 73 6 -1
BITMAP
00003F000000
0000FFC00000
0003FFE00000
0007FFF00000
0007E1F80000
000FC0F80000
000F807C0000
000F007C0000
000F007C0000
000F007C0000
000F807C0000
000F80FC0000
0007E1F80000
0007FFF00000
0003FFF00000
0001FFC00000
00003F000000
000000000000
000000000000
000000000000
000000000000
000000000000
000000000000
0001FFC00000
000FFFFC0000
007FFFFF0000
00FFFFFF8000
03FFFFFFE000
07FFFFFFF000
0FFFFFFFF800
1FFFFFFFF800
1FFFFFFFFC00
3FFE007FFE00
3FF8001FFE00
7FF8000FFE00
7FF0000FFF00
7FF00007FF00
7FE00007FF00
00000007FF00
00000003FF00
00000003FF00
00000003FF00
00000003FF00
0001FFFFFF00
001FFFFFFF00
00FFFFFFFF00
03FFFFFFFF00
07FFFFFFFF00
0FFFFFFFFF00
1FFFFFFFFF00
3FFF8003FF00
3FFC0003FF00
7FF80003FF00
7FF00003FF00
FFE00003FF00
FFE00003FF00
FFC00003FF00
FFC00003FF00
FFC00003FF00
FFE00007FF00
FFE0000FFF00
FFE0001FFF00
FFF0003FFF00
7FFC00FFFF00
7FFFFFFFFF00
3FFFFFFFFF00
3FFFFFFFFF00
1FFFFFFFFF80
0FFFFFFBFF80
07FFFFF3FF80
01FFFFC1FF80
007FFF01FFC0
000FF8000000
ENDCHAR
STARTCHAR ae
ENCODING 230
SWIDTH 600 0
DWIDTH 54 0
BBX 51 50 2 -1
BITMAP
001FF000FF0000
00FFFE07FFE000
03FFFF1FFFF000
07FFFFBFFFFC00
0FFFFFFFFFFE00
1FFFFFFFFFFE00
1FFFFFFFFFFF00
3FFFFFFFFFFF00
3FFFFFFFFFFF80
7FF81FFF03FF80
7FF01FFE01FFC0
7FE00FFE00FFC0
7FE00FFC00FFC0
7FE00FFC007FC0
00000FFC007FC0
00000FFC007FC0
00000FFC007FC0
00000FFC007FE0
00000FFC007FE0
00000FFC007FE0
0007FFFFFFFFE0
007FFFFFFFFFE0
01FFFFFFFFFFE0
03FFFFFFFFFFE0
0FFFFFFFFFFFE0
1FFFFFFFFFFFE0
1FFFFFFFFFFFE0
3FFFFFFFFFFFE0
7FFF0FFC000000
7FFC0FFC000000
7FF80FFC000000
FFF00FFC000000
FFE00FFC000000
FFE00FFC000000
FFC00FFC000000
FFC00FFC000000
FFC00FFC000000
FFC00FFE000000
FFE00FFE000000
FFE00FFF000200
FFF01FFFC00F00
7FFFFFFFFFFF00
7FFFFFFFFFFF00
3FFFFFFFFFFF80
3FFFFFFFFFFF80
1FFFFE7FFFFF80
0FFFFC3FFFFFC0
07FFF80FFFFF00
03FFF007FFFC00
007F8000FFC000
ENDCHAR
STARTCHAR ccedilla
ENCODING 231
SWIDTH 600 0
DWIDTH 54 0
BBX 42 68 6 -19
BITMAP
0000FFE00000
0007FFFC0000
001FFFFF0000
007FFFFFC000
00FFFFFFE000
01FFFFFFF000
03FFFFFFF800
07FFFFFFFC00
0FFFFFFFFE00
1FFF803FFE00
1FFE000FFF00
3FFC0007FF00
3FF80003FF80
7FF80003FF80
7FF00001FF80
7FF00001FF80
7FE00001FF80
FFE00000FF80
FFE000000040
FFC000000000
FFC000000000
FFC000000000
FFC000000000
FFC000000000
FFC000000000
FFC000000000
FFC000000000
FFC000000000
FFC000000000
FFC000000000
FFC000000000
FFE000000000
FFE000000000
7FE00000FFC0
7FF00001FF80
7FF00001FF80
7FF80001FF80
3FF80003FF80
3FFC0007FF00
1FFE000FFF00
1FFF803FFF00
0FFFFFFFFE00
07FFFFFFFC00
03FFFFFFF800
01FFFFFFF000
00FFFFFFE000
007FFFFFC000
001FFFFF0000
0007FFFC0000
0000FFE00000
00007FC00000
00007FF00000
00007FFC0000
00007FFC0000
000007FE0000
000003FE0000
000001FF0000
000001FF0000
000001FF0000
000001FF0000
000003FE0000
00000FFE0000
00007FFE0000
00007FFC0000
00007FF80000
00007FF00000
00007FC00000
00007E000000
ENDCHAR
STARTCHAR egrave
ENCODING 232
SWIDTH 600 0
DWIDTH 54 0
BBX 44 68 5 -1
BITMAP
03FFE0000000
00FFE0000000
007FF0000000
003FF8000000
001FF8000000
000FFC000000
0007FE000000
0003FE000000
0003FF000000
0001FF800000
0000FF800000
00007FC00000
000000000000
000000000000
000000000000
000000000000
000000000000
000000000000
00003FF00000
0001FFFE0000
0007FFFF8000
001FFFFFE000
003FFFFFF000
00FFFFFFF800
01FFFFFFFC00
03FFFFFFFE00
03FFFFFFFF00
07FFC01FFF00
0FFF8007FF80
0FFF0003FF80
1FFE0001FFC0
1FFC0000FFC0
3FF80000FFC0
3FF800007FE0
7FF000007FE0
7FF000007FE0
7FF000007FE0
7FF000007FF0
7FE000007FF0
FFFFFFFFFFF0
FFFFFFFFFFF0
FFFFFFFFFFF0
FFFFFFFFFFF0
FFFFFFFFFFF0
FFFFFFFFFFF0
FFFFFFFFFFF0
FFFFFFFFFFF0
FFE000000000
7FE000000000
7FE000000000
7FF000000000
7FF000000000
3FF800000000
3FF800000000
3FFC00000400
1FFE00000E00
1FFF00001F00
0FFF80007FC0
07FFE001FFE0
07FFFFFFFFE0
03FFFFFFFFC0
01FFFFFFFF80
00FFFFFFFF00
007FFFFFFE00
001FFFFFF800
0007FFFFE000
0001FFFF8000
00003FF80000
ENDCHAR
STARTCHAR eacute
ENCODING 233
SWIDTH 600 0
DWIDTH 54 0
BBX 44 68 5 -1
BITMAP
0000007FF800
000000FFF000
000000FFE000
000001FFC000
000003FF8000
000003FF0000
000007FE0000
00000FFC0000
00000FF80000
00001FF00000
00003FE00000
00007FC00000
000000000000
000000000000
000000000000
000000000000
000000000000
000000000000
00003FF00000
0001FFFE0000
0007FFFF8000
001FFFFFE000
003FFFFFF000
00FFFFFFF800
01FFFFFFFC00
03FFFFFFFE00
03FFFFFFFF00
07FFC01FFF00
0FFF8007FF80
0FFF0003FF80
1FFE0001FFC0
1FFC0000FFC0
3FF80000FFC0
3FF800007FE0
7FF000007FE0
7FF000007FE0
7FF000007FE0
7FF000007FF0
7FE000007FF0
FFFFFFFFFFF0
FFFFFFFFFFF0
FFFFFFFFFFF0
FFFFFFFFFFF0
FFFFFFFFFFF0
FFFFFFFFFFF0
FFFFFFFFFFF0
FFFFFFFFFFF0
FFE000000000
7FE000000000
7FE000000000
7FF000000000
7FF000000000
3FF800000000
3FF800000000
3FFC00000400
1FFE00000E00
1FFF00001F00
0FFF80007FC0
07FFE001FFE0
07FFFFFFFFE0
03FFFFFFFFC0
01FFFFFFFF80
00FFFFFFFF00
007FFFFFFE00
001FFFFFF800
0007FFFFE000
0001FFFF8000
00003FF80000
ENDCHAR
STARTCHAR ecircumflex
ENCODING 234
SWIDTH 600 0
DWIDTH 54 0
BBX 44 69 5 -1
BITMAP
00003F800000
00007FE00000
0000FFF00000
0001FFF80000
0003FFFC0000
0007FFFE0000
000FFBFF0000
003FF0FF8000
007FE07FC000
00FFC03FE000
01FF801FF800
01FF000FF800
000000000000
000000000000
000000000000
000000000000
000000000000
000000000000
000000000000
00003FF00000
0001FFFE0000
0007FFFF8000
001FFFFFE000
003FFFFFF000
00FFFFFFF800
01FFFFFFFC00
03FFFFFFFE00
03FFFFFFFF00
07FFC01FFF00
0FFF8007FF80
0FFF0003FF80
1FFE0001FFC0
1FFC0000FFC0
3FF80000FFC0
3FF800007FE0
7FF000007FE0
7FF000007FE0
7FF000007FE0
7FF000007FF0
7FE000007FF0
FFFFFFFFFFF0
FFFFFFFFFFF0
FFFFFFFFFFF0
FFFFFFFFFFF0
FFFFFFFFFFF0
FFFFFFFFFFF0
FFFFFFFFFFF0
FFFFFFFFFFF0
FFE000000000
7FE000000000
7FE000000000
7FF000000000
7FF000000000
3FF800000000
3FF800000000
3FFC00000400
1FFE00000E00
1FFF00001F00
0FFF80007FC0
07FFE001FFE0
07FFFFFFFFE0
03FFFFFFFFC0
01FFFFFFFF80
00FFFFFFFF00
007FFFFFFE00
001FFFFFF800
0007FFFFE000
0001FFFF8000
00003FF80000
ENDCHAR
STARTCHAR edieresis
ENCODING 235
SWIDTH 600 0
DWIDTH 54 0
BBX 44 68 5 -1
BITMAP
007C0007C000
00FF000FF000
01FF801FF800
03FF803FF800
03FF803FF800
03FF803FF800
03FF803FF800
01FF801FF800
00FF000FF000
007C0007C000
000000000000
000000000000
000000000000
000000000000
000000000000
000000000000
000000000000
000000000000
00003FF00000
0001FFFE0000
0007FFFF8000
001FFFFFE000
003FFFFFF000
00FFFFFFF800
01FFFFFFFC00
03FFFFFFFE00
03FFFFFFFF00
07FFC01FFF00
0FFF8007FF80
0FFF0003FF80
1FFE0001FFC0
1FFC0000FFC0
3FF80000FFC0
3FF800007FE0
7FF000007FE0
7FF000007FE0
7FF000007FE0
7FF000007FF0
7FE000007FF0
FFFFFFFFFFF0
FFFFFFFFFFF0
FFFFFFFFFFF0
FFFFFFFFFFF0
FFFFFFFFFFF0
FFFFFFFFFFF0
FFFFFFFFFFF0
FFFFFFFFFFF0
FFE000000000
7FE000000000
7FE000000000
7FF000000000
7FF000000000
3FF800000000
3FF800000000
3FFC00000400
1FFE00000E00
1FFF00001F00
0FFF80007FC0
07FFE001FFE0
07FFFFFFFFE0
03FFFFFFFFC0
01FFFFFFFF80
00FFFFFFFF00
007FFFFFFE00
001FFFFFF800
0007FFFFE000
0001FFFF8000
00003FF80000
ENDCHAR
STARTCHAR igrave
ENCODING 236
SWIDTH 600 0
DWIDTH 54 0
BBX 40 66 9 0
BITMAP
07FF800000
03FFC00000
01FFE00000
00FFE00000
007FF00000
003FF00000
001FF80000
000FFC0000
0007FC0000
0003FE0000
0001FF0000
0000FF8000
0000000000
0000000000
0000000000
0000000000
0000000000
0000000000
FFFFFF8000
FFFFFF8000
FFFFFF8000
FFFFFF8000
FFFFFF8000
FFFFFF8000
FFFFFF8000
FFFFFF8000
FFFFFF8000
0001FF8000
0001FF8000
0001FF8000
0001FF8000
0001FF8000
0001FF8000
0001FF8000
0001FF8000
0001FF8000
0001FF8000
0001FF8000
0001FF8000
0001FF8000
0001FF8000
0001FF8000
0001FF8000
0001FF8000
0001FF8000
0001FF8000
0001FF8000
0001FF8000
0001FF8000
0001FF8000
0001FF8000
0001FF8000
0001FF8000
0001FF8000
0001FF8000
0001FF8000
0001FF8000
FFFFFFFFFF
FFFFFFFFFF
FFFFFFFFFF
FFFFFFFFFF
FFFFFFFFFF
FFFFFFFFFF
FFFFFFFFFF
FFFFFFFFFF
FFFFFFFFFF
ENDCHAR
STARTCHAR iacute
ENCODING 237
SWIDTH 600 0
DWIDTH 54 0
BBX 40 66 9 0
BITMAP
000000FFF0
000001FFC0
000003FF80
000007FF00
000007FE00
00000FFC00
00001FF800
00001FF000
00003FE000
00007FC000
00007F8000
0000FF0000
0000000000
0000000000
0000000000
0000000000
0000000000
0000000000
FFFFFF8000
FFFFFF8000
FFFFFF8000
FFFFFF8000
FFFFFF8000
FFFFFF8000
FFFFFF8000
FFFFFF8000
FFFFFF8000
0001FF8000
0001FF8000
0001FF8000
0001FF8000
0001FF8000
0001FF8000
0001FF8000
0001FF8000
0001FF8000
0001FF8000
0001FF8000
0001FF8000
0001FF8000
0001FF8000
0001FF8000
0001FF8000
0001FF8000
0001FF8000
0001FF8000
0001FF8000
0001FF8000
0001FF8000
0001FF8000
0001FF8000
0001FF8000
0001FF8000
0001FF8000
0001FF8000
0001FF8000
0001FF8000
FFFFFFFFFF
FFFFFFFFFF
FFFFFFFFFF
FFFFFFFFFF
FFFFFFFFFF
FFFFFFFFFF
FFFFFFFFFF
FFFFFFFFFF
FFFFFFFFFF
ENDCHAR
STARTCHAR icircumflex
ENCODING 238
SWIDTH 600 0
DWIDTH 54 0
BBX 40 67 9 0
BITMAP
00007F0000
0000FF8000
0003FFC000
0007FFE000
000FFFF000
001FFFFC00
003FF7FE00
007FE3FF00
00FFC1FF80
01FF00FFC0
03FE007FE0
07FC003FE0
0000000000
0000000000
0000000000
0000000000
0000000000
0000000000
0000000000
FFFFFF8000
FFFFFF8000
FFFFFF8000
FFFFFF8000
FFFFFF8000
FFFFFF8000
FFFFFF8000
FFFFFF8000
FFFFFF8000
0001FF8000
0001FF8000
0001FF8000
0001FF8000
0001FF8000
0001FF8000
0001FF8000
0001FF8000
0001FF8000
0001FF8000
0001FF8000
0001FF8000
0001FF8000
0001FF8000
0001FF8000
0001FF8000
0001FF8000
0001FF8000
0001FF8000
0001FF8000
0001FF8000
0001FF8000
0001FF8000
0001FF8000
0001FF8000
0001FF8000
0001FF8000
0001FF8000
0001FF8000
0001FF8000
FFFFFFFFFF
FFFFFFFFFF
FFFFFFFFFF
FFFFFFFFFF
FFFFFFFFFF
FFFFFFFFFF
FFFFFFFFFF
FFFFFFFFFF
FFFFFFFFFF
ENDCHAR
STARTCHAR idieresis
ENCODING 239
SWIDTH 600 0
DWIDTH 54 0
BBX 40 66 9 0
BITMAP
00F8001F80
03FC003FC0
07FE007FE0
07FE007FE0
07FF007FF0
07FF007FF0
07FE007FE0
07FE007FE0
03FC003FC0
00F8001F80
0000000000
0000000000
0000000000
0000000000
0000000000
0000000000
0000000000
0000000000
FFFFFF8000
FFFFFF8000
FFFFFF8000
FFFFFF8000
FFFFFF8000
FFFFFF8000
FFFFFF8000
FFFFFF8000
FFFFFF8000
0001FF8000
0001FF8000
0001FF8000
0001FF8000
0001FF8000
0001FF8000
0001FF8000
0001FF8000
0001FF8000
0001FF8000
0001FF8000
0001FF8000
0001FF8000
0001FF8000
0001FF8000
0001FF8000
0001FF8000
0001FF8000
0001FF8000
0001FF8000
0001FF8000
0001FF8000
0001FF8000
0001FF8000
0001FF8000
0001FF8000
0001FF8000
0001FF8000
0001FF8000
0001FF8000
FFFFFFFFFF
FFFFFFFFFF
FFFFFFFFFF
FFFFFFFFFF
FFFFFFFFFF
FFFFFFFFFF
FFFFFFFFFF
FFFFFFFFFF
FFFFFFFFFF
ENDCHAR
STARTCHAR eth
ENCODING 240
SWIDTH 600 0
DWIDTH 54 0
BBX 46 69 2 -1
BITMAP
000010000000
00001E000040
00001FC000E0
00003FF003E0
00003FF80FF0
00003FFE3FF8
00007FFF7FF8
00007FFFFFE0
0000FFFFFF80
00003FFFFE00
00000FFFFC00
000003FFF800
000003FFFC00
00000FFFFC00
00001FFFFE00
00007FFFFF00
0001FFEFFF00
0007FF87FF80
0007FE07FF80
0003FC03FFC0
0001F001FFC0
0000C001FFE0
00008000FFE0
00000000FFE0
000004007FF0
0001FFF07FF0
000FFFFC7FF0
003FFFFF3FF0
007FFFFFBFF8
00FFFFFFFFF8
01FFFFFFFFF8
03FFFFFFFFF8
07FFFFFFFFF8
0FFFE01FFFF8
0FFF8003FFFC
1FFF0000FFFC
3FFE00003FFC
3FFC00001FFC
3FF800001FFC
7FF800001FFC
7FF000001FFC
7FF000001FFC
7FE000001FFC
7FE000001FFC
FFE000001FFC
FFE000001FFC
FFE000001FFC
FFE000001FF8
FFE000001FF8
FFE000003FF8
7FE000003FF8
7FE000003FF8
7FF000003FF0
7FF000007FF0
3FF800007FF0
3FF80000FFE0
3FFC0001FFE0
1FFE0003FFC0
1FFF0007FFC0
0FFFC01FFF80
07FFFFFFFF00
03FFFFFFFE00
03FFFFFFFE00
01FFFFFFFC00
007FFFFFF000
003FFFFFE000
000FFFFF8000
0003FFFE0000
00007FF00000
ENDCHAR
STARTCHAR ntilde
ENCODING 241
SWIDTH 600 0
DWIDTH 54 0
BBX 41 69 7 0
BITMAP
000000040000
003F0003C000
00FFE007E000
01FFF807E000
03FFFE1FE000
03FFFFFFE000
07FFFFFFC000
07FFFFFFC000
0FF0FFFF8000
0FE03FFF0000
0FC00FFE0000
0FC003F80000
004000000000
000000000000
000000000000
000000000000
000000000000
000000000000
000000000000
000000000000
00000FF80000
FF807FFF0000
FF81FFFFC000
FFC3FFFFE000
FFC7FFFFF000
FFCFFFFFF800
FFDFFFFFFC00
FFFFFFFFFC00
FFFFFFFFFE00
FFFF003FFE00
FFFC001FFF00
FFF8000FFF00
FFF00007FF00
FFE00007FF00
FFC00003FF80
FFC00003FF80
FFC00003FF80
FFC00003FF80
FFC00003FF80
FFC00003FF80
FFC00003FF80
FFC00003FF80
FFC00003FF80
FFC00003FF80
FFC00003FF80
FFC00003FF80
FFC00003FF80
FFC00003FF80
FFC00003FF80
FFC00003FF80
FFC00003FF80
FFC00003FF80
FFC00003FF80
FFC00003FF80
FFC00003FF80
FFC00003FF80
FFC00003FF80
FFC00003FF80
FFC00003FF80
FFC00003FF80
FFC00003FF80
FFC00003FF80
FFC00003FF80
FFC00003FF80
FFC00003FF80
FFC00003FF80
FFC00003FF80
FFC00003FF80
FFC00003FF80
ENDCHAR
STARTCHAR ograve
ENCODING 242
SWIDTH 600 0
DWIDTH 54 0
BBX 44 68 5 -1
BITMAP
01FFE0000000
00FFF0000000
007FF0000000
003FF8000000
001FFC000000
000FFC000000
0007FE000000
0003FF000000
0001FF000000
0000FF800000
00007FC00000
00003FC00000
000000000000
000000000000
000000000000
000000000000
000000000000
000000000000
00007FE00000
0003FFFC0000
001FFFFF8000
003FFFFFC000
00FFFFFFF000
01FFFFFFF800
03FFFFFFFC00
07FFFFFFFE00
07FFFFFFFE00
0FFF803FFF00
1FFF000FFF80
1FFE0007FF80
3FFC0003FFC0
3FF80001FFC0
7FF00001FFC0
7FF00000FFE0
7FF00000FFE0
7FE000007FE0
FFE000007FE0
FFE000007FF0
FFE000007FF0
FFE000007FF0
FFC000007FF0
FFC000003FF0
FFC000003FF0
FFC000003FF0
FFC000003FF0
FFC000007FF0
FFE000007FF0
FFE000007FF0
FFE000007FF0
FFE000007FF0
7FE000007FE0
7FF00000FFE0
7FF00000FFE0
7FF00001FFC0
3FF80001FFC0
3FFC0003FFC0
1FFE0007FF80
1FFF000FFF80
0FFF801FFF00
07FFFFFFFE00
07FFFFFFFE00
03FFFFFFFC00
01FFFFFFF800
00FFFFFFF000
003FFFFFC000
001FFFFF8000
0007FFFC0000
00007FE00000
ENDCHAR
STARTCHAR oacute
ENCODING 243
SWIDTH 600 0
DWIDTH 54 0
BBX 44 68 5 -1
BITMAP
0000007FFC00
0000007FF000
000000FFE000
000001FFC000
000001FF8000
000003FF0000
000007FE0000
000007FC0000
00000FF80000
00001FF00000
00001FE00000
00003FC00000
000000000000
000000000000
000000000000
000000000000
000000000000
000000000000
00007FE00000
0003FFFC0000
001FFFFF8000
003FFFFFC000
00FFFFFFF000
01FFFFFFF800
03FFFFFFFC00
07FFFFFFFE00
07FFFFFFFE00
0FFF803FFF00
1FFF000FFF80
1FFE0007FF80
3FFC0003FFC0
3FF80001FFC0
7FF00001FFC0
7FF00000FFE0
7FF00000FFE0
7FE000007FE0
FFE000007FE0
FFE000007FF0
FFE000007FF0
FFE000007FF0
FFC000007FF0
FFC000003FF0
FFC000003FF0
FFC000003FF0
FFC000003FF0
FFC000007FF0
FFE000007FF0
FFE000007FF0
FFE000007FF0
FFE000007FF0
7FE000007FE0
7FF00000FFE0
7FF00000FFE0
7FF00001FFC0
3FF80001FFC0
3FFC0003FFC0
1FFE0007FF80
1FFF000FFF80
0FFF801FFF00
07FFFFFFFE00
07FFFFFFFE00
03FFFFFFFC00
01FFFFFFF800
00FFFFFFF000
003FFFFFC000
001FFFFF8000
0007FFFC0000
00007FE00000
ENDCHAR
STARTCHAR ocircumflex
ENCODING 244
SWIDTH 600 0
DWIDTH 54 0
BBX 44 69 5 -1
BITMAP
00003FC00000
00007FE00000
0000FFF00000
0001FFF80000
0003FFFC0000
0007FFFE0000
000FF9FF0000
001FF0FF8000
003FE07FE000
007FC03FF000
01FF801FF800
01FF000FF800
000000000000
000000000000
000000000000
000000000000
000000000000
000000000000
000000000000
00007FE00000
0003FFFC0000
001FFFFF8000
003FFFFFC000
00FFFFFFF000
01FFFFFFF800
03FFFFFFFC00
07FFFFFFFE00
07FFFFFFFE00
0FFF803FFF00
1FFF000FFF80
1FFE0007FF80
3FFC0003FFC0
3FF80001FFC0
7FF00001FFC0
7FF00000FFE0
7FF00000FFE0
7FE000007FE0
FFE000007FE0
FFE000007FF0
FFE000007FF0
FFE000007FF0
FFC000007FF0
FFC000003FF0
FFC000003FF0
FFC000003FF0
FFC000003FF0
FFC000007FF0
FFE000007FF0
FFE000007FF0
FFE000007FF0
FFE000007FF0
7FE000007FE0
7FF00000FFE0
7FF00000FFE0
7FF00001FFC0
3FF80001FFC0
3FFC0003FFC0
1FFE0007FF80
1FFF000FFF80
0FFF801FFF00
07FFFFFFFE00
07FFFFFFFE00
03FFFFFFFC00
01FFFFFFF800
00FFFFFFF000
003FFFFFC000
001FFFFF8000
0007FFFC0000
00007FE00000
ENDCHAR
STARTCHAR otilde
ENCODING 245
SWIDTH 600 0
DWIDTH 54 0
BBX 44 70 5 -1
BITMAP
000000008000
0007E000F800
001FF800FC00
003FFE01FC00
007FFF83F800
00FFFFFFF800
00FFFFFFF800
01FFFFFFF000
01FC1FFFE000
01F807FFE000
03F001FF8000
01F0007E0000
001000000000
000000000000
000000000000
000000000000
000000000000
000000000000
000000000000
000000000000
00007FE00000
0003FFFC0000
001FFFFF8000
003FFFFFC000
00FFFFFFF000
01FFFFFFF800
03FFFFFFFC00
07FFFFFFFE00
07FFFFFFFE00
0FFF803FFF00
1FFF000FFF80
1FFE0007FF80
3FFC0003FFC0
3FF80001FFC0
7FF00001FFC0
7FF00000FFE0
7FF00000FFE0
7FE000007FE0
FFE000007FE0
FFE000007FF0
FFE000007FF0
FFE000007FF0
FFC000007FF0
FFC000003FF0
FFC000003FF0
FFC000003FF0
FFC000003FF0
FFC000007FF0
FFE000007FF0
FFE000007FF0
FFE000007FF0
FFE000007FF0
7FE000007FE0
7FF00000FFE0
7FF00000FFE0
7FF00001FFC0
3FF80001FFC0
3FFC0003FFC0
1FFE0007FF80
1FFF000FFF80
0FFF801FFF00
07FFFFFFFE00
07FFFFFFFE00
03FFFFFFFC00
01FFFFFFF800
00FFFFFFF000
003FFFFFC000
001FFFFF8000
0007FFFC0000
00007FE00000
ENDCHAR
STARTCHAR odieresis
ENCODING 246
SWIDTH 600 0
DWIDTH 54 0
BBX 44 68 5 -1
BITMAP
007E0007E000
00FF000FF000
01FF801FF800
01FF801FF800
03FFC03FF800
03FFC03FF800
01FF801FF800
01FF801FF800
00FF000FF000
007E0007E000
000000000000
000000000000
000000000000
000000000000
000000000000
000000000000
000000000000
000000000000
00007FE00000
0003FFFC0000
001FFFFF8000
003FFFFFC000
00FFFFFFF000
01FFFFFFF800
03FFFFFFFC00
07FFFFFFFE00
07FFFFFFFE00
0FFF803FFF00
1FFF000FFF80
1FFE0007FF80
3FFC0003FFC0
3FF80001FFC0
7FF00001FFC0
7FF00000FFE0
7FF00000FFE0
7FE000007FE0
FFE000007FE0
FFE000007FF0
FFE000007FF0
FFE000007FF0
FFC000007FF0
FFC000003FF0
FFC000003FF0
FFC000003FF0
FFC000003FF0
FFC000007FF0
FFE000007FF0
FFE000007FF0
FFE000007FF0
FFE000007FF0
7FE000007FE0
7FF00000FFE0
7FF00000FFE0
7FF00001FFC0
3FF80001FFC0
3FFC0003FFC0
1FFE0007FF80
1FFF000FFF80
0FFF801FFF00
07FFFFFFFE00
07FFFFFFFE00
03FFFFFFFC00
01FFFFFFF800
00FFFFFFF000
003FFFFFC000
001FFFFF8000
0007FFFC0000
00007FE00000
ENDCHAR
STARTCHAR divide
ENCODING 247
SWIDTH 600 0
DWIDTH 54 0
BBX 44 47 5 7
BITMAP
00001F800000
00003FC00000
00007FE00000
0000FFF00000
0000FFF00000
0000FFF00000
0000FFF00000
0000FFF00000
00007FE00000
00003FC00000
00001F800000
000000000000
000000000000
000000000000
000000000000
000000000000
000000000000
000000000000
000000000000
FFFFFFFFFFF0
FFFFFFFFFFF0
FFFFFFFFFFF0
FFFFFFFFFFF0
FFFFFFFFFFF0
FFFFFFFFFFF0
FFFFFFFFFFF0
FFFFFFFFFFF0
FFFFFFFFFFF0
000000000000
000000000000
000000000000
000000000000
000000000000
000000000000
000000000000
000000000000
00001F800000
00003FC00000
00007FE00000
0000FFF00000
0000FFF00000
0000FFF00000
0000FFF00000
0000FFF00000
00007FE00000
00003FC00000
00001F800000
ENDCHAR
STARTCHAR oslash
ENCODING 248
SWIDTH 600 0
DWIDTH 54 0
BBX 44 60 5 -6
BITMAP
000000003F00
000000007E00
000000007E00
00000000FC00
00000000FC00
00007FE1FC00
0003FFFDF800
001FFFFFF800
003FFFFFF000
00FFFFFFF000
01FFFFFFF800
03FFFFFFFC00
07FFFFFFFE00
07FFFFFFFE00
0FFF803FFF00
1FFF003FFF80
1FFE003FFF80
3FFC007FFFC0
3FF8007FFFC0
7FF000FFFFC0
7FF000FCFFE0
7FF001FCFFE0
7FE001F87FE0
FFE003F87FF0
FFE003F07FF0
FFE007F07FF0
FFE007E07FF0
FFC00FE07FF0
FFC00FC03FF0
FFC00FC03FF0
FFC01F803FF0
FFC01F803FF0
FFC03F007FF0
FFE03F007FF0
FFE07E007FF0
FFE07E007FF0
FFE0FC007FF0
7FE0FC007FE0
7FF1FC00FFE0
7FF1F800FFE0
7FF3F801FFC0
3FFBF001FFC0
3FFFF003FFC0
1FFFE007FF80
1FFFE00FFF80
0FFFC01FFF00
0FFFFFFFFE00
07FFFFFFFE00
03FFFFFFFC00
01FFFFFFF800
00FFFFFFF000
007FFFFFC000
00FFFFFF8000
00FFFFFC0000
01FC7FE00000
01F800000000
03F800000000
03F000000000
07F000000000
07E000000000
ENDCHAR
STARTCHAR ugrave
ENCODING 249
SWIDTH 600 0
DWIDTH 54 0
BBX 40 67 7 -1
BITMAP
07FF800000
03FFC00000
01FFC00000
00FFE00000
007FF00000
003FF00000
001FF80000
000FFC0000
0007FC0000
0003FE0000
0001FF0000
0000FF8000
0000000000
0000000000
0000000000
0000000000
0000000000
0000000000
FFE00003FF
FFE00003FF
FFE00003FF
FFE00003FF
FFE00003FF
FFE00003FF
FFE00003FF
FFE00003FF
FFE00003FF
FFE00003FF
FFE00003FF
FFE00003FF
FFE00003FF
FFE00003FF
FFE00003FF
FFE00003FF
FFE00003FF
FFE00003FF
FFE00003FF
FFE00003FF
FFE00003FF
FFE00003FF
FFE00003FF
FFE00003FF
FFE00003FF
FFE00003FF
FFE00003FF
FFE00003FF
FFE00003FF
FFE00003FF
FFE00003FF
FFE00003FF
FFE00003FF
FFE00003FF
7FE00003FF
7FE00007FF
7FF0000FFF
7FF0000FFF
3FF8003FFF
3FFC007FFF
3FFFFFFFFF
1FFFFFFFFF
1FFFFFFFFF
0FFFFFFBFF
07FFFFF1FF
03FFFFE1FF
01FFFF81FF
007FFF01FF
000FF80000
ENDCHAR
STARTCHAR uacute
ENCODING 250
SWIDTH 600 0
DWIDTH 54 0
BBX 40 67 7 -1
BITMAP
000001FFF0
000001FFC0
000003FF80
000007FF00
000007FE00
00000FFC00
00001FF800
00001FF000
00003FE000
00007FC000
00007F8000
0000FF0000
0000000000
0000000000
0000000000
0000000000
0000000000
0000000000
FFE00003FF
FFE00003FF
FFE00003FF
FFE00003FF
FFE00003FF
FFE00003FF
FFE00003FF
FFE00003FF
FFE00003FF
FFE00003FF
FFE00003FF
FFE00003FF
FFE00003FF
FFE00003FF
FFE00003FF
FFE00003FF
FFE00003FF
FFE00003FF
FFE00003FF
FFE00003FF
FFE00003FF
FFE00003FF
FFE00003FF
FFE00003FF
FFE00003FF
FFE00003FF
FFE00003FF
FFE00003FF
FFE00003FF
FFE00003FF
FFE00003FF
FFE00003FF
FFE00003FF
FFE00003FF
7FE00003FF
7FE00007FF
7FF0000FFF
7FF0000FFF
3FF8003FFF
3FFC007FFF
3FFFFFFFFF
1FFFFFFFFF
1FFFFFFFFF
0FFFFFFBFF
07FFFFF1FF
03FFFFE1FF
01FFFF81FF
007FFF01FF
000FF80000
ENDCHAR
STARTCHAR ucircumflex
ENCODING 251
SWIDTH 600 0
DWIDTH 54 0
BBX 40 68 7 -1
BITMAP
00007F0000
0001FF8000
0003FFC000
0007FFE000
000FFFF000
001FFFF800
003FF7FC00
007FC3FF00
00FF81FF80
01FF00FFC0
03FE007FE0
07FC003FE0
0000000000
0000000000
0000000000
0000000000
0000000000
0000000000
0000000000
FFE00003FF
FFE00003FF
FFE00003FF
FFE00003FF
FFE00003FF
FFE00003FF
FFE00003FF
FFE00003FF
FFE00003FF
FFE00003FF
FFE00003FF
FFE00003FF
FFE00003FF
FFE00003FF
FFE00003FF
FFE00003FF
FFE00003FF
FFE00003FF
FFE00003FF
FFE00003FF
FFE00003FF
FFE00003FF
FFE00003FF
FFE00003FF
FFE00003FF
FFE00003FF
FFE00003FF
FFE00003FF
FFE00003FF
FFE00003FF
FFE00003FF
FFE00003FF
FFE00003FF
FFE00003FF
7FE00003FF
7FE00007FF
7FF0000FFF
7FF0000FFF
3FF8003FFF
3FFC007FFF
3FFFFFFFFF
1FFFFFFFFF
1FFFFFFFFF
0FFFFFFBFF
07FFFFF1FF
03FFFFE1FF
01FFFF81FF
007FFF01FF
000FF80000
ENDCHAR
STARTCHAR udieresis
ENCODING 252
SWIDTH 600 0
DWIDTH 54 0
BBX 40 67 7 -1
BITMAP
01F8001F80
03FC003FC0
07FE007FE0
07FE007FE0
07FF007FF0
07FF007FF0
07FE007FE0
07FE007FE0
03FC003FC0
01F8001F80
0000000000
0000000000
0000000000
0000000000
0000000000
0000000000
0000000000
0000000000
FFE00003FF
FFE00003FF
FFE00003FF
FFE00003FF
FFE00003FF
FFE00003FF
FFE00003FF
FFE00003FF
FFE00003FF
FFE00003FF
FFE00003FF
FFE00003FF
FFE00003FF
FFE00003FF
FFE00003FF
FFE00003FF
FFE00003FF
FFE00003FF
FFE00003FF
FFE00003FF
FFE00003FF
FFE00003FF
FFE00003FF
FFE00003FF
FFE00003FF
FFE00003FF
FFE00003FF
FFE00003FF
FFE00003FF
FFE00003FF
FFE00003FF
FFE00003FF
FFE00003FF
FFE00003FF
7FE00003FF
7FE00007FF
7FF0000FFF
7FF0000FFF
3FF8003FFF
3FFC007FFF
3FFFFFFFFF
1FFFFFFFFF
1FFFFFFFFF
0FFFFFFBFF
07FFFFF1FF
03FFFFE1FF
01FFFF81FF
007FFF01FF
000FF80000
ENDCHAR
STARTCHAR yacute
ENCODING 253
SWIDTH 600 0
DWIDTH 54 0
BBX 49 85 3 -19
BITMAP
0000000FFF8000
0000000FFE0000
0000001FFC0000
0000003FF80000
0000003FF00000
0000007FE00000
000000FFC00000
000000FF800000
000001FF000000
000003FE000000
000003FC000000
000007F8000000
00000000000000
00000000000000
00000000000000
00000000000000
00000000000000
00000000000000
FFE0000003FF80
FFF0000007FF80
7FF0000007FF00
7FF800000FFF00
3FF800000FFF00
3FF800000FFE00
3FFC00001FFE00
1FFC00001FFC00
1FFE00001FFC00
0FFE00003FF800
0FFE00003FF800
07FF00007FF000
07FF00007FF000
03FF80007FF000
03FF8000FFE000
03FF8000FFE000
01FFC001FFC000
01FFC001FFC000
00FFE001FF8000
00FFE003FF8000
007FE003FF8000
007FF003FF0000
003FF007FF0000
003FF807FE0000
003FF80FFE0000
001FF80FFC0000
001FFC0FFC0000
000FFC1FF80000
000FFE1FF80000
0007FE3FF80000
0007FE3FF00000
0007FE3FF00000
0003FF7FE00000
0003FF7FE00000
0001FF7FC00000
0001FFFFC00000
0000FFFF800000
0000FFFF800000
00007FFF800000
00007FFF000000
00007FFF000000
00003FFE000000
00003FFE000000
00001FFC000000
00001FFC000000
00000FFC000000
00001FF8000000
00001FF8000000
00003FF0000000
00003FF0000000
00007FE0000000
00007FE0000000
0000FFC0000000
0000FFC0000000
0001FFC0000000
0003FF80000000
0007FF80000000
000FFF00000000
03FFFF00000000
07FFFE00000000
07FFFC00000000
07FFF800000000
07FFF000000000
07FFE000000000
0FFFC000000000
0FFF0000000000
07FC0000000000
ENDCHAR
STARTCHAR thorn
ENCODING 254
SWIDTH 600 0
DWIDTH 54 0
BBX 41 87 7 -18
BITMAP
FFC000000000
FFC000000000
FFC000000000
FFC000000000
FFC000000000
FFC000000000
FFC000000000
FFC000000000
FFC000000000
FFC000000000
FFC000000000
FFC000000000
FFC000000000
FFC000000000
FFC000000000
FFC000000000
FFC000000000
FFC000000000
FFC000000000
FFC000000000
FFC03FE00000
FFC1FFFC0000
FFC3FFFF0000
FFCFFFFFC000
FFDFFFFFE000
FFFFFFFFF000
FFFFFFFFF000
FFFFFFFFF800
FFFFFFFFFC00
FFFE00FFFC00
FFFC003FFE00
FFF0001FFE00
FFF0000FFF00
FFE0000FFF00
FFC00007FF00
FFC00007FF00
FFC00003FF80
FFC00003FF80
FFC00003FF80
FFC00001FF80
FFC00001FF80
FFC00001FF80
FFC00001FF80
FFC00001FF80
FFC00001FF80
FFC00001FF80
FFC00001FF80
FFC00001FF80
FFC00001FF80
FFC00001FF80
FFC00003FF80
FFC00003FF80
FFC00003FF80
FFC00003FF80
FFC00007FF00
FFC00007FF00
FFE0000FFF00
FFE0000FFF00
FFF0001FFE00
FFF8003FFE00
FFFE00FFFC00
FFFFFFFFFC00
FFFFFFFFF800
FFFFFFFFF000
FFFFFFFFF000
FFDFFFFFC000
FFCFFFFF8000
FFC7FFFF0000
FFC1FFFC0000
FFC03FE00000
FFC000000000
FFC000000000
FFC000000000
FFC000000000
FFC000000000
FFC000000000
FFC000000000
FFC000000000
FFC000000000
FFC000000000
FFC000000000
FFC000000000
FFC000000000
FFC000000000
FFC000000000
FFC000000000
FFC000000000
ENDCHAR
STARTCHAR ydieresis
ENCODING 255
SWIDTH 600 0
DWIDTH 54 0
BBX 49 85 3 -19
BITMAP
000FC000FC0000
001FE001FE0000
003FF003FF0000
003FF003FF0000
007FF007FF0000
007FF807FF0000
003FF003FF0000
003FF003FF0000
001FE001FE0000
000FC000FC0000
00000000000000
00000000000000
00000000000000
00000000000000
00000000000000
00000000000000
00000000000000
00000000000000
FFE0000003FF80
FFF0000007FF80
7FF0000007FF00
7FF800000FFF00
3FF800000FFF00
3FF800000FFE00
3FFC00001FFE00
1FFC00001FFC00
1FFE00001FFC00
0FFE00003FF800
0FFE00003FF800
07FF00007FF000
07FF00007FF000
03FF80007FF000
03FF8000FFE000
03FF8000FFE000
01FFC001FFC000
01FFC001FFC000
00FFE001FF8000
00FFE003FF8000
007FE003FF8000
007FF003FF0000
003FF007FF0000
003FF807FE0000
003FF80FFE0000
001FF80FFC0000
001FFC0FFC0000
000FFC1FF80000
000FFE1FF80000
0007FE3FF80000
0007FE3FF00000
0007FE3FF00000
0003FF7FE00000
0003FF7FE00000
0001FF7FC00000
0001FFFFC00000
0000FFFF800000
0000FFFF800000
00007FFF800000
00007FFF000000
00007FFF000000
00003FFE000000
00003FFE000000
00001FFC000000
00001FFC000000
00000FFC000000
00001FF8000000
00001FF8000000
00003FF0000000
00003FF0000000
00007FE0000000
00007FE0000000
0000FFC0000000
0000FFC0000000
0001FFC0000000
0003FF80000000
0007FF80000000
000FFF00000000
03FFFF00000000
07FFFE00000000
07FFFC00000000
07FFF800000000
07FFF000000000
07FFE000000000
0FFFC000000000
0FFF0000000000
07FC0000000000
ENDCHAR
STARTCHAR Amacron
ENCODING 256
SWIDTH 600 0
DWIDTH 54 0
BBX 51 79 2 0
BITMAP
003FFFFFFFC000
003FFFFFFFC000
003FFFFFFFC000
003FFFFFFFC000
003FFFFFFFC000
003FFFFFFFC000
003FFFFFFFC000
00000000000000
00000000000000
00000000000000
00000000000000
00000000000000
00000000000000
00000000000000
000007FE000000
000007FE000000
00000FFE000000
00000FFE000000
00000FFF000000
00001FFF000000
00001FFF000000
00001FFF800000
00003FFF800000
00003FFF800000
00003FFFC00000
00007FFFC00000
00007FFFC00000
00007FFFE00000
0000FFFFE00000
0000FFFFE00000
0000FFBFF00000
0001FFBFF00000
0001FF9FF00000
0001FF9FF00000
0003FF1FF80000
0003FF1FF80000
0003FF0FF80000
0003FE0FFC0000
0007FE0FFC0000
0007FE07FC0000
0007FE07FE0000
000FFC07FE0000
000FFC07FE0000
000FFC03FF0000
001FF803FF0000
001FF803FF0000
001FF801FF8000
003FF001FF8000
003FF001FF8000
003FF001FF8000
007FF000FFC000
007FE000FFC000
007FE000FFC000
00FFE0007FE000
00FFC0007FE000
00FFFFFFFFE000
01FFFFFFFFF000
01FFFFFFFFF000
01FFFFFFFFF000
01FFFFFFFFF800
03FFFFFFFFF800
03FFFFFFFFF800
03FFFFFFFFFC00
07FFFFFFFFFC00
07FE00000FFC00
07FE00000FFE00
0FFE00000FFE00
0FFC000007FE00
0FFC000007FE00
1FFC000007FF00
1FFC000003FF00
1FF8000003FF00
3FF8000003FF80
3FF8000003FF80
3FF0000001FF80
7FF0000001FFC0
7FF0000001FFC0
7FF0000001FFC0
FFE0000000FFE0
ENDCHAR
STARTCHAR amacron
ENCODING 257
SWIDTH 600 0
DWIDTH 54 0
BBX 42 66 6 -1
BITMAP
07FFFFFFF800
07FFFFFFF800
07FFFFFFF800
07FFFFFFF800
07FFFFFFF800
07FFFFFFF800
07FFFFFFF800
000000000000
000000000000
000000000000
000000000000
000000000000
000000000000
000000000000
000000000000
000000000000
0001FFC00000
000FFFFC0000
007FFFFF0000
00FFFFFF8000
03FFFFFFE000
07FFFFFFF000
0FFFFFFFF800
1FFFFFFFF800
1FFFFFFFFC00
3FFE007FFE00
3FF8001FFE00
7FF8000FFE00
7FF0000FFF00
7FF00007FF00
7FE00007FF00
00000007FF00
00000003FF00
00000003FF00
00000003FF00
00000003FF00
0001FFFFFF00
001FFFFFFF00
00FFFFFFFF00
03FFFFFFFF00
07FFFFFFFF00
0FFFFFFFFF00
1FFFFFFFFF00
3FFF8003FF00
3FFC0003FF00
7FF80003FF00
7FF00003FF00
FFE00003FF00
FFE00003FF00
FFC00003FF00
FFC00003FF00
FFC00003FF00
FFE00007FF00
FFE0000FFF00
FFE0001FFF00
FFF0003FFF00
7FFC00FFFF00
7FFFFFFFFF00
3FFFFFFFFF00
3FFFFFFFFF00
1FFFFFFFFF80
0FFFFFFBFF80
07FFFFF3FF80
01FFFFC1FF80
007FFF01FFC0
000FF8000000
ENDCHAR
STARTCHAR Abreve
ENCODING 258
SWIDTH 600 0
DWIDTH 54 0
BBX 51 83 2 0
BITMAP
000FF000FF0000
000FF000FF0000
000FF000FF0000
000FF001FE0000
000FF803FE0000
0007FE07FE0000
0003FFFFFC0000
0003FFFFF80000
0001FFFFF00000
00007FFFE00000
00003FFF800000
000007FC000000
00000000000000
00000000000000
00000000000000
00000000000000
00000000000000
00000000000000
000007FE000000
000007FE000000
00000FFE000000
00000FFE000000
00000FFF000000
00001FFF000000
00001FFF000000
00001FFF800000
00003FFF800000
00003FFF800000
00003FFFC00000
00007FFFC00000
00007FFFC00000
00007FFFE00000
0000FFFFE00000
0000FFFFE00000
0000FFBFF00000
0001FFBFF00000
0001FF9FF00000
0001FF9FF00000
0003FF1FF80000
0003FF1FF80000
0003FF0FF80000
0003FE0FFC0000
0007FE0FFC0000
0007FE07FC0000
0007FE07FE0000
000FFC07FE0000
000FFC07FE0000
000FFC03FF0000
001FF803FF0000
001FF803FF0000
001FF801FF8000
003FF001FF8000
003FF001FF8000
003FF001FF8000
007FF000FFC000
007FE000FFC000
007FE000FFC000
00FFE0007FE000
00FFC0007FE000
00FFFFFFFFE000
01FFFFFFFFF000
01FFFFFFFFF000
01FFFFFFFFF000
01FFFFFFFFF800
03FFFFFFFFF800
03FFFFFFFFF800
03FFFFFFFFFC00
07FFFFFFFFFC00
07FE00000FFC00
07FE00000FFE00
0FFE00000FFE00
0FFC000007FE00
0FFC000007FE00
1FFC000007FF00
1FFC000003FF00
1FF8000003FF00
3FF8000003FF80
3FF8000003FF80
3FF0000001FF80
7FF0000001FFC0
7FF0000001FFC0
7FF0000001FFC0
FFE0000000FFE0
ENDCHAR
STARTCHAR abreve
ENCODING 259
SWIDTH 600 0
DWIDTH 54 0
BBX 42 70 6 -1
BITMAP
01FE001FE000
01FE001FE000
01FE001FE000
01FF003FE000
00FF007FC000
00FFC0FFC000
007FFFFF8000
007FFFFF0000
003FFFFE0000
000FFFFC0000
0007FFF00000
0000FF800000
000000000000
000000000000
000000000000
000000000000
000000000000
000000000000
000000000000
000000000000
0001FFC00000
000FFFFC0000
007FFFFF0000
00FFFFFF8000
03FFFFFFE000
07FFFFFFF000
0FFFFFFFF800
1FFFFFFFF800
1FFFFFFFFC00
3FFE007FFE00
3FF8001FFE00
7FF8000FFE00
7FF0000FFF00
7FF00007FF00
7FE00007FF00
00000007FF00
00000003FF00
00000003FF00
00000003FF00
00000003FF00
0001FFFFFF00
001FFFFFFF00
00FFFFFFFF00
03FFFFFFFF00
07FFFFFFFF00
0FFFFFFFFF00
1FFFFFFFFF00
3FFF8003FF00
3FFC0003FF00
7FF80003FF00
7FF00003FF00
FFE00003FF00
FFE00003FF00
FFC00003FF00
FFC00003FF00
FFC00003FF00
FFE00007FF00
FFE0000FFF00
FFE0001FFF00
FFF0003FFF00
7FFC00FFFF00
7FFFFFFFFF00
3FFFFFFFFF00
3FFFFFFFFF00
1FFFFFFFFF80
0FFFFFFBFF80
07FFFFF3FF80
01FFFFC1FF80
007FFF01FFC0
000FF8000000
ENDCHAR
STARTCHAR Aogonek
ENCODING 260
SWIDTH 600 0
DWIDTH 54 0
BBX 51 84 2 -19
BITMAP
000007FE000000
000007FE000000
00000FFE000000
00000FFE000000
00000FFF000000
00001FFF000000
00001FFF000000
00001FFF800000
00003FFF800000
00003FFF800000
00003FFFC00000
00007FFFC00000
00007FFFC00000
00007FFFE00000
0000FFFFE00000
0000FFFFE00000
0000FFBFF00000
0001FFBFF00000
0001FF9FF00000
0001FF9FF00000
0003FF1FF80000
0003FF1FF80000
0003FF0FF80000
0003FE0FFC0000
0007FE0FFC0000
0007FE07FC0000
0007FE07FE0000
000FFC07FE0000
000FFC07FE0000
000FFC03FF0000
001FF803FF0000
001FF803FF0000
001FF801FF8000
003FF001FF8000
003FF001FF8000
003FF001FF8000
007FF000FFC000
007FE000FFC000
007FE000FFC000
00FFE0007FE000
00FFC0007FE000
00FFFFFFFFE000
01FFFFFFFFF000
01FFFFFFFFF000
01FFFFFFFFF000
01FFFFFFFFF800
03FFFFFFFFF800
03FFFFFFFFF800
03FFFFFFFFFC00
07FFFFFFFFFC00
07FE00000FFC00
07FE00000FFE00
0FFE00000FFE00
0FFC000007FE00
0FFC000007FE00
1FFC000007FF00
1FFC000003FF00
1FF8000003FF00
3FF8000003FF80
3FF8000003FF80
3FF0000001FF80
7FF0000001FFC0
7FF0000001FFC0
7FF0000001FFC0
FFE0000001FFE0
0000000003FE00
0000000007F800
000000000FF000
000000001FE000
000000003FC000
000000003FC000
000000007F8000
000000007F8000
000000007F8000
00000000FF8000
00000000FF8000
000000007FC100
000000007FFF00
000000007FFF80
000000007FFF80
000000003FFF80
000000001FFFC0
000000000FFF80
0000000003FC00
ENDCHAR
STARTCHAR aogonek
ENCODING 261
SWIDTH 600 0
DWIDTH 54 0
BBX 42 68 6 -19
BITMAP
0001FFC00000
001FFFFC0000
007FFFFF0000
01FFFFFFC000
03FFFFFFE000
07FFFFFFF000
0FFFFFFFF800
1FFFFFFFFC00
1FFFFFFFFC00
3FFE007FFE00
3FF8001FFE00
7FF0000FFE00
7FF00007FF00
7FF00007FF00
7FE00007FF00
00000003FF00
00000003FF00
00000003FF00
00000003FF00
0001FFFFFF00
001FFFFFFF00
00FFFFFFFF00
01FFFFFFFF00
07FFFFFFFF00
0FFFFFFFFF00
1FFFFFFFFF00
3FFFC003FF00
3FFE0003FF00
7FF80003FF00
7FF00003FF00
FFE00003FF00
FFE00003FF00
FFE00003FF00
FFC00003FF00
FFC00003FF00
FFC00007FF00
FFE00007FF00
FFE0000FFF00
FFF0001FFF00
FFF0003FFF00
7FFC00FFFF00
7FFFFFFFFF00
3FFFFFFFFF00
3FFFFFFFFF00
1FFFFFFFFF80
0FFFFFFBFF80
07FFFFF3FF80
01FFFFC1FFC0
007FFF01FFC0
000FF803FE00
00000007FC00
0000000FF000
0000001FE000
0000003FC000
0000003FC000
0000007F8000
0000007F8000
000000FF8000
000000FF8000
000000FF8000
000000FFC100
0000007FFF00
0000007FFF80
0000007FFF80
0000003FFF80
0000001FFFC0
0000000FFF80
00000003FC00
ENDCHAR
STARTCHAR Cacute
ENCODING 262
SWIDTH 600 0
DWIDTH 54 0
BBX 46 83 4 -1
BITMAP
00000007FF80
0000000FFF00
0000000FFE00
0000001FFC00
0000003FF800
0000003FF000
0000007FE000
000000FFC000
000000FF8000
000001FF0000
000003FE0000
000007FC0000
000000000000
000000000000
000000000000
000000000000
00003FF80000
0001FFFF0000
0007FFFFE000
001FFFFFF000
003FFFFFFC00
007FFFFFFE00
00FFFFFFFF00
01FFFFFFFF80
03FFFFFFFF80
07FFE00FFFC0
07FF8003FFE0
0FFF0001FFE0
0FFE0000FFF0
1FFC00007FF0
1FFC00007FF0
3FF800003FF8
3FF800003FF8
3FF000001FF8
7FF000001FF8
7FF000001FF8
7FE000001FFC
7FE000000000
FFE000000000
FFE000000000
FFE000000000
FFE000000000
FFE000000000
FFE000000000
FFE000000000
FFE000000000
FFE000000000
FFE000000000
FFE000000000
FFE000000000
FFE000000000
FFE000000000
FFE000000000
FFE000000000
FFE000000000
FFE000000000
FFE000000000
FFE000000000
FFE000000000
FFE000000000
FFE000000000
7FE000000000
7FE000001FFC
7FF000001FFC
7FF000001FF8
3FF000001FF8
3FF800003FF8
3FF800003FF8
1FF800003FF0
1FFC00007FF0
1FFE0000FFF0
0FFF0001FFE0
07FF8003FFE0
07FFC007FFC0
03FFFFFFFF80
01FFFFFFFF80
00FFFFFFFF00
007FFFFFFE00
003FFFFFF800
001FFFFFF000
0007FFFFC000
0001FFFF0000
00003FF00000
ENDCHAR
STARTCHAR cacute
ENCODING 263
SWIDTH 600 0
DWIDTH 54 0
BBX 42 68 6 -1
BITMAP
0000007FFC00
000000FFF000
000000FFE000
000001FFC000
000003FF8000
000003FF0000
000007FE0000
00000FFC0000
00000FF80000
00001FF00000
00003FE00000
00007FC00000
000000000000
000000000000
000000000000
000000000000
000000000000
000000000000
0000FFE00000
0007FFFC0000
001FFFFF0000
007FFFFFC000
00FFFFFFE000
01FFFFFFF000
03FFFFFFF800
07FFFFFFFC00
0FFFFFFFFE00
1FFF803FFE00
1FFE000FFF00
3FFC0007FF00
3FF80003FF80
7FF80003FF80
7FF00001FF80
7FF00001FF80
7FE00001FF80
FFE00000FF80
FFE000000040
FFC000000000
FFC000000000
FFC000000000
FFC000000000
FFC000000000
FFC000000000
FFC000000000
FFC000000000
FFC000000000
FFC000000000
FFC000000000
FFC000000000
FFE000000000
FFE000000000
7FE00000FFC0
7FF00001FF80
7FF00001FF80
7FF80001FF80
3FF80003FF80
3FFC0007FF00
1FFE000FFF00
1FFF803FFF00
0FFFFFFFFE00
07FFFFFFFC00
03FFFFFFF800
01FFFFFFF000
00FFFFFFE000
007FFFFFC000
001FFFFF0000
0007FFFC0000
0000FFE00000
ENDCHAR
STARTCHAR Ccircumflex
ENCODING 264
SWIDTH 600 0
DWIDTH 54 0
BBX 46 84 4 -1
BITMAP
000003F80000
000007FE0000
00000FFF0000
00001FFF8000
00003FFFC000
00007FFFE000
0001FFBFF000
0003FF1FF800
0007FE07FC00
000FFC03FE00
001FF801FF00
001FF000FF80
000000000000
000000000000
000000000000
000000000000
000000000000
00003FF80000
0001FFFF0000
0007FFFFE000
001FFFFFF000
003FFFFFFC00
007FFFFFFE00
00FFFFFFFF00
01FFFFFFFF80
03FFFFFFFF80
07FFE00FFFC0
07FF8003FFE0
0FFF0001FFE0
0FFE0000FFF0
1FFC00007FF0
1FFC00007FF0
3FF800003FF8
3FF800003FF8
3FF000001FF8
7FF000001FF8
7FF000001FF8
7FE000001FFC
7FE000000000
FFE000000000
FFE000000000
FFE000000000
FFE000000000
FFE000000000
FFE000000000
FFE000000000
FFE000000000
FFE000000000
FFE000000000
FFE000000000
FFE000000000
FFE000000000
FFE000000000
FFE000000000
FFE000000000
FFE000000000
FFE000000000
FFE000000000
FFE000000000
FFE000000000
FFE000000000
FFE000000000
7FE000000000
7FE000001FFC
7FF000001FFC
7FF000001FF8
3FF000001FF8
3FF800003FF8
3FF800003FF8
1FF800003FF0
1FFC00007FF0
1FFE0000FFF0
0FFF0001FFE0
07FF8003FFE0
07FFC007FFC0
03FFFFFFFF80
01FFFFFFFF80
00FFFFFFFF00
007FFFFFFE00
003FFFFFF800
001FFFFFF000
0007FFFFC000
0001FFFF0000
00003FF00000
ENDCHAR
STARTCHAR ccircumflex
ENCODING 265
SWIDTH 600 0
DWIDTH 54 0
BBX 42 69 6 -1
BITMAP
00003FC00000
00007FE00000
0000FFF00000
0001FFF80000
0003FFFC0000
0007FFFE0000
000FF9FF0000
001FF0FF8000
007FE07FC000
00FFC03FF000
01FF801FF800
01FF000FF800
000000000000
000000000000
000000000000
000000000000
000000000000
000000000000
000000000000
0000FFE00000
0007FFFC0000
001FFFFF0000
007FFFFFC000
00FFFFFFE000
01FFFFFFF000
03FFFFFFF800
07FFFFFFFC00
0FFFFFFFFE00
1FFF803FFE00
1FFE000FFF00
3FFC0007FF00
3FF80003FF80
7FF80003FF80
7FF00001FF80
7FF00001FF80
7FE00001FF80
FFE00000FF80
FFE000000040
FFC000000000
FFC000000000
FFC000000000
FFC000000000
FFC000000000
FFC000000000
FFC000000000
FFC000000000
FFC000000000
FFC000000000
FFC000000000
FFC000000000
FFE000000000
FFE000000000
7FE00000FFC0
7FF00001FF80
7FF00001FF80
7FF80001FF80
3FF80003FF80
3FFC0007FF00
1FFE000FFF00
1FFF803FFF00
0FFFFFFFFE00
07FFFFFFFC00
03FFFFFFF800
01FFFFFFF000
00FFFFFFE000
007FFFFFC000
001FFFFF0000
0007FFFC0000
0000FFE00000
ENDCHAR
STARTCHAR uni010A
ENCODING 266
SWIDTH 600 0
DWIDTH 54 0
BBX 46 83 4 -1
BITMAP
000001F00000
000007FC0000
000007FE0000
00000FFE0000
00000FFF0000
00000FFF0000
00000FFF0000
00000FFE0000
000007FE0000
000007FC0000
000001F00000
000000000000
000000000000
000000000000
000000000000
000000000000
00003FF80000
0001FFFF0000
0007FFFFE000
001FFFFFF000
003FFFFFFC00
007FFFFFFE00
00FFFFFFFF00
01FFFFFFFF80
03FFFFFFFF80
07FFE00FFFC0
07FF8003FFE0
0FFF0001FFE0
0FFE0000FFF0
1FFC00007FF0
1FFC00007FF0
3FF800003FF8
3FF800003FF8
3FF000001FF8
7FF000001FF8
7FF000001FF8
7FE000001FFC
7FE000000000
FFE000000000
FFE000000000
FFE000000000
FFE000000000
FFE000000000
FFE000000000
FFE000000000
FFE000000000
FFE000000000
FFE000000000
FFE000000000
FFE000000000
FFE000000000
FFE000000000
FFE000000000
FFE000000000
FFE000000000
FFE000000000
FFE000000000
FFE000000000
FFE000000000
FFE000000000
FFE000000000
7FE000000000
7FE000001FFC
7FF000001FFC
7FF000001FF8
3FF000001FF8
3FF800003FF8
3FF800003FF8
1FF800003FF0
1FFC00007FF0
1FFE0000FFF0
0FFF0001FFE0
07FF8003FFE0
07FFC007FFC0
03FFFFFFFF80
01FFFFFFFF80
00FFFFFFFF00
007FFFFFFE00
003FFFFFF800
001FFFFFF000
0007FFFFC000
0001FFFF0000
00003FF00000
ENDCHAR
STARTCHAR uni010B
ENCODING 267
SWIDTH 600 0
DWIDTH 54 0
BBX 42 69 6 -1
BITMAP
00001F800000
00003FC00000
00007FE00000
0000FFF00000
0000FFF00000
0000FFF00000
0000FFF00000
0000FFF00000
00007FE00000
00003FC00000
00001F800000
000000000000
000000000000
000000000000
000000000000
000000000000
000000000000
000000000000
000000000000
0000FFE00000
0007FFFC0000
001FFFFF0000
007FFFFFC000
00FFFFFFE000
01FFFFFFF000
03FFFFFFF800
07FFFFFFFC00
0FFFFFFFFE00
1FFF803FFE00
1FFE000FFF00
3FFC0007FF00
3FF80003FF80
7FF80003FF80
7FF00001FF80
7FF00001FF80
7FE00001FF80
FFE00000FF80
FFE000000040
FFC000000000
FFC000000000
FFC000000000
FFC000000000
FFC000000000
FFC000000000
FFC000000000
FFC000000000
FFC000000000
FFC000000000
FFC000000000
FFC000000000
FFE000000000
FFE000000000
7FE00000FFC0
7FF00001FF80
7FF00001FF80
7FF80001FF80
3FF80003FF80
3FFC0007FF00
1FFE000FFF00
1FFF803FFF00
0FFFFFFFFE00
07FFFFFFFC00
03FFFFFFF800
01FFFFFFF000
00FFFFFFE000
007FFFFFC000
001FFFFF0000
0007FFFC0000
0000FFE00000
ENDCHAR
STARTCHAR Ccaron
ENCODING 268
SWIDTH 600 0
DWIDTH 54 0
BBX 46 84 4 -1
BITMAP
003FF000FF80
001FF803FF00
000FFC07FE00
0007FE0FFC00
0003FF1FF800
0001FFBFF000
0000FFFFE000
00003FFFC000
00001FFF8000
00000FFF0000
000007FE0000
000003FC0000
000000000000
000000000000
000000000000
000000000000
000000000000
00003FF80000
0001FFFF0000
0007FFFFE000
001FFFFFF000
003FFFFFFC00
007FFFFFFE00
00FFFFFFFF00
01FFFFFFFF80
03FFFFFFFF80
07FFE00FFFC0
07FF8003FFE0
0FFF0001FFE0
0FFE0000FFF0
1FFC00007FF0
1FFC00007FF0
3FF800003FF8
3FF800003FF8
3FF000001FF8
7FF000001FF8
7FF000001FF8
7FE000001FFC
7FE000000000
FFE000000000
FFE000000000
FFE000000000
FFE000000000
FFE000000000
FFE000000000
FFE000000000
FFE000000000
FFE000000000
FFE000000000
FFE000000000
FFE000000000
FFE000000000
FFE000000000
FFE000000000
FFE000000000
FFE000000000
FFE000000000
FFE000000000
FFE000000000
FFE000000000
FFE000000000
FFE000000000
7FE000000000
7FE000001FFC
7FF000001FFC
7FF000001FF8
3FF000001FF8
3FF800003FF8
3FF800003FF8
1FF800003FF0
1FFC00007FF0
1FFE0000FFF0
0FFF0001FFE0
07FF8003FFE0
07FFC007FFC0
03FFFFFFFF80
01FFFFFFFF80
00FFFFFFFF00
007FFFFFFE00
003FFFFFF800
001FFFFFF000
0007FFFFC000
0001FFFF0000
00003FF00000
ENDCHAR
STARTCHAR ccaron
ENCODING 269
SWIDTH 600 0
DWIDTH 54 0
BBX 42 69 6 -1
BITMAP
01FF000FF800
01FF801FF800
00FFC03FF000
007FE07FC000
003FF1FF8000
000FFBFF0000
0007FFFE0000
0003FFFC0000
0001FFF80000
0000FFF00000
00007FE00000
00003FC00000
000000000000
000000000000
000000000000
000000000000
000000000000
000000000000
000000000000
0000FFE00000
0007FFFC0000
001FFFFF0000
007FFFFFC000
00FFFFFFE000
01FFFFFFF000
03FFFFFFF800
07FFFFFFFC00
0FFFFFFFFE00
1FFF803FFE00
1FFE000FFF00
3FFC0007FF00
3FF80003FF80
7FF80003FF80
7FF00001FF80
7FF00001FF80
7FE00001FF80
FFE00000FF80
FFE000000040
FFC000000000
FFC000000000
FFC000000000
FFC000000000
FFC000000000
FFC000000000
FFC000000000
FFC000000000
FFC000000000
FFC000000000
FFC000000000
FFC000000000
FFE000000000
FFE000000000
7FE00000FFC0
7FF00001FF80
7FF00001FF80
7FF80001FF80
3FF80003FF80
3FFC0007FF00
1FFE000FFF00
1FFF803FFF00
0FFFFFFFFE00
07FFFFFFFC00
03FFFFFFF800
01FFFFFFF000
00FFFFFFE000
007FFFFFC000
001FFFFF0000
0007FFFC0000
0000FFE00000
ENDCHAR
STARTCHAR Dcaron
ENCODING 270
SWIDTH 600 0
DWIDTH 54 0
BBX 44 82 6 0
BITMAP
1FF800FFC000
0FFC01FF8000
07FE03FF0000
03FF07FE0000
01FF8FFC0000
00FFDFF80000
007FFFF00000
003FFFE00000
001FFFC00000
000FFF000000
0003FE000000
0001FC000000
000000000000
000000000000
000000000000
000000000000
000000000000
FFFFFC000000
FFFFFFC00000
FFFFFFF00000
FFFFFFFC0000
FFFFFFFF0000
FFFFFFFF8000
FFFFFFFFE000
FFFFFFFFF000
FFFFFFFFF800
FFE003FFF800
FFE000FFFC00
FFE0003FFE00
FFE0001FFF00
FFE0000FFF00
FFE00007FF80
FFE00003FF80
FFE00003FFC0
FFE00001FFC0
FFE00001FFC0
FFE00000FFE0
FFE00000FFE0
FFE00000FFE0
FFE000007FE0
FFE000007FF0
FFE000007FF0
FFE000007FF0
FFE000007FF0
FFE000007FF0
FFE000007FF0
FFE000007FF0
FFE000007FF0
FFE000007FF0
FFE000007FF0
FFE000007FF0
FFE000007FF0
FFE000007FF0
FFE000007FF0
FFE000007FF0
FFE000007FF0
FFE000007FF0
FFE000007FF0
FFE000007FF0
FFE000007FE0
FFE00000FFE0
FFE00000FFE0
FFE00000FFE0
FFE00001FFC0
FFE00001FFC0
FFE00003FFC0
FFE00003FF80
FFE00007FF80
FFE0000FFF00
FFE0001FFF00
FFE0003FFE00
FFE000FFFC00
FFE003FFF800
FFFFFFFFF800
FFFFFFFFF000
FFFFFFFFE000
FFFFFFFF8000
FFFFFFFF0000
FFFFFFFC0000
FFFFFFF00000
FFFFFFC00000
FFFFFC000000
ENDCHAR
STARTCHAR dcaron
ENCODING 271
SWIDTH 673 0
DWIDTH 61 0
BBX 63 70 5 -1
BITMAP
00000000000003FE
00000001FFC003FE
00000001FFC003FE
00000001FFC003FE
00000001FFC003FE
00000001FFC003FE
00000001FFC003FE
00000001FFC003FE
00000001FFC003FE
00000001FFC003FE
00000001FFC003FE
00000001FFC003FE
00000001FFC007FC
00000001FFC007FC
00000001FFC007FC
00000001FFC007F8
00000001FFC00FF8
00000001FFC00FF0
00000001FFC01FF0
00000001FFC01FE0
0001FF01FFC03FE0
000FFFE1FFC03FC0
003FFFF1FFC00F80
007FFFFDFFC00700
00FFFFFFFFC00100
01FFFFFFFFC00000
03FFFFFFFFC00000
07FFFFFFFFC00000
0FFFFFFFFFC00000
0FFFC01FFFC00000
1FFF000FFFC00000
1FFE0007FFC00000
3FFC0003FFC00000
3FF80001FFC00000
3FF80001FFC00000
7FF00001FFC00000
7FF00001FFC00000
7FF00001FFC00000
7FF00001FFC00000
7FE00001FFC00000
7FE00001FFC00000
FFE00001FFC00000
FFE00001FFC00000
FFE00001FFC00000
FFE00001FFC00000
FFE00001FFC00000
FFE00001FFC00000
FFE00001FFC00000
FFE00001FFC00000
7FE00001FFC00000
7FE00001FFC00000
7FE00001FFC00000
7FF00001FFC00000
7FF00001FFC00000
7FF00001FFC00000
3FF80001FFC00000
3FF80001FFC00000
3FFC0003FFC00000
1FFE0007FFC00000
1FFF000FFFC00000
0FFF801FFFC00000
0FFFFFFFFFC00000
07FFFFFFFFC00000
03FFFFFFFFC00000
01FFFFFFFFC00000
00FFFFFEFFC00000
007FFFFCFFC00000
003FFFF0FFC00000
000FFFE0FFC00000
0001FF0000000000
ENDCHAR
STARTCHAR Dcroat
ENCODING 272
SWIDTH 614 0
DWIDTH 55 0
BBX 53 65 -2 0
BITMAP
007FFFFE000000
007FFFFFE00000
007FFFFFFC0000
007FFFFFFF0000
007FFFFFFF8000
007FFFFFFFE000
007FFFFFFFF000
007FFFFFFFF800
007FFFFFFFFC00
007FF001FFFE00
007FF0007FFF00
007FF0001FFF00
007FF0000FFF80
007FF00007FF80
007FF00003FFC0
007FF00001FFC0
007FF00000FFE0
007FF00000FFE0
007FF000007FF0
007FF000007FF0
007FF000007FF0
007FF000003FF0
007FF000003FF8
007FF000003FF8
007FF000003FF8
007FF000003FF8
007FF000003FF8
007FF000001FF8
FFFFFFFC001FF8
FFFFFFFC001FF8
FFFFFFFC001FF8
FFFFFFFC001FF8
FFFFFFFC001FF8
FFFFFFFC001FF8
FFFFFFFC001FF8
FFFFFFFC001FF8
007FF000001FF8
007FF000001FF8
007FF000003FF8
007FF000003FF8
007FF000003FF8
007FF000003FF8
007FF000003FF8
007FF000003FF0
007FF000007FF0
007FF000007FF0
007FF000007FF0
007FF00000FFE0
007FF00000FFE0
007FF00001FFC0
007FF00003FFC0
007FF00007FF80
007FF00007FF80
007FF0001FFF00
007FF0003FFF00
007FF001FFFE00
007FFFFFFFFC00
007FFFFFFFF800
007FFFFFFFF000
007FFFFFFFE000
007FFFFFFF8000
007FFFFFFF0000
007FFFFFFC0000
007FFFFFE00000
007FFFFE000000
ENDCHAR
STARTCHAR dcroat
ENCODING 273
SWIDTH 614 0
DWIDTH 55 0
BBX 50 69 5 -1
BITMAP
00000001FFC000
00000001FFC000
00000001FFC000
00000001FFC000
00000001FFC000
00000001FFC000
000007FFFFFFC0
000007FFFFFFC0
000007FFFFFFC0
000007FFFFFFC0
000007FFFFFFC0
000007FFFFFFC0
000007FFFFFFC0
000007FFFFFFC0
00000001FFC000
00000001FFC000
00000001FFC000
00000001FFC000
00000001FFC000
0001FF01FFC000
000FFFE1FFC000
003FFFF1FFC000
007FFFFDFFC000
00FFFFFFFFC000
01FFFFFFFFC000
03FFFFFFFFC000
07FFFFFFFFC000
0FFFFFFFFFC000
0FFFC01FFFC000
1FFF000FFFC000
1FFE0007FFC000
3FFC0003FFC000
3FF80001FFC000
3FF80001FFC000
7FF00001FFC000
7FF00001FFC000
7FF00001FFC000
7FF00001FFC000
7FE00001FFC000
7FE00001FFC000
FFE00001FFC000
FFE00001FFC000
FFE00001FFC000
FFE00001FFC000
FFE00001FFC000
FFE00001FFC000
FFE00001FFC000
FFE00001FFC000
7FE00001FFC000
7FE00001FFC000
7FE00001FFC000
7FF00001FFC000
7FF00001FFC000
7FF00001FFC000
3FF80001FFC000
3FF80001FFC000
3FFC0003FFC000
1FFE0007FFC000
1FFF000FFFC000
0FFF801FFFC000
0FFFFFFFFFC000
07FFFFFFFFC000
03FFFFFFFFC000
01FFFFFFFFC000
00FFFFFEFFC000
007FFFFCFFC000
003FFFF0FFC000
000FFFE0FFC000
0001FF00000000
ENDCHAR
STARTCHAR Emacron
ENCODING 274
SWIDTH 600 0
DWIDTH 54 0
BBX 42 79 7 0
BITMAP
07FFFFFFF800
07FFFFFFF800
07FFFFFFF800
07FFFFFFF800
07FFFFFFF800
07FFFFFFF800
07FFFFFFF800
000000000000
000000000000
000000000000
000000000000
000000000000
000000000000
000000000000
FFFFFFFFFF80
FFFFFFFFFF80
FFFFFFFFFF80
FFFFFFFFFF80
FFFFFFFFFF80
FFFFFFFFFF80
FFFFFFFFFF80
FFFFFFFFFF80
FFFFFFFFFF80
FFE000000000
FFE000000000
FFE000000000
FFE000000000
FFE000000000
FFE000000000
FFE000000000
FFE000000000
FFE000000000
FFE000000000
FFE000000000
FFE000000000
FFE000000000
FFE000000000
FFE000000000
FFE000000000
FFE000000000
FFE000000000
FFFFFFFFF800
FFFFFFFFF800
FFFFFFFFF800
FFFFFFFFF800
FFFFFFFFF800
FFFFFFFFF800
FFFFFFFFF800
FFFFFFFFF800
FFFFFFFFF800
FFE000000000
FFE000000000
FFE000000000
FFE000000000
FFE000000000
FFE000000000
FFE000000000
FFE000000000
FFE000000000
FFE000000000
FFE000000000
FFE000000000
FFE000000000
FFE000000000
FFE000000000
FFE000000000
FFE000000000
FFE000000000
FFE000000000
FFE000000000
FFFFFFFFFFC0
FFFFFFFFFFC0
FFFFFFFFFFC0
FFFFFFFFFFC0
FFFFFFFFFFC0
FFFFFFFFFFC0
FFFFFFFFFFC0
FFFFFFFFFFC0
FFFFFFFFFFC0
ENDCHAR
STARTCHAR emacron
ENCODING 275
SWIDTH 600 0
DWIDTH 54 0
BBX 44 66 5 -1
BITMAP
03FFFFFFFC00
03FFFFFFFC00
03FFFFFFFC00
03FFFFFFFC00
03FFFFFFFC00
03FFFFFFFC00
03FFFFFFFC00
000000000000
000000000000
000000000000
000000000000
000000000000
000000000000
000000000000
000000000000
000000000000
00003FF00000
0001FFFE0000
0007FFFF8000
001FFFFFE000
003FFFFFF000
00FFFFFFF800
01FFFFFFFC00
03FFFFFFFE00
03FFFFFFFF00
07FFC01FFF00
0FFF8007FF80
0FFF0003FF80
1FFE0001FFC0
1FFC0000FFC0
3FF80000FFC0
3FF800007FE0
7FF000007FE0
7FF000007FE0
7FF000007FE0
7FF000007FF0
7FE000007FF0
FFFFFFFFFFF0
FFFFFFFFFFF0
FFFFFFFFFFF0
FFFFFFFFFFF0
FFFFFFFFFFF0
FFFFFFFFFFF0
FFFFFFFFFFF0
FFFFFFFFFFF0
FFE000000000
7FE000000000
7FE000000000
7FF000000000
7FF000000000
3FF800000000
3FF800000000
3FFC00000400
1FFE00000E00
1FFF00001F00
0FFF80007FC0
07FFE001FFE0
07FFFFFFFFE0
03FFFFFFFFC0
01FFFFFFFF80
00FFFFFFFF00
007FFFFFFE00
001FFFFFF800
0007FFFFE000
0001FFFF8000
00003FF80000
ENDCHAR
STARTCHAR Ebreve
ENCODING 276
SWIDTH 600 0
DWIDTH 54 0
BBX 42 83 7 0
BITMAP
01FE001FE000
01FE001FE000
01FE001FE000
01FF003FE000
00FF807FC000
00FFC0FFC000
007FFFFF8000
003FFFFF0000
003FFFFE0000
000FFFFC0000
0007FFF80000
0000FFC00000
000000000000
000000000000
000000000000
000000000000
000000000000
000000000000
FFFFFFFFFF80
FFFFFFFFFF80
FFFFFFFFFF80
FFFFFFFFFF80
FFFFFFFFFF80
FFFFFFFFFF80
FFFFFFFFFF80
FFFFFFFFFF80
FFFFFFFFFF80
FFE000000000
FFE000000000
FFE000000000
FFE000000000
FFE000000000
FFE000000000
FFE000000000
FFE000000000
FFE000000000
FFE000000000
FFE000000000
FFE000000000
FFE000000000
FFE000000000
FFE000000000
FFE000000000
FFE000000000
FFE000000000
FFFFFFFFF800
FFFFFFFFF800
FFFFFFFFF800
FFFFFFFFF800
FFFFFFFFF800
FFFFFFFFF800
FFFFFFFFF800
FFFFFFFFF800
FFFFFFFFF800
FFE000000000
FFE000000000
FFE000000000
FFE000000000
FFE000000000
FFE000000000
FFE000000000
FFE000000000
FFE000000000
FFE000000000
FFE000000000
FFE000000000
FFE000000000
FFE000000000
FFE000000000
FFE000000000
FFE000000000
FFE000000000
FFE000000000
FFE000000000
FFFFFFFFFFC0
FFFFFFFFFFC0
FFFFFFFFFFC0
FFFFFFFFFFC0
FFFFFFFFFFC0
FFFFFFFFFFC0
FFFFFFFFFFC0
FFFFFFFFFFC0
FFFFFFFFFFC0
ENDCHAR
STARTCHAR ebreve
ENCODING 277
SWIDTH 600 0
DWIDTH 54 0
BBX 44 70 5 -1
BITMAP
00FF000FF000
00FF000FF000
00FF000FF000
00FF801FF000
007F803FE000
007FE07FE000
003FFFFFC000
003FFFFF8000
001FFFFF0000
0007FFFE0000
0003FFF80000
00007FC00000
000000000000
000000000000
000000000000
000000000000
000000000000
000000000000
000000000000
000000000000
00003FF00000
0001FFFE0000
0007FFFF8000
001FFFFFE000
003FFFFFF000
00FFFFFFF800
01FFFFFFFC00
03FFFFFFFE00
03FFFFFFFF00
07FFC01FFF00
0FFF8007FF80
0FFF0003FF80
1FFE0001FFC0
1FFC0000FFC0
3FF80000FFC0
3FF800007FE0
7FF000007FE0
7FF000007FE0
7FF000007FE0
7FF000007FF0
7FE000007FF0
FFFFFFFFFFF0
FFFFFFFFFFF0
FFFFFFFFFFF0
FFFFFFFFFFF0
FFFFFFFFFFF0
FFFFFFFFFFF0
FFFFFFFFFFF0
FFFFFFFFFFF0
FFE000000000
7FE000000000
7FE000000000
7FF000000000
7FF000000000
3FF800000000
3FF800000000
3FFC00000400
1FFE00000E00
1FFF00001F00
0FFF80007FC0
07FFE001FFE0
07FFFFFFFFE0
03FFFFFFFFC0
01FFFFFFFF80
00FFFFFFFF00
007FFFFFFE00
001FFFFFF800
0007FFFFE000
0001FFFF8000
00003FF80000
ENDCHAR
STARTCHAR Edotaccent
ENCODING 278
SWIDTH 600 0
DWIDTH 54 0
BBX 42 81 7 0
BITMAP
00003F000000
00007F800000
0000FFC00000
0001FFE00000
0001FFE00000
0001FFE00000
0001FFE00000
0001FFE00000
0000FFC00000
00007F800000
00003F000000
000000000000
000000000000
000000000000
000000000000
000000000000
FFFFFFFFFF80
FFFFFFFFFF80
FFFFFFFFFF80
FFFFFFFFFF80
FFFFFFFFFF80
FFFFFFFFFF80
FFFFFFFFFF80
FFFFFFFFFF80
FFFFFFFFFF80
FFE000000000
FFE000000000
FFE000000000
FFE000000000
FFE000000000
FFE000000000
FFE000000000
FFE000000000
FFE000000000
FFE000000000
FFE000000000
FFE000000000
FFE000000000
FFE000000000
FFE000000000
FFE000000000
FFE000000000
FFE000000000
FFFFFFFFF800
FFFFFFFFF800
FFFFFFFFF800
FFFFFFFFF800
FFFFFFFFF800
FFFFFFFFF800
FFFFFFFFF800
FFFFFFFFF800
FFFFFFFFF800
FFE000000000
FFE000000000
FFE000000000
FFE000000000
FFE000000000
FFE000000000
FFE000000000
FFE000000000
FFE000000000
FFE000000000
FFE000000000
FFE000000000
FFE000000000
FFE000000000
FFE000000000
FFE000000000
FFE000000000
FFE000000000
FFE000000000
FFE000000000
FFFFFFFFFFC0
FFFFFFFFFFC0
FFFFFFFFFFC0
FFFFFFFFFFC0
FFFFFFFFFFC0
FFFFFFFFFFC0
FFFFFFFFFFC0
FFFFFFFFFFC0
FFFFFFFFFFC0
ENDCHAR
STARTCHAR edotaccent
ENCODING 279
SWIDTH 600 0
DWIDTH 54 0
BBX 44 69 5 -1
BITMAP
00001F800000
00007FC00000
00007FE00000
0000FFE00000
0000FFF00000
0000FFF00000
0000FFF00000
0000FFE00000
00007FE00000
00007FC00000
00001F800000
000000000000
000000000000
000000000000
000000000000
000000000000
000000000000
000000000000
000000000000
00003FF00000
0001FFFE0000
0007FFFF8000
001FFFFFE000
003FFFFFF000
00FFFFFFF800
01FFFFFFFC00
03FFFFFFFE00
03FFFFFFFF00
07FFC01FFF00
0FFF8007FF80
0FFF0003FF80
1FFE0001FFC0
1FFC0000FFC0
3FF80000FFC0
3FF800007FE0
7FF000007FE0
7FF000007FE0
7FF000007FE0
7FF000007FF0
7FE000007FF0
FFFFFFFFFFF0
FFFFFFFFFFF0
FFFFFFFFFFF0
FFFFFFFFFFF0
FFFFFFFFFFF0
FFFFFFFFFFF0
FFFFFFFFFFF0
FFFFFFFFFFF0
FFE000000000
7FE000000000
7FE000000000
7FF000000000
7FF000000000
3FF800000000
3FF800000000
3FFC00000400
1FFE00000E00
1FFF00001F00
0FFF80007FC0
07FFE001FFE0
07FFFFFFFFE0
03FFFFFFFFC0
01FFFFFFFF80
00FFFFFFFF00
007FFFFFFE00
001FFFFFF800
0007FFFFE000
0001FFFF8000
00003FF80000
ENDCHAR
STARTCHAR Eogonek
ENCODING 280
SWIDTH 600 0
DWIDTH 54 0
BBX 42 84 7 -19
BITMAP
FFFFFFFFFF80
FFFFFFFFFF80
FFFFFFFFFF80
FFFFFFFFFF80
FFFFFFFFFF80
FFFFFFFFFF80
FFFFFFFFFF80
FFFFFFFFFF80
FFFFFFFFFF80
FFE000000000
FFE000000000
FFE000000000
FFE000000000
FFE000000000
FFE000000000
FFE000000000
FFE000000000
FFE000000000
FFE000000000
FFE000000000
FFE000000000
FFE000000000
FFE000000000
FFE000000000
FFE000000000
FFE000000000
FFE000000000
FFFFFFFFF800
FFFFFFFFF800
FFFFFFFFF800
FFFFFFFFF800
FFFFFFFFF800
FFFFFFFFF800
FFFFFFFFF800
FFFFFFFFF800
FFFFFFFFF800
FFE000000000
FFE000000000
FFE000000000
FFE000000000
FFE000000000
FFE000000000
FFE000000000
FFE000000000
FFE000000000
FFE000000000
FFE000000000
FFE000000000
FFE000000000
FFE000000000
FFE000000000
FFE000000000
FFE000000000
FFE000000000
FFE000000000
FFE000000000
FFFFFFFFFFC0
FFFFFFFFFFC0
FFFFFFFFFFC0
FFFFFFFFFFC0
FFFFFFFFFFC0
FFFFFFFFFFC0
FFFFFFFFFFC0
FFFFFFFFFFC0
FFFFFFFFFFC0
0000001FF000
0000003FC000
0000007F8000
000000FF0000
000001FE0000
000001FE0000
000003FC0000
000003FC0000
000003FC0000
000007FC0000
000007FC0000
000007FE0800
000003FFF800
000003FFFC00
000003FFFC00
000001FFFC00
000000FFFE00
0000007FFC00
0000001FE000
ENDCHAR
STARTCHAR eogonek
ENCODING 281
SWIDTH 600 0
DWIDTH 54 0
BBX 44 67 5 -18
BITMAP
00003FF00000
0001FFFE0000
0007FFFF8000
001FFFFFE000
003FFFFFF000
00FFFFFFF800
01FFFFFFFC00
03FFFFFFFE00
03FFFFFFFF00
07FFC01FFF00
0FFF0007FF80
0FFE0003FFC0
1FFC0001FFC0
1FFC0000FFC0
3FF80000FFE0
3FF800007FE0
3FF000007FE0
7FF000007FE0
7FF000007FF0
7FE000007FF0
7FFFFFFFFFF0
7FFFFFFFFFF0
FFFFFFFFFFF0
FFFFFFFFFFF0
FFFFFFFFFFF0
FFFFFFFFFFF0
FFFFFFFFFFF0
FFFFFFFFFFF0
FFE000000000
FFE000000000
7FE000000000
7FF000000000
7FF000000000
7FF000000000
7FF800000000
3FF800000400
3FFC00000600
1FFE00000F00
1FFF00003F80
0FFF80007FC0
0FFFE001FFE0
07FFFF7FFFE0
03FFFFFFFFC0
01FFFFFFFF80
00FFFFFFFF00
007FFFFFFE00
003FFFFFF800
000FFFFFE000
0003FFFF8000
00007FFE0000
000007FC0000
000007F80000
00000FF00000
00001FE00000
00001FE00000
00003FE00000
00003FC00000
00003FC00000
00003FE00000
00003FF0C000
00003FFFC000
00003FFFC000
00001FFFE000
00001FFFE000
00000FFFE000
000003FFE000
000000FF0000
ENDCHAR
STARTCHAR Ecaron
ENCODING 282
SWIDTH 600 0
DWIDTH 54 0
BBX 42 82 7 0
BITMAP
03FE001FF000
03FF003FF000
01FF807FE000
00FFC0FF8000
007FE3FF0000
001FF7FE0000
000FFFFC0000
0007FFF80000
0003FFF00000
0001FFE00000
0000FFC00000
00007F800000
000000000000
000000000000
000000000000
000000000000
000000000000
FFFFFFFFFF80
FFFFFFFFFF80
FFFFFFFFFF80
FFFFFFFFFF80
FFFFFFFFFF80
FFFFFFFFFF80
FFFFFFFFFF80
FFFFFFFFFF80
FFFFFFFFFF80
FFE000000000
FFE000000000
FFE000000000
FFE000000000
FFE000000000
FFE000000000
FFE000000000
FFE000000000
FFE000000000
FFE000000000
FFE000000000
FFE000000000
FFE000000000
FFE000000000
FFE000000000
FFE000000000
FFE000000000
FFE000000000
FFFFFFFFF800
FFFFFFFFF800
FFFFFFFFF800
FFFFFFFFF800
FFFFFFFFF800
FFFFFFFFF800
FFFFFFFFF800
FFFFFFFFF800
FFFFFFFFF800
FFE000000000
FFE000000000
FFE000000000
FFE000000000
FFE000000000
FFE000000000
FFE000000000
FFE000000000
FFE000000000
FFE000000000
FFE000000000
FFE000000000
FFE000000000
FFE000000000
FFE000000000
FFE000000000
FFE000000000
FFE000000000
FFE000000000
FFE000000000
FFFFFFFFFFC0
FFFFFFFFFFC0
FFFFFFFFFFC0
FFFFFFFFFFC0
FFFFFFFFFFC0
FFFFFFFFFFC0
FFFFFFFFFFC0
FFFFFFFFFFC0
FFFFFFFFFFC0
ENDCHAR
STARTCHAR ecaron
ENCODING 283
SWIDTH 600 0
DWIDTH 54 0
BBX 44 69 5 -1
BITMAP
03FF000FF800
01FF801FF000
00FFC03FE000
007FE0FFC000
003FF1FF8000
001FFBFF0000
0007FFFE0000
0003FFFC0000
0001FFF80000
0000FFF00000
00007FE00000
00003FC00000
000000000000
000000000000
000000000000
000000000000
000000000000
000000000000
000000000000
00003FF00000
0001FFFE0000
0007FFFF8000
001FFFFFE000
003FFFFFF000
00FFFFFFF800
01FFFFFFFC00
03FFFFFFFE00
03FFFFFFFF00
07FFC01FFF00
0FFF8007FF80
0FFF0003FF80
1FFE0001FFC0
1FFC0000FFC0
3FF80000FFC0
3FF800007FE0
7FF000007FE0
7FF000007FE0
7FF000007FE0
7FF000007FF0
7FE000007FF0
FFFFFFFFFFF0
FFFFFFFFFFF0
FFFFFFFFFFF0
FFFFFFFFFFF0
FFFFFFFFFFF0
FFFFFFFFFFF0
FFFFFFFFFFF0
FFFFFFFFFFF0
FFE000000000
7FE000000000
7FE000000000
7FF000000000
7FF000000000
3FF800000000
3FF800000000
3FFC00000400
1FFE00000E00
1FFF00001F00
0FFF80007FC0
07FFE001FFE0
07FFFFFFFFE0
03FFFFFFFFC0
01FFFFFFFF80
00FFFFFFFF00
007FFFFFFE00
001FFFFFF800
0007FFFFE000
0001FFFF8000
00003FF80000
ENDCHAR
STARTCHAR Gcircumflex
ENCODING 284
SWIDTH 600 0
DWIDTH 54 0
BBX 45 84 4 -1
BITMAP
000007F00000
00000FF80000
00001FFC0000
00007FFE0000
0000FFFF8000
0001FFFFC000
0003FF7FE000
0007FE3FF000
000FFC1FF800
001FF80FFC00
003FE007FE00
003FC003FE00
000000000000
000000000000
000000000000
000000000000
000000000000
00001FF80000
0001FFFF0000
0007FFFFE000
001FFFFFF000
003FFFFFFC00
007FFFFFFE00
00FFFFFFFF00
01FFFFFFFF80
03FFFFFFFFC0
03FFE007FFC0
07FF8003FFE0
0FFF0001FFE0
0FFE0000FFF0
1FFE00007FF0
1FFC00007FF0
3FF800003FF8
3FF800003FF8
3FF800001FF8
7FF000001FF8
7FF000001FF8
7FF000000000
7FE000000000
7FE000000000
FFE000000000
FFE000000000
FFE000000000
FFE000000000
FFE000000000
FFE000000000
FFE000000000
FFE000000000
FFE000000000
FFE000000000
FFE000FFFFF8
FFE000FFFFF8
FFE000FFFFF8
FFE000FFFFF8
FFE000FFFFF8
FFE000FFFFF8
FFE000FFFFF8
FFE000FFFFF8
FFE000FFFFF8
FFE000001FF8
FFE000001FF8
7FE000001FF8
7FE000001FF8
7FF000001FF8
7FF000001FF8
7FF000001FF8
3FF800001FF8
3FF800001FF8
3FFC00001FF8
1FFC00001FF8
1FFE00001FF8
0FFF00001FF8
0FFF80003FF8
07FFC0007FF8
03FFE001FFF8
03FFFFFFFFF8
01FFFFFFFFF0
00FFFFFFFFE0
007FFFFFFFC0
003FFFFFFF80
000FFFFFFE00
0007FFFFF800
0000FFFFC000
00001FFC0000
ENDCHAR
STARTCHAR gcircumflex
ENCODING 285
SWIDTH 600 0
DWIDTH 54 0
BBX 42 86 5 -18
BITMAP
00003F800000
00007FC00000
0001FFE00000
0003FFF00000
0007FFF80000
000FFFFE0000
001FFBFF0000
003FF1FF8000
007FE0FFC000
00FF807FE000
01FF003FF000
03FE001FF000
000000000000
000000000000
000000000000
000000000000
000000000000
000000000000
000000000000
0001FF000000
000FFFE07FC0
003FFFF87FC0
007FFFFC7FC0
00FFFFFEFFC0
01FFFFFFFFC0
03FFFFFFFFC0
07FFFFFFFFC0
0FFFFFFFFFC0
0FFFC01FFFC0
1FFF0007FFC0
1FFE0003FFC0
3FFC0003FFC0
3FFC0001FFC0
3FF80000FFC0
3FF80000FFC0
7FF00000FFC0
7FF00000FFC0
7FF00000FFC0
7FE00000FFC0
7FE00000FFC0
7FE00000FFC0
FFE00000FFC0
FFE00000FFC0
FFE00000FFC0
FFE00000FFC0
FFE00000FFC0
FFE00000FFC0
7FE00000FFC0
7FE00000FFC0
7FE00000FFC0
7FF00000FFC0
7FF00000FFC0
7FF00000FFC0
3FF00000FFC0
3FF80000FFC0
3FF80001FFC0
1FFC0001FFC0
1FFE0003FFC0
1FFF0007FFC0
0FFFC01FFFC0
07FFFFFFFFC0
07FFFFFFFFC0
03FFFFFFFFC0
01FFFFFFFFC0
00FFFFFEFFC0
007FFFFCFFC0
003FFFF8FFC0
000FFFE0FFC0
0001FF00FFC0
00000000FFC0
00000001FFC0
00000001FFC0
00800003FF80
01800003FF80
03E00007FF80
07F0000FFF00
0FFE003FFF00
1FFFFFFFFE00
1FFFFFFFFC00
0FFFFFFFFC00
07FFFFFFF800
01FFFFFFF000
00FFFFFFC000
003FFFFF0000
000FFFFC0000
0000FFC00000
ENDCHAR
STARTCHAR Gbreve
ENCODING 286
SWIDTH 600 0
DWIDTH 54 0
BBX 45 85 4 -1
BITMAP
003FC001FE00
003FC003FE00
001FE003FC00
001FE003FC00
001FF007FC00
000FFC1FF800
000FFFFFF800
0007FFFFF000
0003FFFFE000
0001FFFFC000
00007FFF0000
00000FF80000
000000000000
000000000000
000000000000
000000000000
000000000000
000000000000
00001FF80000
0001FFFF0000
0007FFFFE000
001FFFFFF000
003FFFFFFC00
007FFFFFFE00
00FFFFFFFF00
01FFFFFFFF80
03FFFFFFFFC0
03FFE007FFC0
07FF8003FFE0
0FFF0001FFE0
0FFE0000FFF0
1FFE00007FF0
1FFC00007FF0
3FF800003FF8
3FF800003FF8
3FF800001FF8
7FF000001FF8
7FF000001FF8
7FF000000000
7FE000000000
7FE000000000
FFE000000000
FFE000000000
FFE000000000
FFE000000000
FFE000000000
FFE000000000
FFE000000000
FFE000000000
FFE000000000
FFE000000000
FFE000FFFFF8
FFE000FFFFF8
FFE000FFFFF8
FFE000FFFFF8
FFE000FFFFF8
FFE000FFFFF8
FFE000FFFFF8
FFE000FFFFF8
FFE000FFFFF8
FFE000001FF8
FFE000001FF8
7FE000001FF8
7FE000001FF8
7FF000001FF8
7FF000001FF8
7FF000001FF8
3FF800001FF8
3FF800001FF8
3FFC00001FF8
1FFC00001FF8
1FFE00001FF8
0FFF00001FF8
0FFF80003FF8
07FFC0007FF8
03FFE001FFF8
03FFFFFFFFF8
01FFFFFFFFF0
00FFFFFFFFE0
007FFFFFFFC0
003FFFFFFF80
000FFFFFFE00
0007FFFFF800
0000FFFFC000
00001FFC0000
ENDCHAR
STARTCHAR gbreve
ENCODING 287
SWIDTH 600 0
DWIDTH 54 0
BBX 42 87 5 -18
BITMAP
01FE000FF000
01FE001FE000
00FF001FE000
00FF001FE000
00FF803FE000
007FE0FFC000
007FFFFFC000
003FFFFF8000
001FFFFF0000
000FFFFE0000
0003FFF80000
00007FC00000
000000000000
000000000000
000000000000
000000000000
000000000000
000000000000
000000000000
000000000000
0001FF000000
000FFFE07FC0
003FFFF87FC0
007FFFFC7FC0
00FFFFFEFFC0
01FFFFFFFFC0
03FFFFFFFFC0
07FFFFFFFFC0
0FFFFFFFFFC0
0FFFC01FFFC0
1FFF0007FFC0
1FFE0003FFC0
3FFC0003FFC0
3FFC0001FFC0
3FF80000FFC0
3FF80000FFC0
7FF00000FFC0
7FF00000FFC0
7FF00000FFC0
7FE00000FFC0
7FE00000FFC0
7FE00000FFC0
FFE00000FFC0
FFE00000FFC0
FFE00000FFC0
FFE00000FFC0
FFE00000FFC0
FFE00000FFC0
7FE00000FFC0
7FE00000FFC0
7FE00000FFC0
7FF00000FFC0
7FF00000FFC0
7FF00000FFC0
3FF00000FFC0
3FF80000FFC0
3FF80001FFC0
1FFC0001FFC0
1FFE0003FFC0
1FFF0007FFC0
0FFFC01FFFC0
07FFFFFFFFC0
07FFFFFFFFC0
03FFFFFFFFC0
01FFFFFFFFC0
00FFFFFEFFC0
007FFFFCFFC0
003FFFF8FFC0
000FFFE0FFC0
0001FF00FFC0
00000000FFC0
00000001FFC0
00000001FFC0
00800003FF80
01800003FF80
03E00007FF80
07F0000FFF00
0FFE003FFF00
1FFFFFFFFE00
1FFFFFFFFC00
0FFFFFFFFC00
07FFFFFFF800
01FFFFFFF000
00FFFFFFC000
003FFFFF0000
000FFFFC0000
0000FFC00000
ENDCHAR
STARTCHAR uni0120
ENCODING 288
SWIDTH 600 0
DWIDTH 54 0
BBX 45 83 4 -1
BITMAP
000003E00000
00000FF80000
00001FFC0000
00001FFC0000
00003FFC0000
00003FFC0000
00003FFC0000
00001FFC0000
00001FFC0000
00000FF80000
000003E00000
000000000000
000000000000
000000000000
000000000000
000000000000
00001FF80000
0001FFFF0000
0007FFFFE000
001FFFFFF000
003FFFFFFC00
007FFFFFFE00
00FFFFFFFF00
01FFFFFFFF80
03FFFFFFFFC0
03FFE007FFC0
07FF8003FFE0
0FFF0001FFE0
0FFE0000FFF0
1FFE00007FF0
1FFC00007FF0
3FF800003FF8
3FF800003FF8
3FF800001FF8
7FF000001FF8
7FF000001FF8
7FF000000000
7FE000000000
7FE000000000
FFE000000000
FFE000000000
FFE000000000
FFE000000000
FFE000000000
FFE000000000
FFE000000000
FFE000000000
FFE000000000
FFE000000000
FFE000FFFFF8
FFE000FFFFF8
FFE000FFFFF8
FFE000FFFFF8
FFE000FFFFF8
FFE000FFFFF8
FFE000FFFFF8
FFE000FFFFF8
FFE000FFFFF8
FFE000001FF8
FFE000001FF8
7FE000001FF8
7FE000001FF8
7FF000001FF8
7FF000001FF8
7FF000001FF8
3FF800001FF8
3FF800001FF8
3FFC00001FF8
1FFC00001FF8
1FFE00001FF8
0FFF00001FF8
0FFF80003FF8
07FFC0007FF8
03FFE001FFF8
03FFFFFFFFF8
01FFFFFFFFF0
00FFFFFFFFE0
007FFFFFFFC0
003FFFFFFF80
000FFFFFFE00
0007FFFFF800
0000FFFFC000
00001FFC0000
ENDCHAR
STARTCHAR uni0121
ENCODING 289
SWIDTH 600 0
DWIDTH 54 0
BBX 42 86 5 -18
BITMAP
00001F000000
00007FC00000
0000FFC00000
0000FFE00000
0001FFE00000
0001FFE00000
0001FFE00000
0000FFE00000
0000FFC00000
00007FC00000
00001F000000
000000000000
000000000000
000000000000
000000000000
000000000000
000000000000
000000000000
000000000000
0001FF000000
000FFFE07FC0
003FFFF87FC0
007FFFFC7FC0
00FFFFFEFFC0
01FFFFFFFFC0
03FFFFFFFFC0
07FFFFFFFFC0
0FFFFFFFFFC0
0FFFC01FFFC0
1FFF0007FFC0
1FFE0003FFC0
3FFC0003FFC0
3FFC0001FFC0
3FF80000FFC0
3FF80000FFC0
7FF00000FFC0
7FF00000FFC0
7FF00000FFC0
7FE00000FFC0
7FE00000FFC0
7FE00000FFC0
FFE00000FFC0
FFE00000FFC0
FFE00000FFC0
FFE00000FFC0
FFE00000FFC0
FFE00000FFC0
7FE00000FFC0
7FE00000FFC0
7FE00000FFC0
7FF00000FFC0
7FF00000FFC0
7FF00000FFC0
3FF00000FFC0
3FF80000FFC0
3FF80001FFC0
1FFC0001FFC0
1FFE0003FFC0
1FFF0007FFC0
0FFFC01FFFC0
07FFFFFFFFC0
07FFFFFFFFC0
03FFFFFFFFC0
01FFFFFFFFC0
00FFFFFEFFC0
007FFFFCFFC0
003FFFF8FFC0
000FFFE0FFC0
0001FF00FFC0
00000000FFC0
00000001FFC0
00000001FFC0
00800003FF80
01800003FF80
03E00007FF80
07F0000FFF00
0FFE003FFF00
1FFFFFFFFE00
1FFFFFFFFC00
0FFFFFFFFC00
07FFFFFFF800
01FFFFFFF000
00FFFFFFC000
003FFFFF0000
000FFFFC0000
0000FFC00000
ENDCHAR
ENDFONT
